<?xml version="1.0" encoding="UTF-8" standalone="no"?><svg xmlns="http://www.w3.org/2000/svg" xmlns:xlink="http://www.w3.org/1999/xlink" clip-rule="evenodd" stroke-miterlimit="4.00" viewBox="0 0 1024 768"><desc>SVG generated by Keynote</desc><defs></defs><g transform="matrix(1.00, 0.00, -0.00, -1.00, 0.0, 768.0)"><path d="M 0.0 768.0 L 1024.0 768.0 L 1024.0 0.0 L 0.0 0.0 Z M 0.0 768.0 " fill="#FEFFFF"></path><text xml:space="preserve" font-family="Avenir-Book" font-size="80.0" fill="#000000" transform="matrix(1.00, 0.00, -0.00, -1.00, 315.0, 358.0)">Q</text><text xml:space="preserve" font-family="Avenir-Book" font-size="80.0" fill="#000000" transform="matrix(1.00, 0.00, -0.00, -1.00, 381.7, 358.0)">u</text><text xml:space="preserve" font-family="Avenir-Book" font-size="80.0" fill="#000000" transform="matrix(1.00, 0.00, -0.00, -1.00, 426.2, 358.0)">e</text><text xml:space="preserve" font-family="Avenir-Book" font-size="80.0" fill="#000000" transform="matrix(1.00, 0.00, -0.00, -1.00, 470.7, 358.0)">s</text><text xml:space="preserve" font-family="Avenir-Book" font-size="80.0" fill="#000000" transform="matrix(1.00, 0.00, -0.00, -1.00, 504.8, 358.0)">t</text><text xml:space="preserve" font-family="Avenir-Book" font-size="80.0" fill="#000000" transform="matrix(1.00, 0.00, -0.00, -1.00, 531.3, 358.0)">i</text><text xml:space="preserve" font-family="Avenir-Book" font-size="80.0" fill="#000000" transform="matrix(1.00, 0.00, -0.00, -1.00, 550.5, 358.0)">o</text><text xml:space="preserve" font-family="Avenir-Book" font-size="80.0" fill="#000000" transform="matrix(1.00, 0.00, -0.00, -1.00, 598.0, 358.0)">n</text><text xml:space="preserve" font-family="Avenir-Book" font-size="80.0" fill="#000000" transform="matrix(1.00, 0.00, -0.00, -1.00, 642.4, 358.0)">s</text><text xml:space="preserve" font-family="Avenir-Book" font-size="80.0" fill="#000000" transform="matrix(1.00, 0.00, -0.00, -1.00, 676.5, 358.0)">?</text></g></svg>