<?xml version="1.0" encoding="UTF-8" standalone="no"?><svg xmlns="http://www.w3.org/2000/svg" xmlns:xlink="http://www.w3.org/1999/xlink" clip-rule="evenodd" stroke-miterlimit="4.00" viewBox="0 0 1024 768"><desc>SVG generated by Keynote</desc><defs></defs><g transform="matrix(1.00, 0.00, -0.00, -1.00, 0.0, 768.0)"><path d="M 0.0 768.0 L 1024.0 768.0 L 1024.0 0.0 L 0.0 0.0 Z M 0.0 768.0 " fill="#FEFFFF"></path><text xml:space="preserve" font-family="Avenir-Heavy" font-weight="bold" font-size="52.8" fill="#000000" transform="matrix(1.00, 0.00, -0.00, -1.00, 129.0, 287.0)">C</text><text xml:space="preserve" font-family="Avenir-Heavy" font-weight="bold" font-size="52.8" fill="#000000" transform="matrix(1.00, 0.00, -0.00, -1.00, 165.2, 287.0)">h</text><text xml:space="preserve" font-family="Avenir-Heavy" font-weight="bold" font-size="52.8" fill="#000000" transform="matrix(1.00, 0.00, -0.00, -1.00, 195.5, 287.0)">a</text><text xml:space="preserve" font-family="Avenir-Heavy" font-weight="bold" font-size="52.8" fill="#000000" transform="matrix(1.00, 0.00, -0.00, -1.00, 223.8, 287.0)">s</text><text xml:space="preserve" font-family="Avenir-Heavy" font-weight="bold" font-size="52.8" fill="#000000" transform="matrix(1.00, 0.00, -0.00, -1.00, 247.3, 287.0)">m</text><text xml:space="preserve" font-family="Avenir-Book" font-size="52.8" fill="#000000" transform="matrix(1.00, 0.00, -0.00, -1.00, 293.2, 287.0)">:</text><text xml:space="preserve" font-family="Avenir-Book" font-size="52.8" fill="#000000" transform="matrix(1.00, 0.00, -0.00, -1.00, 307.9, 287.0)"> </text><text xml:space="preserve" font-family="Avenir-Book" font-size="52.8" fill="#000000" transform="matrix(1.00, 0.00, -0.00, -1.00, 322.6, 287.0)">F</text><text xml:space="preserve" font-family="Avenir-Book" font-size="52.8" fill="#000000" transform="matrix(1.00, 0.00, -0.00, -1.00, 351.9, 287.0)">a</text><text xml:space="preserve" font-family="Avenir-Book" font-size="52.8" fill="#000000" transform="matrix(1.00, 0.00, -0.00, -1.00, 379.3, 287.0)">u</text><text xml:space="preserve" font-family="Avenir-Book" font-size="52.8" fill="#000000" transform="matrix(1.00, 0.00, -0.00, -1.00, 408.7, 287.0)">l</text><text xml:space="preserve" font-family="Avenir-Book" font-size="52.8" fill="#000000" transform="matrix(1.00, 0.00, -0.00, -1.00, 421.4, 287.0)">t</text><text xml:space="preserve" font-family="Avenir-Book" font-size="52.8" fill="#000000" transform="matrix(1.00, 0.00, -0.00, -1.00, 438.9, 287.0)">-</text><text xml:space="preserve" font-family="Avenir-Book" font-size="52.8" fill="#000000" transform="matrix(1.00, 0.00, -0.00, -1.00, 456.5, 287.0)">T</text><text xml:space="preserve" font-family="Avenir-Book" font-size="52.8" fill="#000000" transform="matrix(1.00, 0.00, -0.00, -1.00, 480.9, 287.0)">o</text><text xml:space="preserve" font-family="Avenir-Book" font-size="52.8" fill="#000000" transform="matrix(1.00, 0.00, -0.00, -1.00, 512.2, 287.0)">l</text><text xml:space="preserve" font-family="Avenir-Book" font-size="52.8" fill="#000000" transform="matrix(1.00, 0.00, -0.00, -1.00, 524.9, 287.0)">e</text><text xml:space="preserve" font-family="Avenir-Book" font-size="52.8" fill="#000000" transform="matrix(1.00, 0.00, -0.00, -1.00, 554.3, 287.0)">r</text><text xml:space="preserve" font-family="Avenir-Book" font-size="52.8" fill="#000000" transform="matrix(1.00, 0.00, -0.00, -1.00, 571.8, 287.0)">a</text><text xml:space="preserve" font-family="Avenir-Book" font-size="52.8" fill="#000000" transform="matrix(1.00, 0.00, -0.00, -1.00, 599.2, 287.0)">n</text><text xml:space="preserve" font-family="Avenir-Book" font-size="52.8" fill="#000000" transform="matrix(1.00, 0.00, -0.00, -1.00, 628.5, 287.0)">t</text><text xml:space="preserve" font-family="Avenir-Book" font-size="52.8" fill="#000000" transform="matrix(1.00, 0.00, -0.00, -1.00, 646.1, 287.0)">,</text><text xml:space="preserve" font-family="Avenir-Book" font-size="52.8" fill="#000000" transform="matrix(1.00, 0.00, -0.00, -1.00, 660.7, 287.0)"> </text><text xml:space="preserve" font-family="Avenir-Book" font-size="52.8" fill="#000000" transform="matrix(1.00, 0.00, -0.00, -1.00, 675.4, 287.0)">I</text><text xml:space="preserve" font-family="Avenir-Book" font-size="52.8" fill="#000000" transform="matrix(1.00, 0.00, -0.00, -1.00, 689.4, 287.0)">n</text><text xml:space="preserve" font-family="Avenir-Book" font-size="52.8" fill="#000000" transform="matrix(1.00, 0.00, -0.00, -1.00, 718.7, 287.0)">f</text><text xml:space="preserve" font-family="Avenir-Book" font-size="52.8" fill="#000000" transform="matrix(1.00, 0.00, -0.00, -1.00, 734.4, 287.0)">o</text><text xml:space="preserve" font-family="Avenir-Book" font-size="52.8" fill="#000000" transform="matrix(1.00, 0.00, -0.00, -1.00, 765.7, 287.0)">r</text><text xml:space="preserve" font-family="Avenir-Book" font-size="52.8" fill="#000000" transform="matrix(1.00, 0.00, -0.00, -1.00, 784.1, 287.0)">m</text><text xml:space="preserve" font-family="Avenir-Book" font-size="52.8" fill="#000000" transform="matrix(1.00, 0.00, -0.00, -1.00, 829.1, 287.0)">a</text><text xml:space="preserve" font-family="Avenir-Book" font-size="52.8" fill="#000000" transform="matrix(1.00, 0.00, -0.00, -1.00, 856.5, 287.0)">t</text><text xml:space="preserve" font-family="Avenir-Book" font-size="52.8" fill="#000000" transform="matrix(1.00, 0.00, -0.00, -1.00, 874.1, 287.0)">i</text><text xml:space="preserve" font-family="Avenir-Book" font-size="52.8" fill="#000000" transform="matrix(1.00, 0.00, -0.00, -1.00, 886.7, 287.0)">o</text><text xml:space="preserve" font-family="Avenir-Book" font-size="52.8" fill="#000000" transform="matrix(1.00, 0.00, -0.00, -1.00, 918.0, 287.0)">n</text><text xml:space="preserve" font-family="Avenir-Book" font-size="52.8" fill="#000000" transform="matrix(1.00, 0.00, -0.00, -1.00, 947.4, 287.0)">-</text><text xml:space="preserve" font-family="Avenir-Book" font-size="52.8" fill="#000000" transform="matrix(1.00, 0.00, -0.00, -1.00, 129.0, 215.0)">T</text><text xml:space="preserve" font-family="Avenir-Book" font-size="52.8" fill="#000000" transform="matrix(1.00, 0.00, -0.00, -1.00, 159.3, 215.0)">h</text><text xml:space="preserve" font-family="Avenir-Book" font-size="52.8" fill="#000000" transform="matrix(1.00, 0.00, -0.00, -1.00, 188.7, 215.0)">e</text><text xml:space="preserve" font-family="Avenir-Book" font-size="52.8" fill="#000000" transform="matrix(1.00, 0.00, -0.00, -1.00, 218.0, 215.0)">o</text><text xml:space="preserve" font-family="Avenir-Book" font-size="52.8" fill="#000000" transform="matrix(1.00, 0.00, -0.00, -1.00, 249.3, 215.0)">r</text><text xml:space="preserve" font-family="Avenir-Book" font-size="52.8" fill="#000000" transform="matrix(1.00, 0.00, -0.00, -1.00, 265.9, 215.0)">e</text><text xml:space="preserve" font-family="Avenir-Book" font-size="52.8" fill="#000000" transform="matrix(1.00, 0.00, -0.00, -1.00, 295.3, 215.0)">t</text><text xml:space="preserve" font-family="Avenir-Book" font-size="52.8" fill="#000000" transform="matrix(1.00, 0.00, -0.00, -1.00, 312.8, 215.0)">i</text><text xml:space="preserve" font-family="Avenir-Book" font-size="52.8" fill="#000000" transform="matrix(1.00, 0.00, -0.00, -1.00, 325.5, 215.0)">c</text><text xml:space="preserve" font-family="Avenir-Book" font-size="52.8" fill="#000000" transform="matrix(1.00, 0.00, -0.00, -1.00, 350.9, 215.0)"> </text><text xml:space="preserve" font-family="Avenir-Book" font-size="52.8" fill="#000000" transform="matrix(1.00, 0.00, -0.00, -1.00, 365.6, 215.0)">S</text><text xml:space="preserve" font-family="Avenir-Book" font-size="52.8" fill="#000000" transform="matrix(1.00, 0.00, -0.00, -1.00, 395.0, 215.0)">e</text><text xml:space="preserve" font-family="Avenir-Book" font-size="52.8" fill="#000000" transform="matrix(1.00, 0.00, -0.00, -1.00, 424.3, 215.0)">c</text><text xml:space="preserve" font-family="Avenir-Book" font-size="52.8" fill="#000000" transform="matrix(1.00, 0.00, -0.00, -1.00, 449.8, 215.0)">u</text><text xml:space="preserve" font-family="Avenir-Book" font-size="52.8" fill="#000000" transform="matrix(1.00, 0.00, -0.00, -1.00, 479.1, 215.0)">r</text><text xml:space="preserve" font-family="Avenir-Book" font-size="52.8" fill="#000000" transform="matrix(1.00, 0.00, -0.00, -1.00, 495.7, 215.0)">e</text><text xml:space="preserve" font-family="Avenir-Book" font-size="52.8" fill="#000000" transform="matrix(1.00, 0.00, -0.00, -1.00, 525.1, 215.0)"> </text><text xml:space="preserve" font-family="Avenir-Book" font-size="52.8" fill="#000000" transform="matrix(1.00, 0.00, -0.00, -1.00, 539.7, 215.0)">C</text><text xml:space="preserve" font-family="Avenir-Book" font-size="52.8" fill="#000000" transform="matrix(1.00, 0.00, -0.00, -1.00, 576.9, 215.0)">l</text><text xml:space="preserve" font-family="Avenir-Book" font-size="52.8" fill="#000000" transform="matrix(1.00, 0.00, -0.00, -1.00, 589.6, 215.0)">o</text><text xml:space="preserve" font-family="Avenir-Book" font-size="52.8" fill="#000000" transform="matrix(1.00, 0.00, -0.00, -1.00, 620.9, 215.0)">u</text><text xml:space="preserve" font-family="Avenir-Book" font-size="52.8" fill="#000000" transform="matrix(1.00, 0.00, -0.00, -1.00, 650.2, 215.0)">d</text><text xml:space="preserve" font-family="Avenir-Book" font-size="52.8" fill="#000000" transform="matrix(1.00, 0.00, -0.00, -1.00, 682.5, 215.0)"> </text><text xml:space="preserve" font-family="Avenir-Book" font-size="52.8" fill="#000000" transform="matrix(1.00, 0.00, -0.00, -1.00, 697.2, 215.0)">B</text><text xml:space="preserve" font-family="Avenir-Book" font-size="52.8" fill="#000000" transform="matrix(1.00, 0.00, -0.00, -1.00, 730.4, 215.0)">a</text><text xml:space="preserve" font-family="Avenir-Book" font-size="52.8" fill="#000000" transform="matrix(1.00, 0.00, -0.00, -1.00, 757.8, 215.0)">c</text><text xml:space="preserve" font-family="Avenir-Book" font-size="52.8" fill="#000000" transform="matrix(1.00, 0.00, -0.00, -1.00, 783.3, 215.0)">k</text><text xml:space="preserve" font-family="Avenir-Book" font-size="52.8" fill="#000000" transform="matrix(1.00, 0.00, -0.00, -1.00, 808.7, 215.0)">u</text><text xml:space="preserve" font-family="Avenir-Book" font-size="52.8" fill="#000000" transform="matrix(1.00, 0.00, -0.00, -1.00, 838.1, 215.0)">p</text><image xlink:href="23AC2C48C2CC2335022660D56D8AFCC0.png" width="355.00" height="355.00" transform="matrix(1.00, 0.00, -0.00, -1.00, 355.0, 717.0)"></image><text xml:space="preserve" font-family="Avenir-Light" font-size="20.5" fill="#000000" transform="matrix(1.00, 0.00, -0.00, -1.00, 477.8, 93.1)">A</text><text xml:space="preserve" font-family="Avenir-Light" font-size="20.5" fill="#000000" transform="matrix(1.00, 0.00, -0.00, -1.00, 491.9, 93.1)">l</text><text xml:space="preserve" font-family="Avenir-Light" font-size="20.5" fill="#000000" transform="matrix(1.00, 0.00, -0.00, -1.00, 496.8, 93.1)">e</text><text xml:space="preserve" font-family="Avenir-Light" font-size="20.5" fill="#000000" transform="matrix(1.00, 0.00, -0.00, -1.00, 508.2, 93.1)">x</text><text xml:space="preserve" font-family="Avenir-Light" font-size="20.5" fill="#000000" transform="matrix(1.00, 0.00, -0.00, -1.00, 518.0, 93.1)"> </text><text xml:space="preserve" font-family="Avenir-Light" font-size="20.5" fill="#000000" transform="matrix(1.00, 0.00, -0.00, -1.00, 523.3, 93.1)">G</text><text xml:space="preserve" font-family="Avenir-Light" font-size="20.5" fill="#000000" transform="matrix(1.00, 0.00, -0.00, -1.00, 539.3, 93.1)">r</text><text xml:space="preserve" font-family="Avenir-Light" font-size="20.5" fill="#000000" transform="matrix(1.00, 0.00, -0.00, -1.00, 546.1, 93.1)">i</text><text xml:space="preserve" font-family="Avenir-Light" font-size="20.5" fill="#000000" transform="matrix(1.00, 0.00, -0.00, -1.00, 551.0, 93.1)">n</text><text xml:space="preserve" font-family="Avenir-Light" font-size="20.5" fill="#000000" transform="matrix(1.00, 0.00, -0.00, -1.00, 562.4, 93.1)">m</text><text xml:space="preserve" font-family="Avenir-Light" font-size="20.5" fill="#000000" transform="matrix(1.00, 0.00, -0.00, -1.00, 579.8, 93.1)">a</text><text xml:space="preserve" font-family="Avenir-Light" font-size="20.5" fill="#000000" transform="matrix(1.00, 0.00, -0.00, -1.00, 590.5, 93.1)">n</text><text xml:space="preserve" font-family="Avenir-Light" font-size="20.5" fill="#000000" transform="matrix(1.00, 0.00, -0.00, -1.00, 601.9, 93.1)">,</text><text xml:space="preserve" font-family="Avenir-Light" font-size="20.5" fill="#000000" transform="matrix(1.00, 0.00, -0.00, -1.00, 607.2, 93.1)"> </text><text xml:space="preserve" font-family="Avenir-Light" font-size="20.5" fill="#000000" transform="matrix(1.00, 0.00, -0.00, -1.00, 612.5, 93.1)">A</text><text xml:space="preserve" font-family="Avenir-Light" font-size="20.5" fill="#000000" transform="matrix(1.00, 0.00, -0.00, -1.00, 626.5, 93.1)">k</text><text xml:space="preserve" font-family="Avenir-Light" font-size="20.5" fill="#000000" transform="matrix(1.00, 0.00, -0.00, -1.00, 636.4, 93.1)">s</text><text xml:space="preserve" font-family="Avenir-Light" font-size="20.5" fill="#000000" transform="matrix(1.00, 0.00, -0.00, -1.00, 645.1, 93.1)">h</text><text xml:space="preserve" font-family="Avenir-Light" font-size="20.5" fill="#000000" transform="matrix(1.00, 0.00, -0.00, -1.00, 656.5, 93.1)">a</text><text xml:space="preserve" font-family="Avenir-Light" font-size="20.5" fill="#000000" transform="matrix(1.00, 0.00, -0.00, -1.00, 667.1, 93.1)">y</text><text xml:space="preserve" font-family="Avenir-Light" font-size="20.5" fill="#000000" transform="matrix(1.00, 0.00, -0.00, -1.00, 676.6, 93.1)"> </text><text xml:space="preserve" font-family="Avenir-Light" font-size="20.5" fill="#000000" transform="matrix(1.00, 0.00, -0.00, -1.00, 681.9, 93.1)">R</text><text xml:space="preserve" font-family="Avenir-Light" font-size="20.5" fill="#000000" transform="matrix(1.00, 0.00, -0.00, -1.00, 694.1, 93.1)">a</text><text xml:space="preserve" font-family="Avenir-Light" font-size="20.5" fill="#000000" transform="matrix(1.00, 0.00, -0.00, -1.00, 704.7, 93.1)">v</text><text xml:space="preserve" font-family="Avenir-Light" font-size="20.5" fill="#000000" transform="matrix(1.00, 0.00, -0.00, -1.00, 714.2, 93.1)">i</text><text xml:space="preserve" font-family="Avenir-Light" font-size="20.5" fill="#000000" transform="matrix(1.00, 0.00, -0.00, -1.00, 719.1, 93.1)">k</text><text xml:space="preserve" font-family="Avenir-Light" font-size="20.5" fill="#000000" transform="matrix(1.00, 0.00, -0.00, -1.00, 728.9, 93.1)">u</text><text xml:space="preserve" font-family="Avenir-Light" font-size="20.5" fill="#000000" transform="matrix(1.00, 0.00, -0.00, -1.00, 740.3, 93.1)">m</text><text xml:space="preserve" font-family="Avenir-Light" font-size="20.5" fill="#000000" transform="matrix(1.00, 0.00, -0.00, -1.00, 757.8, 93.1)">a</text><text xml:space="preserve" font-family="Avenir-Light" font-size="20.5" fill="#000000" transform="matrix(1.00, 0.00, -0.00, -1.00, 768.4, 93.1)">r</text><text xml:space="preserve" font-family="Avenir-Light" font-size="20.5" fill="#000000" transform="matrix(1.00, 0.00, -0.00, -1.00, 773.4, 93.1)">,</text><text xml:space="preserve" font-family="Avenir-Light" font-size="20.5" fill="#000000" transform="matrix(1.00, 0.00, -0.00, -1.00, 778.7, 93.1)"> </text><text xml:space="preserve" font-family="Avenir-Light" font-size="20.5" fill="#000000" transform="matrix(1.00, 0.00, -0.00, -1.00, 784.0, 93.1)">J</text><text xml:space="preserve" font-family="Avenir-Light" font-size="20.5" fill="#000000" transform="matrix(1.00, 0.00, -0.00, -1.00, 793.9, 93.1)">u</text><text xml:space="preserve" font-family="Avenir-Light" font-size="20.5" fill="#000000" transform="matrix(1.00, 0.00, -0.00, -1.00, 805.3, 93.1)">l</text><text xml:space="preserve" font-family="Avenir-Light" font-size="20.5" fill="#000000" transform="matrix(1.00, 0.00, -0.00, -1.00, 810.2, 93.1)">i</text><text xml:space="preserve" font-family="Avenir-Light" font-size="20.5" fill="#000000" transform="matrix(1.00, 0.00, -0.00, -1.00, 815.1, 93.1)">a</text><text xml:space="preserve" font-family="Avenir-Light" font-size="20.5" fill="#000000" transform="matrix(1.00, 0.00, -0.00, -1.00, 825.7, 93.1)">n</text><text xml:space="preserve" font-family="Avenir-Light" font-size="20.5" fill="#000000" transform="matrix(1.00, 0.00, -0.00, -1.00, 837.1, 93.1)"> </text><text xml:space="preserve" font-family="Avenir-Light" font-size="20.5" fill="#000000" transform="matrix(1.00, 0.00, -0.00, -1.00, 842.4, 93.1)">F</text><text xml:space="preserve" font-family="Avenir-Light" font-size="20.5" fill="#000000" transform="matrix(1.00, 0.00, -0.00, -1.00, 853.8, 93.1)">u</text><text xml:space="preserve" font-family="Avenir-Light" font-size="20.5" fill="#000000" transform="matrix(1.00, 0.00, -0.00, -1.00, 865.2, 93.1)">c</text><text xml:space="preserve" font-family="Avenir-Light" font-size="20.5" fill="#000000" transform="matrix(1.00, 0.00, -0.00, -1.00, 875.1, 93.1)">h</text><text xml:space="preserve" font-family="Avenir-Light" font-size="20.5" fill="#000000" transform="matrix(1.00, 0.00, -0.00, -1.00, 886.5, 93.1)">s</text><text xml:space="preserve" font-family="Avenir-Light" font-size="20.5" fill="#000000" transform="matrix(1.00, 0.00, -0.00, -1.00, 895.2, 93.1)">,</text><text xml:space="preserve" font-family="Avenir-Light" font-size="20.5" fill="#000000" transform="matrix(1.00, 0.00, -0.00, -1.00, 900.5, 93.1)"> </text><text xml:space="preserve" font-family="Avenir-Light" font-size="20.5" fill="#000000" transform="matrix(1.00, 0.00, -0.00, -1.00, 905.8, 93.1)">K</text><text xml:space="preserve" font-family="Avenir-Light" font-size="20.5" fill="#000000" transform="matrix(1.00, 0.00, -0.00, -1.00, 918.3, 93.1)">e</text><text xml:space="preserve" font-family="Avenir-Light" font-size="20.5" fill="#000000" transform="matrix(1.00, 0.00, -0.00, -1.00, 929.7, 93.1)">v</text><text xml:space="preserve" font-family="Avenir-Light" font-size="20.5" fill="#000000" transform="matrix(1.00, 0.00, -0.00, -1.00, 939.2, 93.1)">i</text><text xml:space="preserve" font-family="Avenir-Light" font-size="20.5" fill="#000000" transform="matrix(1.00, 0.00, -0.00, -1.00, 944.1, 93.1)">n</text><text xml:space="preserve" font-family="Avenir-Light" font-size="20.5" fill="#000000" transform="matrix(1.00, 0.00, -0.00, -1.00, 955.5, 93.1)"> </text><text xml:space="preserve" font-family="Avenir-Light" font-size="20.5" fill="#000000" transform="matrix(1.00, 0.00, -0.00, -1.00, 960.8, 93.1)">L</text><text xml:space="preserve" font-family="Avenir-Light" font-size="20.5" fill="#000000" transform="matrix(1.00, 0.00, -0.00, -1.00, 971.1, 93.1)">i</text></g></svg>