<?xml version="1.0" encoding="UTF-8" standalone="no"?><svg xmlns="http://www.w3.org/2000/svg" xmlns:xlink="http://www.w3.org/1999/xlink" clip-rule="evenodd" stroke-miterlimit="4.00" viewBox="0 0 337 46"><desc>SVG generated by Keynote</desc><defs></defs><g transform="matrix(1.00, 0.00, -0.00, -1.00, 0.0, 46.0)"><text xml:space="preserve" font-family="Avenir-Book" font-size="56.8" fill="#000000" transform="matrix(1.00, 0.00, -0.00, -1.00, 1.0, 2.0)">T</text><text xml:space="preserve" font-family="Avenir-Book" font-size="56.8" fill="#000000" transform="matrix(1.00, 0.00, -0.00, -1.00, 33.6, 2.0)">h</text><text xml:space="preserve" font-family="Avenir-Book" font-size="56.8" fill="#000000" transform="matrix(1.00, 0.00, -0.00, -1.00, 65.2, 2.0)">r</text><text xml:space="preserve" font-family="Avenir-Book" font-size="56.8" fill="#000000" transform="matrix(1.00, 0.00, -0.00, -1.00, 83.0, 2.0)">e</text><text xml:space="preserve" font-family="Avenir-Book" font-size="56.8" fill="#000000" transform="matrix(1.00, 0.00, -0.00, -1.00, 114.6, 2.0)">a</text><text xml:space="preserve" font-family="Avenir-Book" font-size="56.8" fill="#000000" transform="matrix(1.00, 0.00, -0.00, -1.00, 144.1, 2.0)">t</text><text xml:space="preserve" font-family="Avenir-Book" font-size="56.8" fill="#000000" transform="matrix(1.00, 0.00, -0.00, -1.00, 162.9, 2.0)"> </text><text xml:space="preserve" font-family="Avenir-Book" font-size="56.8" fill="#000000" transform="matrix(1.00, 0.00, -0.00, -1.00, 178.7, 2.0)">m</text><text xml:space="preserve" font-family="Avenir-Book" font-size="56.8" fill="#000000" transform="matrix(1.00, 0.00, -0.00, -1.00, 227.1, 2.0)">o</text><text xml:space="preserve" font-family="Avenir-Book" font-size="56.8" fill="#000000" transform="matrix(1.00, 0.00, -0.00, -1.00, 260.8, 2.0)">d</text><text xml:space="preserve" font-family="Avenir-Book" font-size="56.8" fill="#000000" transform="matrix(1.00, 0.00, -0.00, -1.00, 295.5, 2.0)">e</text><text xml:space="preserve" font-family="Avenir-Book" font-size="56.8" fill="#000000" transform="matrix(1.00, 0.00, -0.00, -1.00, 327.1, 2.0)">l</text></g></svg>