<?xml version="1.0" encoding="UTF-8" standalone="no"?><svg xmlns="http://www.w3.org/2000/svg" xmlns:xlink="http://www.w3.org/1999/xlink" clip-rule="evenodd" stroke-miterlimit="4.00" viewBox="0 0 278 174"><desc>SVG generated by Keynote</desc><defs></defs><g transform="matrix(1.00, 0.00, -0.00, -1.00, 0.0, 174.0)"><g><clipPath id="clip-24"><path d="M 12.5 124.7 L 54.1 124.7 L 54.1 166.4 L 12.5 166.4 Z M 12.5 124.7 "></path></clipPath><g clip-path="url(#clip-24)"><image xlink:href="A9114CD7272A0CFB3F3D47A44CAC7812.png" width="42.00" height="42.00" transform="matrix(1.00, 0.00, -0.00, -0.98, 12.0, 166.0)"></image></g></g><g><clipPath id="clip-25"><path d="M 0.7 0.8 L 277.0 0.8 L 277.0 174.0 L 0.7 174.0 Z M 0.7 0.8 "></path></clipPath><g clip-path="url(#clip-25)"><path d="M 0.0 0.0 L 272.3 0.0 L 272.3 169.2 L 0.0 169.2 Z M 0.0 0.0 " fill="none" stroke="#85878C" stroke-width="2.00" stroke-dasharray="2.0, 2.0" transform="matrix(1.00, 0.00, 0.00, -1.00, 2.7, 172.0)"></path></g></g><g><clipPath id="clip-26"><path d="M 104.0 151.0 L 174.0 151.0 L 174.0 82.0 L 104.0 82.0 Z M 104.2 151.2 "></path></clipPath><g clip-path="url(#clip-26)"><g><clipPath id="clip-27"><path d="M 104.2 81.8 L 173.6 81.8 L 173.6 151.2 L 104.2 151.2 Z M 104.2 81.8 "></path></clipPath><g clip-path="url(#clip-27)"><image xlink:href="../../DF8F138C-72EC-4035-8AD0-EC707CBD7E8E/assets/0426B54AE24C89A605E79F5E49AD01B9.png" width="70.00" height="70.00" transform="matrix(1.00, 0.00, -0.00, -0.99, 104.0, 151.0)"></image></g></g></g></g><g><clipPath id="clip-28"><path d="M 116.6 85.1 L 165.7 85.1 L 165.7 147.9 L 116.6 147.9 Z M 116.6 85.1 "></path></clipPath><g clip-path="url(#clip-28)"><text xml:space="preserve" font-family="Menlo-Bold" font-weight="bold" font-size="22.0" fill="#000000" transform="matrix(1.00, 0.00, -0.00, -1.00, 126.0, 122.0)">0</text><text xml:space="preserve" font-family="Menlo-Bold" font-weight="bold" font-size="22.0" fill="#000000" transform="matrix(1.00, 0.00, -0.00, -1.00, 139.2, 122.0)">0</text><text xml:space="preserve" font-family="Menlo-Bold" font-weight="bold" font-size="22.0" fill="#000000" transform="matrix(1.00, 0.00, -0.00, -1.00, 152.5, 122.0)"> </text><text xml:space="preserve" font-family="Menlo-Bold" font-weight="bold" font-size="22.0" fill="#000000" transform="matrix(1.00, 0.00, -0.00, -1.00, 126.0, 97.0)">0</text><text xml:space="preserve" font-family="Menlo-Bold" font-weight="bold" font-size="22.0" fill="#000000" transform="matrix(1.00, 0.00, -0.00, -1.00, 139.2, 97.0)">1</text></g></g><g><clipPath id="clip-29"><path d="M 40.1 30.2 L 237.7 30.2 L 237.7 69.2 L 40.1 69.2 Z M 40.1 30.2 "></path></clipPath><g clip-path="url(#clip-29)"><text xml:space="preserve" font-family="Avenir-Heavy" font-weight="bold" font-size="19.0" fill="#000000" transform="matrix(1.00, 0.00, -0.00, -1.00, 47.0, 44.0)">W</text><text xml:space="preserve" font-family="Avenir-Heavy" font-weight="bold" font-size="19.0" fill="#000000" transform="matrix(1.00, 0.00, -0.00, -1.00, 65.6, 44.0)">F</text><text xml:space="preserve" font-family="Avenir-Heavy" font-weight="bold" font-size="19.0" fill="#000000" transform="matrix(1.00, 0.00, -0.00, -1.00, 76.5, 44.0)">O</text><text xml:space="preserve" font-family="Avenir-Heavy" font-weight="bold" font-size="19.0" fill="#000000" transform="matrix(1.00, 0.00, -0.00, -1.00, 92.4, 44.0)">P</text><text xml:space="preserve" font-family="Avenir-Heavy" font-weight="bold" font-size="19.0" fill="#000000" transform="matrix(1.00, 0.00, -0.00, -1.00, 104.0, 44.0)">c</text><text xml:space="preserve" font-family="Avenir-Heavy" font-weight="bold" font-size="19.0" fill="#000000" transform="matrix(1.00, 0.00, -0.00, -1.00, 113.1, 44.0)">d</text><text xml:space="preserve" font-family="Avenir-Heavy" font-weight="bold" font-size="19.0" fill="#000000" transform="matrix(1.00, 0.00, -0.00, -1.00, 125.1, 44.0)">h</text><text xml:space="preserve" font-family="Avenir-Heavy" font-weight="bold" font-size="19.0" fill="#000000" transform="matrix(1.00, 0.00, -0.00, -1.00, 136.0, 44.0)">F</text><text xml:space="preserve" font-family="Avenir-Heavy" font-weight="bold" font-size="19.0" fill="#000000" transform="matrix(1.00, 0.00, -0.00, -1.00, 146.9, 44.0)">f</text><text xml:space="preserve" font-family="Avenir-Heavy" font-weight="bold" font-size="19.0" fill="#000000" transform="matrix(1.00, 0.00, -0.00, -1.00, 153.6, 44.0)">-</text><text xml:space="preserve" font-family="Avenir-Heavy" font-weight="bold" font-size="19.0" fill="#000000" transform="matrix(1.00, 0.00, -0.00, -1.00, 159.6, 44.0)">K</text><text xml:space="preserve" font-family="Avenir-Heavy" font-weight="bold" font-size="19.0" fill="#000000" transform="matrix(1.00, 0.00, -0.00, -1.00, 172.6, 44.0)">C</text><text xml:space="preserve" font-family="Avenir-Heavy" font-weight="bold" font-size="19.0" fill="#000000" transform="matrix(1.00, 0.00, -0.00, -1.00, 185.6, 44.0)">9</text><text xml:space="preserve" font-family="Avenir-Heavy" font-weight="bold" font-size="19.0" fill="#000000" transform="matrix(1.00, 0.00, -0.00, -1.00, 196.9, 44.0)">1</text><text xml:space="preserve" font-family="Avenir-Heavy" font-weight="bold" font-size="19.0" fill="#000000" transform="matrix(1.00, 0.00, -0.00, -1.00, 208.1, 44.0)">V</text><text xml:space="preserve" font-family="Avenir-Heavy" font-weight="bold" font-size="19.0" fill="#000000" transform="matrix(1.00, 0.00, -0.00, -1.00, 220.8, 44.0)">v</text></g></g></g></svg>