<?xml version="1.0" encoding="UTF-8" standalone="no"?><svg xmlns="http://www.w3.org/2000/svg" xmlns:xlink="http://www.w3.org/1999/xlink" clip-rule="evenodd" stroke-miterlimit="4.00" viewBox="0 0 655 331"><desc>SVG generated by Keynote</desc><defs></defs><g transform="matrix(1.00, 0.00, -0.00, -1.00, 0.0, 331.0)"><g><clipPath id="clip-10"><path d="M 295.5 308.9 L 25.6 0.9 L 0.6 22.8 L 270.5 330.8 Z M 295.5 308.9 "></path></clipPath><g clip-path="url(#clip-10)"><path d="M 0.0 0.0 L 376.3 0.0 L 380.3 0.0 " fill="none" stroke="#0096FF" stroke-width="8.00" stroke-dasharray="8.0, 8.0" transform="matrix(-0.66, -0.75, -0.75, 0.66, 282.4, 319.1)"></path><path d="M 22.6 46.3 L 13.8 12.6 L 46.1 25.8 Z M 22.6 46.3 " fill="#0096FF"></path></g></g><g><clipPath id="clip-11"><path d="M 115.0 212.0 L 184.0 212.0 L 184.0 142.0 L 115.0 142.0 Z M 114.9 211.7 "></path></clipPath><g clip-path="url(#clip-11)"><g><clipPath id="clip-12"><path d="M 114.9 142.3 L 184.3 142.3 L 184.3 211.7 L 114.9 211.7 Z M 114.9 142.3 "></path></clipPath><g clip-path="url(#clip-12)"><image xlink:href="0426B54AE24C89A605E79F5E49AD01B9.png" width="70.00" height="70.00" transform="matrix(0.99, 0.00, -0.00, -1.00, 115.0, 212.0)"></image></g></g></g></g><g><clipPath id="clip-13"><path d="M 127.3 145.6 L 171.8 145.6 L 171.8 208.4 L 127.3 208.4 Z M 127.3 145.6 "></path></clipPath><g clip-path="url(#clip-13)"><text xml:space="preserve" font-family="Menlo-Bold" font-weight="bold" font-size="22.0" fill="#000000" transform="matrix(1.00, 0.00, -0.00, -1.00, 136.0, 182.0)">1</text><text xml:space="preserve" font-family="Menlo-Bold" font-weight="bold" font-size="22.0" fill="#000000" transform="matrix(1.00, 0.00, -0.00, -1.00, 149.2, 182.0)">1</text><text xml:space="preserve" font-family="Menlo-Bold" font-weight="bold" font-size="22.0" fill="#000000" transform="matrix(1.00, 0.00, -0.00, -1.00, 136.0, 157.0)">1</text><text xml:space="preserve" font-family="Menlo-Bold" font-weight="bold" font-size="22.0" fill="#000000" transform="matrix(1.00, 0.00, -0.00, -1.00, 149.2, 157.0)">0</text></g></g><g><clipPath id="clip-14"><path d="M 384.6 330.8 L 654.5 22.8 L 629.5 0.9 L 359.6 308.9 Z M 384.6 330.8 "></path></clipPath><g clip-path="url(#clip-14)"><path d="M 0.0 0.0 L 376.3 0.0 L 380.3 0.0 " fill="none" stroke="#008E00" stroke-width="8.00" stroke-dasharray="8.0, 8.0" transform="matrix(0.66, -0.75, -0.75, -0.66, 372.8, 319.1)"></path><path d="M 609.1 25.8 L 641.4 12.6 L 632.5 46.3 Z M 609.1 25.8 " fill="#008E00"></path></g></g><g><clipPath id="clip-15"><path d="M 463.0 212.0 L 533.0 212.0 L 533.0 142.0 L 463.0 142.0 Z M 463.4 211.7 "></path></clipPath><g clip-path="url(#clip-15)"><g><clipPath id="clip-16"><path d="M 463.4 142.3 L 532.9 142.3 L 532.9 211.7 L 463.4 211.7 Z M 463.4 142.3 "></path></clipPath><g clip-path="url(#clip-16)"><image xlink:href="../../DF8F138C-72EC-4035-8AD0-EC707CBD7E8E/assets/0426B54AE24C89A605E79F5E49AD01B9.png" width="70.00" height="70.00" transform="matrix(1.00, 0.00, -0.00, -1.00, 463.0, 212.0)"></image></g></g></g></g><g><clipPath id="clip-17"><path d="M 475.9 145.6 L 525.0 145.6 L 525.0 208.4 L 475.9 208.4 Z M 475.9 145.6 "></path></clipPath><g clip-path="url(#clip-17)"><text xml:space="preserve" font-family="Menlo-Bold" font-weight="bold" font-size="22.0" fill="#000000" transform="matrix(1.00, 0.00, -0.00, -1.00, 485.0, 182.0)">0</text><text xml:space="preserve" font-family="Menlo-Bold" font-weight="bold" font-size="22.0" fill="#000000" transform="matrix(1.00, 0.00, -0.00, -1.00, 498.2, 182.0)">0</text><text xml:space="preserve" font-family="Menlo-Bold" font-weight="bold" font-size="22.0" fill="#000000" transform="matrix(1.00, 0.00, -0.00, -1.00, 511.5, 182.0)"> </text><text xml:space="preserve" font-family="Menlo-Bold" font-weight="bold" font-size="22.0" fill="#000000" transform="matrix(1.00, 0.00, -0.00, -1.00, 485.0, 157.0)">0</text><text xml:space="preserve" font-family="Menlo-Bold" font-weight="bold" font-size="22.0" fill="#000000" transform="matrix(1.00, 0.00, -0.00, -1.00, 498.2, 157.0)">1</text></g></g></g></svg>