<?xml version="1.0" encoding="UTF-8" standalone="no"?><svg xmlns="http://www.w3.org/2000/svg" xmlns:xlink="http://www.w3.org/1999/xlink" clip-rule="evenodd" stroke-miterlimit="4.00" viewBox="0 0 1024 768"><desc>SVG generated by Keynote</desc><defs></defs><g transform="matrix(1.00, 0.00, -0.00, -1.00, 0.0, 768.0)"><path d="M 0.0 768.0 L 1024.0 768.0 L 1024.0 0.0 L 0.0 0.0 Z M 0.0 768.0 " fill="#FEFFFF"></path><g><clipPath id="clip-88"><path d="M 394.0 749.0 L 630.0 749.0 L 630.0 562.0 L 394.0 562.0 Z M 394.2 748.5 "></path></clipPath><g clip-path="url(#clip-88)"><g><clipPath id="clip-89"><path d="M 394.2 562.1 L 629.8 562.1 L 629.8 748.5 L 394.2 748.5 Z M 394.2 562.1 "></path></clipPath><g clip-path="url(#clip-89)"><image xlink:href="../../DF8F138C-72EC-4035-8AD0-EC707CBD7E8E/assets/60F6015A3DACFB6FB43CC47949D428D4.png" width="612.00" height="244.00" transform="matrix(1.00, 0.00, -0.00, -1.00, 53.0, 775.0)"></image></g></g></g></g><g><clipPath id="clip-90"><path d="M 468.0 708.0 L 556.0 708.0 L 556.0 619.0 L 468.0 619.0 Z M 467.8 707.5 "></path></clipPath><g clip-path="url(#clip-90)"><g><clipPath id="clip-91"><path d="M 467.8 619.1 L 556.2 619.1 L 556.2 707.5 L 467.8 707.5 Z M 467.8 619.1 "></path></clipPath><g clip-path="url(#clip-91)"><image xlink:href="../../615F7CD4-E262-41F7-8138-806EC6AB1FAB/assets/23AC2C48C2CC2335022660D56D8AFCC0.png" width="355.00" height="355.00" transform="matrix(0.25, 0.00, -0.00, -0.25, 468.0, 708.0)"></image></g></g></g></g><g><clipPath id="clip-92"><path d="M 467.9 572.6 L 556.1 572.6 L 556.1 619.4 L 467.9 619.4 Z M 467.9 572.6 "></path></clipPath><g clip-path="url(#clip-92)"><text xml:space="preserve" font-family="Avenir-Heavy" font-weight="bold" font-size="23.0" fill="#FEFFFF" transform="matrix(1.00, 0.00, -0.00, -1.00, 476.0, 589.0)">C</text><text xml:space="preserve" font-family="Avenir-Heavy" font-weight="bold" font-size="23.0" fill="#FEFFFF" transform="matrix(1.00, 0.00, -0.00, -1.00, 491.8, 589.0)">h</text><text xml:space="preserve" font-family="Avenir-Heavy" font-weight="bold" font-size="23.0" fill="#FEFFFF" transform="matrix(1.00, 0.00, -0.00, -1.00, 505.0, 589.0)">a</text><text xml:space="preserve" font-family="Avenir-Heavy" font-weight="bold" font-size="23.0" fill="#FEFFFF" transform="matrix(1.00, 0.00, -0.00, -1.00, 517.3, 589.0)">s</text><text xml:space="preserve" font-family="Avenir-Heavy" font-weight="bold" font-size="23.0" fill="#FEFFFF" transform="matrix(1.00, 0.00, -0.00, -1.00, 527.5, 589.0)">m</text></g></g><g><clipPath id="clip-93"><path d="M 212.7 615.0 L 359.7 615.0 L 359.7 655.4 L 212.7 655.4 Z M 212.7 615.0 "></path></clipPath><g clip-path="url(#clip-93)"><path d="M 0.0 0.0 L 106.5 0.0 L 111.5 0.0 " fill="none" stroke="#000000" stroke-width="10.00" transform="matrix(1.00, 0.00, 0.00, -1.00, 213.7, 635.2)"></path><path d="M 320.3 616.0 L 358.7 635.2 L 320.3 654.4 Z M 320.3 616.0 " fill="#000000"></path></g></g><g><clipPath id="clip-94"><path d="M 50.2 591.3 L 178.2 591.3 L 178.2 719.3 L 50.2 719.3 Z M 50.2 591.3 "></path></clipPath><g clip-path="url(#clip-94)"><image xlink:href="../../14970756-4B99-41D7-A7EC-2FA89AB5EE02/assets/22ED18667FE4CBCF69DB7286FEF2F80D.png" width="128.00" height="128.00" transform="matrix(1.00, 0.00, -0.00, -1.00, 50.0, 719.0)"></image></g></g><g><clipPath id="clip-95"><path d="M 9.7 538.5 L 218.8 538.5 L 218.8 583.5 L 9.7 583.5 Z M 9.7 538.5 "></path></clipPath><g clip-path="url(#clip-95)"><text xml:space="preserve" font-family="Avenir-Heavy" font-weight="bold" font-size="22.0" fill="#000000" transform="matrix(1.00, 0.00, -0.00, -1.00, 18.0, 554.0)">b</text><text xml:space="preserve" font-family="Avenir-Heavy" font-weight="bold" font-size="22.0" fill="#000000" transform="matrix(1.00, 0.00, -0.00, -1.00, 31.9, 554.0)">a</text><text xml:space="preserve" font-family="Avenir-Heavy" font-weight="bold" font-size="22.0" fill="#000000" transform="matrix(1.00, 0.00, -0.00, -1.00, 43.7, 554.0)">n</text><text xml:space="preserve" font-family="Avenir-Heavy" font-weight="bold" font-size="22.0" fill="#000000" transform="matrix(1.00, 0.00, -0.00, -1.00, 56.3, 554.0)">k</text><text xml:space="preserve" font-family="Avenir-Heavy" font-weight="bold" font-size="22.0" fill="#000000" transform="matrix(1.00, 0.00, -0.00, -1.00, 68.1, 554.0)">_</text><text xml:space="preserve" font-family="Avenir-Heavy" font-weight="bold" font-size="22.0" fill="#000000" transform="matrix(1.00, 0.00, -0.00, -1.00, 79.1, 554.0)">a</text><text xml:space="preserve" font-family="Avenir-Heavy" font-weight="bold" font-size="22.0" fill="#000000" transform="matrix(1.00, 0.00, -0.00, -1.00, 90.9, 554.0)">c</text><text xml:space="preserve" font-family="Avenir-Heavy" font-weight="bold" font-size="22.0" fill="#000000" transform="matrix(1.00, 0.00, -0.00, -1.00, 101.5, 554.0)">c</text><text xml:space="preserve" font-family="Avenir-Heavy" font-weight="bold" font-size="22.0" fill="#000000" transform="matrix(1.00, 0.00, -0.00, -1.00, 112.1, 554.0)">o</text><text xml:space="preserve" font-family="Avenir-Heavy" font-weight="bold" font-size="22.0" fill="#000000" transform="matrix(1.00, 0.00, -0.00, -1.00, 125.6, 554.0)">u</text><text xml:space="preserve" font-family="Avenir-Heavy" font-weight="bold" font-size="22.0" fill="#000000" transform="matrix(1.00, 0.00, -0.00, -1.00, 138.2, 554.0)">n</text><text xml:space="preserve" font-family="Avenir-Heavy" font-weight="bold" font-size="22.0" fill="#000000" transform="matrix(1.00, 0.00, -0.00, -1.00, 150.8, 554.0)">t</text><text xml:space="preserve" font-family="Avenir-Heavy" font-weight="bold" font-size="22.0" fill="#000000" transform="matrix(1.00, 0.00, -0.00, -1.00, 159.4, 554.0)">s</text><text xml:space="preserve" font-family="Avenir-Heavy" font-weight="bold" font-size="22.0" fill="#000000" transform="matrix(1.00, 0.00, -0.00, -1.00, 169.1, 554.0)">.</text><text xml:space="preserve" font-family="Avenir-Heavy" font-weight="bold" font-size="22.0" fill="#000000" transform="matrix(1.00, 0.00, -0.00, -1.00, 175.7, 554.0)">p</text><text xml:space="preserve" font-family="Avenir-Heavy" font-weight="bold" font-size="22.0" fill="#000000" transform="matrix(1.00, 0.00, -0.00, -1.00, 189.5, 554.0)">d</text><text xml:space="preserve" font-family="Avenir-Heavy" font-weight="bold" font-size="22.0" fill="#000000" transform="matrix(1.00, 0.00, -0.00, -1.00, 203.4, 554.0)">f</text></g></g><g><clipPath id="clip-96"><path d="M 481.5 515.9 L 211.6 207.9 L 186.6 229.8 L 456.5 537.8 Z M 481.5 515.9 "></path></clipPath><g clip-path="url(#clip-96)"><path d="M 0.0 0.0 L 376.3 0.0 L 380.3 0.0 " fill="none" stroke="#0096FF" stroke-width="8.00" stroke-dasharray="8.0, 8.0" transform="matrix(-0.66, -0.75, -0.75, 0.66, 468.4, 526.1)"></path><path d="M 208.6 253.3 L 199.8 219.6 L 232.1 232.8 Z M 208.6 253.3 " fill="#0096FF"></path></g></g><g><clipPath id="clip-97"><path d="M 301.0 419.0 L 370.0 419.0 L 370.0 349.0 L 301.0 349.0 Z M 300.9 418.7 "></path></clipPath><g clip-path="url(#clip-97)"><g><clipPath id="clip-98"><path d="M 300.9 349.3 L 370.3 349.3 L 370.3 418.7 L 300.9 418.7 Z M 300.9 349.3 "></path></clipPath><g clip-path="url(#clip-98)"><image xlink:href="../../DF8F138C-72EC-4035-8AD0-EC707CBD7E8E/assets/0426B54AE24C89A605E79F5E49AD01B9.png" width="70.00" height="70.00" transform="matrix(0.99, 0.00, -0.00, -1.00, 301.0, 419.0)"></image></g></g></g></g><g><clipPath id="clip-99"><path d="M 313.3 352.6 L 357.8 352.6 L 357.8 415.4 L 313.3 415.4 Z M 313.3 352.6 "></path></clipPath><g clip-path="url(#clip-99)"><text xml:space="preserve" font-family="Menlo-Bold" font-weight="bold" font-size="22.0" fill="#000000" transform="matrix(1.00, 0.00, -0.00, -1.00, 322.0, 389.0)">1</text><text xml:space="preserve" font-family="Menlo-Bold" font-weight="bold" font-size="22.0" fill="#000000" transform="matrix(1.00, 0.00, -0.00, -1.00, 335.2, 389.0)">1</text><text xml:space="preserve" font-family="Menlo-Bold" font-weight="bold" font-size="22.0" fill="#000000" transform="matrix(1.00, 0.00, -0.00, -1.00, 322.0, 364.0)">1</text><text xml:space="preserve" font-family="Menlo-Bold" font-weight="bold" font-size="22.0" fill="#000000" transform="matrix(1.00, 0.00, -0.00, -1.00, 335.2, 364.0)">0</text></g></g><g><clipPath id="clip-100"><path d="M 570.6 537.8 L 840.5 229.8 L 815.5 207.9 L 545.6 515.9 Z M 570.6 537.8 "></path></clipPath><g clip-path="url(#clip-100)"><path d="M 0.0 0.0 L 376.3 0.0 L 380.3 0.0 " fill="none" stroke="#008E00" stroke-width="8.00" stroke-dasharray="8.0, 8.0" transform="matrix(0.66, -0.75, -0.75, -0.66, 558.8, 526.1)"></path><path d="M 795.1 232.8 L 827.4 219.6 L 818.5 253.3 Z M 795.1 232.8 " fill="#008E00"></path></g></g><g><clipPath id="clip-101"><path d="M 649.0 419.0 L 719.0 419.0 L 719.0 349.0 L 649.0 349.0 Z M 649.4 418.7 "></path></clipPath><g clip-path="url(#clip-101)"><g><clipPath id="clip-102"><path d="M 649.4 349.3 L 718.9 349.3 L 718.9 418.7 L 649.4 418.7 Z M 649.4 349.3 "></path></clipPath><g clip-path="url(#clip-102)"><image xlink:href="../../DF8F138C-72EC-4035-8AD0-EC707CBD7E8E/assets/0426B54AE24C89A605E79F5E49AD01B9.png" width="70.00" height="70.00" transform="matrix(1.00, 0.00, -0.00, -1.00, 649.0, 419.0)"></image></g></g></g></g><g><clipPath id="clip-103"><path d="M 661.9 352.6 L 711.0 352.6 L 711.0 415.4 L 661.9 415.4 Z M 661.9 352.6 "></path></clipPath><g clip-path="url(#clip-103)"><text xml:space="preserve" font-family="Menlo-Bold" font-weight="bold" font-size="22.0" fill="#000000" transform="matrix(1.00, 0.00, -0.00, -1.00, 671.0, 389.0)">0</text><text xml:space="preserve" font-family="Menlo-Bold" font-weight="bold" font-size="22.0" fill="#000000" transform="matrix(1.00, 0.00, -0.00, -1.00, 684.2, 389.0)">0</text><text xml:space="preserve" font-family="Menlo-Bold" font-weight="bold" font-size="22.0" fill="#000000" transform="matrix(1.00, 0.00, -0.00, -1.00, 697.5, 389.0)"> </text><text xml:space="preserve" font-family="Menlo-Bold" font-weight="bold" font-size="22.0" fill="#000000" transform="matrix(1.00, 0.00, -0.00, -1.00, 671.0, 364.0)">0</text><text xml:space="preserve" font-family="Menlo-Bold" font-weight="bold" font-size="22.0" fill="#000000" transform="matrix(1.00, 0.00, -0.00, -1.00, 684.2, 364.0)">1</text></g></g><g><clipPath id="clip-104"><path d="M 93.9 151.8 L 135.6 151.8 L 135.6 190.8 L 93.9 190.8 Z M 93.9 151.8 "></path></clipPath><g clip-path="url(#clip-104)"><image xlink:href="../../DF8F138C-72EC-4035-8AD0-EC707CBD7E8E/assets/35C7A41B81C7C61D1A0B27B7957CB40C.png" width="42.00" height="39.00" transform="matrix(1.00, 0.00, -0.00, -1.00, 94.0, 191.0)"></image></g></g><g><clipPath id="clip-105"><path d="M 76.0 35.8 L 352.3 35.8 L 352.3 209.0 L 76.0 209.0 Z M 76.0 35.8 "></path></clipPath><g clip-path="url(#clip-105)"><path d="M 0.0 0.0 L 272.3 0.0 L 272.3 169.2 L 0.0 169.2 Z M 0.0 0.0 " fill="none" stroke="#85878C" stroke-width="2.00" stroke-dasharray="2.0, 2.0" transform="matrix(1.00, 0.00, 0.00, -1.00, 78.0, 207.0)"></path></g></g><g><clipPath id="clip-106"><path d="M 179.0 169.0 L 249.0 169.0 L 249.0 99.0 L 179.0 99.0 Z M 179.4 168.7 "></path></clipPath><g clip-path="url(#clip-106)"><g><clipPath id="clip-107"><path d="M 179.4 99.3 L 248.9 99.3 L 248.9 168.7 L 179.4 168.7 Z M 179.4 99.3 "></path></clipPath><g clip-path="url(#clip-107)"><image xlink:href="../../DF8F138C-72EC-4035-8AD0-EC707CBD7E8E/assets/0426B54AE24C89A605E79F5E49AD01B9.png" width="70.00" height="70.00" transform="matrix(1.00, 0.00, -0.00, -1.00, 179.0, 169.0)"></image></g></g></g></g><g><clipPath id="clip-108"><path d="M 191.9 102.6 L 236.4 102.6 L 236.4 165.4 L 191.9 165.4 Z M 191.9 102.6 "></path></clipPath><g clip-path="url(#clip-108)"><text xml:space="preserve" font-family="Menlo-Bold" font-weight="bold" font-size="22.0" fill="#000000" transform="matrix(1.00, 0.00, -0.00, -1.00, 201.0, 139.0)">1</text><text xml:space="preserve" font-family="Menlo-Bold" font-weight="bold" font-size="22.0" fill="#000000" transform="matrix(1.00, 0.00, -0.00, -1.00, 214.2, 139.0)">1</text><text xml:space="preserve" font-family="Menlo-Bold" font-weight="bold" font-size="22.0" fill="#000000" transform="matrix(1.00, 0.00, -0.00, -1.00, 201.0, 114.0)">1</text><text xml:space="preserve" font-family="Menlo-Bold" font-weight="bold" font-size="22.0" fill="#000000" transform="matrix(1.00, 0.00, -0.00, -1.00, 214.2, 114.0)">0</text></g></g><g><clipPath id="clip-109"><path d="M 115.3 50.2 L 313.0 50.2 L 313.0 89.2 L 115.3 89.2 Z M 115.3 50.2 "></path></clipPath><g clip-path="url(#clip-109)"><text xml:space="preserve" font-family="Avenir-Heavy" font-weight="bold" font-size="19.0" fill="#000000" transform="matrix(1.00, 0.00, -0.00, -1.00, 122.0, 64.0)">W</text><text xml:space="preserve" font-family="Avenir-Heavy" font-weight="bold" font-size="19.0" fill="#000000" transform="matrix(1.00, 0.00, -0.00, -1.00, 140.6, 64.0)">F</text><text xml:space="preserve" font-family="Avenir-Heavy" font-weight="bold" font-size="19.0" fill="#000000" transform="matrix(1.00, 0.00, -0.00, -1.00, 151.5, 64.0)">O</text><text xml:space="preserve" font-family="Avenir-Heavy" font-weight="bold" font-size="19.0" fill="#000000" transform="matrix(1.00, 0.00, -0.00, -1.00, 167.4, 64.0)">P</text><text xml:space="preserve" font-family="Avenir-Heavy" font-weight="bold" font-size="19.0" fill="#000000" transform="matrix(1.00, 0.00, -0.00, -1.00, 179.0, 64.0)">c</text><text xml:space="preserve" font-family="Avenir-Heavy" font-weight="bold" font-size="19.0" fill="#000000" transform="matrix(1.00, 0.00, -0.00, -1.00, 188.1, 64.0)">d</text><text xml:space="preserve" font-family="Avenir-Heavy" font-weight="bold" font-size="19.0" fill="#000000" transform="matrix(1.00, 0.00, -0.00, -1.00, 200.1, 64.0)">h</text><text xml:space="preserve" font-family="Avenir-Heavy" font-weight="bold" font-size="19.0" fill="#000000" transform="matrix(1.00, 0.00, -0.00, -1.00, 211.0, 64.0)">F</text><text xml:space="preserve" font-family="Avenir-Heavy" font-weight="bold" font-size="19.0" fill="#000000" transform="matrix(1.00, 0.00, -0.00, -1.00, 221.9, 64.0)">f</text><text xml:space="preserve" font-family="Avenir-Heavy" font-weight="bold" font-size="19.0" fill="#000000" transform="matrix(1.00, 0.00, -0.00, -1.00, 228.6, 64.0)">-</text><text xml:space="preserve" font-family="Avenir-Heavy" font-weight="bold" font-size="19.0" fill="#000000" transform="matrix(1.00, 0.00, -0.00, -1.00, 234.6, 64.0)">K</text><text xml:space="preserve" font-family="Avenir-Heavy" font-weight="bold" font-size="19.0" fill="#000000" transform="matrix(1.00, 0.00, -0.00, -1.00, 247.6, 64.0)">C</text><text xml:space="preserve" font-family="Avenir-Heavy" font-weight="bold" font-size="19.0" fill="#000000" transform="matrix(1.00, 0.00, -0.00, -1.00, 260.6, 64.0)">9</text><text xml:space="preserve" font-family="Avenir-Heavy" font-weight="bold" font-size="19.0" fill="#000000" transform="matrix(1.00, 0.00, -0.00, -1.00, 271.9, 64.0)">1</text><text xml:space="preserve" font-family="Avenir-Heavy" font-weight="bold" font-size="19.0" fill="#000000" transform="matrix(1.00, 0.00, -0.00, -1.00, 283.1, 64.0)">V</text><text xml:space="preserve" font-family="Avenir-Heavy" font-weight="bold" font-size="19.0" fill="#000000" transform="matrix(1.00, 0.00, -0.00, -1.00, 295.8, 64.0)">v</text></g></g><g><clipPath id="clip-110"><path d="M 707.5 159.7 L 749.1 159.7 L 749.1 201.4 L 707.5 201.4 Z M 707.5 159.7 "></path></clipPath><g clip-path="url(#clip-110)"><image xlink:href="../../DF8F138C-72EC-4035-8AD0-EC707CBD7E8E/assets/A9114CD7272A0CFB3F3D47A44CAC7812.png" width="42.00" height="42.00" transform="matrix(1.00, 0.00, -0.00, -0.98, 707.0, 201.0)"></image></g></g><g><clipPath id="clip-111"><path d="M 695.7 35.8 L 972.0 35.8 L 972.0 209.0 L 695.7 209.0 Z M 695.7 35.8 "></path></clipPath><g clip-path="url(#clip-111)"><path d="M 0.0 0.0 L 272.3 0.0 L 272.3 169.2 L 0.0 169.2 Z M 0.0 0.0 " fill="none" stroke="#85878C" stroke-width="2.00" stroke-dasharray="2.0, 2.0" transform="matrix(1.00, 0.00, 0.00, -1.00, 697.7, 207.0)"></path></g></g><g><clipPath id="clip-112"><path d="M 799.0 186.0 L 869.0 186.0 L 869.0 117.0 L 799.0 117.0 Z M 799.2 186.2 "></path></clipPath><g clip-path="url(#clip-112)"><g><clipPath id="clip-113"><path d="M 799.2 116.8 L 868.6 116.8 L 868.6 186.2 L 799.2 186.2 Z M 799.2 116.8 "></path></clipPath><g clip-path="url(#clip-113)"><image xlink:href="../../DF8F138C-72EC-4035-8AD0-EC707CBD7E8E/assets/0426B54AE24C89A605E79F5E49AD01B9.png" width="70.00" height="70.00" transform="matrix(1.00, 0.00, -0.00, -0.99, 799.0, 186.0)"></image></g></g></g></g><g><clipPath id="clip-114"><path d="M 811.6 120.1 L 860.7 120.1 L 860.7 182.9 L 811.6 182.9 Z M 811.6 120.1 "></path></clipPath><g clip-path="url(#clip-114)"><text xml:space="preserve" font-family="Menlo-Bold" font-weight="bold" font-size="22.0" fill="#000000" transform="matrix(1.00, 0.00, -0.00, -1.00, 821.0, 157.0)">0</text><text xml:space="preserve" font-family="Menlo-Bold" font-weight="bold" font-size="22.0" fill="#000000" transform="matrix(1.00, 0.00, -0.00, -1.00, 834.2, 157.0)">0</text><text xml:space="preserve" font-family="Menlo-Bold" font-weight="bold" font-size="22.0" fill="#000000" transform="matrix(1.00, 0.00, -0.00, -1.00, 847.5, 157.0)"> </text><text xml:space="preserve" font-family="Menlo-Bold" font-weight="bold" font-size="22.0" fill="#000000" transform="matrix(1.00, 0.00, -0.00, -1.00, 821.0, 132.0)">0</text><text xml:space="preserve" font-family="Menlo-Bold" font-weight="bold" font-size="22.0" fill="#000000" transform="matrix(1.00, 0.00, -0.00, -1.00, 834.2, 132.0)">1</text></g></g><g><clipPath id="clip-115"><path d="M 735.1 65.2 L 932.7 65.2 L 932.7 104.2 L 735.1 104.2 Z M 735.1 65.2 "></path></clipPath><g clip-path="url(#clip-115)"><text xml:space="preserve" font-family="Avenir-Heavy" font-weight="bold" font-size="19.0" fill="#000000" transform="matrix(1.00, 0.00, -0.00, -1.00, 742.0, 79.0)">W</text><text xml:space="preserve" font-family="Avenir-Heavy" font-weight="bold" font-size="19.0" fill="#000000" transform="matrix(1.00, 0.00, -0.00, -1.00, 760.6, 79.0)">F</text><text xml:space="preserve" font-family="Avenir-Heavy" font-weight="bold" font-size="19.0" fill="#000000" transform="matrix(1.00, 0.00, -0.00, -1.00, 771.5, 79.0)">O</text><text xml:space="preserve" font-family="Avenir-Heavy" font-weight="bold" font-size="19.0" fill="#000000" transform="matrix(1.00, 0.00, -0.00, -1.00, 787.4, 79.0)">P</text><text xml:space="preserve" font-family="Avenir-Heavy" font-weight="bold" font-size="19.0" fill="#000000" transform="matrix(1.00, 0.00, -0.00, -1.00, 799.0, 79.0)">c</text><text xml:space="preserve" font-family="Avenir-Heavy" font-weight="bold" font-size="19.0" fill="#000000" transform="matrix(1.00, 0.00, -0.00, -1.00, 808.1, 79.0)">d</text><text xml:space="preserve" font-family="Avenir-Heavy" font-weight="bold" font-size="19.0" fill="#000000" transform="matrix(1.00, 0.00, -0.00, -1.00, 820.1, 79.0)">h</text><text xml:space="preserve" font-family="Avenir-Heavy" font-weight="bold" font-size="19.0" fill="#000000" transform="matrix(1.00, 0.00, -0.00, -1.00, 831.0, 79.0)">F</text><text xml:space="preserve" font-family="Avenir-Heavy" font-weight="bold" font-size="19.0" fill="#000000" transform="matrix(1.00, 0.00, -0.00, -1.00, 841.9, 79.0)">f</text><text xml:space="preserve" font-family="Avenir-Heavy" font-weight="bold" font-size="19.0" fill="#000000" transform="matrix(1.00, 0.00, -0.00, -1.00, 848.6, 79.0)">-</text><text xml:space="preserve" font-family="Avenir-Heavy" font-weight="bold" font-size="19.0" fill="#000000" transform="matrix(1.00, 0.00, -0.00, -1.00, 854.6, 79.0)">K</text><text xml:space="preserve" font-family="Avenir-Heavy" font-weight="bold" font-size="19.0" fill="#000000" transform="matrix(1.00, 0.00, -0.00, -1.00, 867.6, 79.0)">C</text><text xml:space="preserve" font-family="Avenir-Heavy" font-weight="bold" font-size="19.0" fill="#000000" transform="matrix(1.00, 0.00, -0.00, -1.00, 880.6, 79.0)">9</text><text xml:space="preserve" font-family="Avenir-Heavy" font-weight="bold" font-size="19.0" fill="#000000" transform="matrix(1.00, 0.00, -0.00, -1.00, 891.9, 79.0)">1</text><text xml:space="preserve" font-family="Avenir-Heavy" font-weight="bold" font-size="19.0" fill="#000000" transform="matrix(1.00, 0.00, -0.00, -1.00, 903.1, 79.0)">V</text><text xml:space="preserve" font-family="Avenir-Heavy" font-weight="bold" font-size="19.0" fill="#000000" transform="matrix(1.00, 0.00, -0.00, -1.00, 915.8, 79.0)">v</text></g></g></g></svg>