<?xml version="1.0" encoding="UTF-8" standalone="no"?><svg xmlns="http://www.w3.org/2000/svg" xmlns:xlink="http://www.w3.org/1999/xlink" clip-rule="evenodd" stroke-miterlimit="4.00" viewBox="0 0 1024 768"><desc>SVG generated by Keynote</desc><defs></defs><g transform="matrix(1.00, 0.00, -0.00, -1.00, 0.0, 768.0)"><path d="M 0.0 768.0 L 1024.0 768.0 L 1024.0 0.0 L 0.0 0.0 Z M 0.0 768.0 " fill="#FEFFFF"></path><text xml:space="preserve" font-family="Avenir-Book" font-size="60.0" fill="#000000" transform="matrix(1.00, 0.00, -0.00, -1.00, 61.0, 629.0)">H</text><text xml:space="preserve" font-family="Avenir-Book" font-size="60.0" fill="#000000" transform="matrix(1.00, 0.00, -0.00, -1.00, 104.3, 629.0)">o</text><text xml:space="preserve" font-family="Avenir-Book" font-size="60.0" fill="#000000" transform="matrix(1.00, 0.00, -0.00, -1.00, 139.9, 629.0)">w</text><text xml:space="preserve" font-family="Avenir-Book" font-size="60.0" fill="#000000" transform="matrix(1.00, 0.00, -0.00, -1.00, 183.2, 629.0)"> </text><text xml:space="preserve" font-family="Avenir-Book" font-size="60.0" fill="#000000" transform="matrix(1.00, 0.00, -0.00, -1.00, 199.9, 629.0)">d</text><text xml:space="preserve" font-family="Avenir-Book" font-size="60.0" fill="#000000" transform="matrix(1.00, 0.00, -0.00, -1.00, 236.6, 629.0)">o</text><text xml:space="preserve" font-family="Avenir-Book" font-size="60.0" fill="#000000" transform="matrix(1.00, 0.00, -0.00, -1.00, 272.1, 629.0)">e</text><text xml:space="preserve" font-family="Avenir-Book" font-size="60.0" fill="#000000" transform="matrix(1.00, 0.00, -0.00, -1.00, 305.5, 629.0)">s</text><text xml:space="preserve" font-family="Avenir-Book" font-size="60.0" fill="#000000" transform="matrix(1.00, 0.00, -0.00, -1.00, 331.1, 629.0)"> </text><text xml:space="preserve" font-family="Avenir-Book" font-size="60.0" fill="#000000" transform="matrix(1.00, 0.00, -0.00, -1.00, 347.7, 629.0)">C</text><text xml:space="preserve" font-family="Avenir-Book" font-size="60.0" fill="#000000" transform="matrix(1.00, 0.00, -0.00, -1.00, 390.0, 629.0)">h</text><text xml:space="preserve" font-family="Avenir-Book" font-size="60.0" fill="#000000" transform="matrix(1.00, 0.00, -0.00, -1.00, 423.3, 629.0)">a</text><text xml:space="preserve" font-family="Avenir-Book" font-size="60.0" fill="#000000" transform="matrix(1.00, 0.00, -0.00, -1.00, 454.5, 629.0)">s</text><text xml:space="preserve" font-family="Avenir-Book" font-size="60.0" fill="#000000" transform="matrix(1.00, 0.00, -0.00, -1.00, 480.0, 629.0)">m</text><text xml:space="preserve" font-family="Avenir-Book" font-size="60.0" fill="#000000" transform="matrix(1.00, 0.00, -0.00, -1.00, 531.2, 629.0)"> </text><text xml:space="preserve" font-family="Avenir-Book" font-size="60.0" fill="#000000" transform="matrix(1.00, 0.00, -0.00, -1.00, 547.8, 629.0)">w</text><text xml:space="preserve" font-family="Avenir-Book" font-size="60.0" fill="#000000" transform="matrix(1.00, 0.00, -0.00, -1.00, 591.2, 629.0)">o</text><text xml:space="preserve" font-family="Avenir-Book" font-size="60.0" fill="#000000" transform="matrix(1.00, 0.00, -0.00, -1.00, 626.7, 629.0)">r</text><text xml:space="preserve" font-family="Avenir-Book" font-size="60.0" fill="#000000" transform="matrix(1.00, 0.00, -0.00, -1.00, 646.7, 629.0)">k</text><text xml:space="preserve" font-family="Avenir-Book" font-size="60.0" fill="#000000" transform="matrix(1.00, 0.00, -0.00, -1.00, 675.6, 629.0)">?</text><text xml:space="preserve" font-family="Avenir-Light" font-size="33.1" fill="#000000" transform="matrix(1.00, 0.00, -0.00, -1.00, 79.0, 526.1)">1</text><text xml:space="preserve" font-family="Avenir-Light" font-size="33.1" fill="#000000" transform="matrix(1.00, 0.00, -0.00, -1.00, 96.2, 526.1)">.</text><text xml:space="preserve" font-family="Avenir-Heavy" font-weight="bold" font-size="33.1" fill="#000000" transform="matrix(1.00, 0.00, -0.00, -1.00, 125.0, 526.0)">Y</text><text xml:space="preserve" font-family="Avenir-Heavy" font-weight="bold" font-size="33.1" fill="#000000" transform="matrix(1.00, 0.00, -0.00, -1.00, 142.8, 526.0)">o</text><text xml:space="preserve" font-family="Avenir-Heavy" font-weight="bold" font-size="33.1" fill="#000000" transform="matrix(1.00, 0.00, -0.00, -1.00, 163.0, 526.0)">u</text><text xml:space="preserve" font-family="Avenir-Light" font-size="33.1" fill="#000000" transform="matrix(1.00, 0.00, -0.00, -1.00, 182.0, 526.0)"> </text><text xml:space="preserve" font-family="Avenir-Book" font-size="33.1" fill="#000000" transform="matrix(1.00, 0.00, -0.00, -1.00, 190.6, 526.0)">s</text><text xml:space="preserve" font-family="Avenir-Book" font-size="33.1" fill="#000000" transform="matrix(1.00, 0.00, -0.00, -1.00, 204.8, 526.0)">p</text><text xml:space="preserve" font-family="Avenir-Book" font-size="33.1" fill="#000000" transform="matrix(1.00, 0.00, -0.00, -1.00, 225.0, 526.0)">e</text><text xml:space="preserve" font-family="Avenir-Book" font-size="33.1" fill="#000000" transform="matrix(1.00, 0.00, -0.00, -1.00, 243.4, 526.0)">c</text><text xml:space="preserve" font-family="Avenir-Book" font-size="33.1" fill="#000000" transform="matrix(1.00, 0.00, -0.00, -1.00, 259.4, 526.0)">i</text><text xml:space="preserve" font-family="Avenir-Book" font-size="33.1" fill="#000000" transform="matrix(1.00, 0.00, -0.00, -1.00, 267.3, 526.0)">f</text><text xml:space="preserve" font-family="Avenir-Book" font-size="33.1" fill="#000000" transform="matrix(1.00, 0.00, -0.00, -1.00, 277.1, 526.0)">y</text><text xml:space="preserve" font-family="Avenir-Book" font-size="33.1" fill="#000000" transform="matrix(1.00, 0.00, -0.00, -1.00, 293.1, 526.0)"> </text><text xml:space="preserve" font-family="Avenir-Heavy" font-weight="bold" font-size="33.1" fill="#000000" transform="matrix(1.00, 0.00, -0.00, -1.00, 302.3, 526.0)">≥</text><text xml:space="preserve" font-family="Avenir-Heavy" font-weight="bold" font-size="33.1" fill="#000000" transform="matrix(1.00, 0.00, -0.00, -1.00, 324.3, 526.0)"> </text><text xml:space="preserve" font-family="Avenir-Heavy" font-weight="bold" font-size="33.1" fill="#000000" transform="matrix(1.00, 0.00, -0.00, -1.00, 334.2, 526.0)">2</text><text xml:space="preserve" font-family="Avenir-Book" font-size="33.1" fill="#000000" transform="matrix(1.00, 0.00, -0.00, -1.00, 353.8, 526.0)"> </text><text xml:space="preserve" font-family="Avenir-Book" font-size="33.1" fill="#000000" transform="matrix(1.00, 0.00, -0.00, -1.00, 363.0, 526.0)">c</text><text xml:space="preserve" font-family="Avenir-Book" font-size="33.1" fill="#000000" transform="matrix(1.00, 0.00, -0.00, -1.00, 378.9, 526.0)">l</text><text xml:space="preserve" font-family="Avenir-Book" font-size="33.1" fill="#000000" transform="matrix(1.00, 0.00, -0.00, -1.00, 386.9, 526.0)">o</text><text xml:space="preserve" font-family="Avenir-Book" font-size="33.1" fill="#000000" transform="matrix(1.00, 0.00, -0.00, -1.00, 406.5, 526.0)">u</text><text xml:space="preserve" font-family="Avenir-Book" font-size="33.1" fill="#000000" transform="matrix(1.00, 0.00, -0.00, -1.00, 424.9, 526.0)">d</text><text xml:space="preserve" font-family="Avenir-Book" font-size="33.1" fill="#000000" transform="matrix(1.00, 0.00, -0.00, -1.00, 445.2, 526.0)"> </text><text xml:space="preserve" font-family="Avenir-Book" font-size="33.1" fill="#000000" transform="matrix(1.00, 0.00, -0.00, -1.00, 454.4, 526.0)">s</text><text xml:space="preserve" font-family="Avenir-Book" font-size="33.1" fill="#000000" transform="matrix(1.00, 0.00, -0.00, -1.00, 468.5, 526.0)">t</text><text xml:space="preserve" font-family="Avenir-Book" font-size="33.1" fill="#000000" transform="matrix(1.00, 0.00, -0.00, -1.00, 479.5, 526.0)">o</text><text xml:space="preserve" font-family="Avenir-Book" font-size="33.1" fill="#000000" transform="matrix(1.00, 0.00, -0.00, -1.00, 499.1, 526.0)">r</text><text xml:space="preserve" font-family="Avenir-Book" font-size="33.1" fill="#000000" transform="matrix(1.00, 0.00, -0.00, -1.00, 509.5, 526.0)">e</text><text xml:space="preserve" font-family="Avenir-Book" font-size="33.1" fill="#000000" transform="matrix(1.00, 0.00, -0.00, -1.00, 527.9, 526.0)">s</text><text xml:space="preserve" font-family="Avenir-Book" font-size="33.1" fill="#000000" transform="matrix(1.00, 0.00, -0.00, -1.00, 542.0, 526.0)"> </text><text xml:space="preserve" font-family="Avenir-Book" font-size="33.1" fill="#000000" transform="matrix(1.00, 0.00, -0.00, -1.00, 551.3, 526.0)">l</text><text xml:space="preserve" font-family="Avenir-Book" font-size="33.1" fill="#000000" transform="matrix(1.00, 0.00, -0.00, -1.00, 559.2, 526.0)">i</text><text xml:space="preserve" font-family="Avenir-Book" font-size="33.1" fill="#000000" transform="matrix(1.00, 0.00, -0.00, -1.00, 567.2, 526.0)">k</text><text xml:space="preserve" font-family="Avenir-Book" font-size="33.1" fill="#000000" transform="matrix(1.00, 0.00, -0.00, -1.00, 583.1, 526.0)">e</text><text xml:space="preserve" font-family="Avenir-Book" font-size="33.1" fill="#000000" transform="matrix(1.00, 0.00, -0.00, -1.00, 601.5, 526.0)">:</text><text xml:space="preserve" font-family="Avenir-Book" font-size="33.1" fill="#000000" transform="matrix(1.00, 0.00, -0.00, -1.00, 610.7, 526.0)"> </text><text xml:space="preserve" font-family="Avenir-Light" font-size="33.1" fill="#000000" transform="matrix(1.00, 0.00, -0.00, -1.00, 619.9, 526.0)"> </text><text xml:space="preserve" font-family="Avenir-Book" font-size="33.1" fill="#000000" transform="matrix(1.00, 0.00, -0.00, -1.00, 196.0, 467.0)">D</text><text xml:space="preserve" font-family="Avenir-Book" font-size="33.1" fill="#000000" transform="matrix(1.00, 0.00, -0.00, -1.00, 220.5, 467.0)">r</text><text xml:space="preserve" font-family="Avenir-Book" font-size="33.1" fill="#000000" transform="matrix(1.00, 0.00, -0.00, -1.00, 230.9, 467.0)">o</text><text xml:space="preserve" font-family="Avenir-Book" font-size="33.1" fill="#000000" transform="matrix(1.00, 0.00, -0.00, -1.00, 250.6, 467.0)">p</text><text xml:space="preserve" font-family="Avenir-Book" font-size="33.1" fill="#000000" transform="matrix(1.00, 0.00, -0.00, -1.00, 270.8, 467.0)">b</text><text xml:space="preserve" font-family="Avenir-Book" font-size="33.1" fill="#000000" transform="matrix(1.00, 0.00, -0.00, -1.00, 291.1, 467.0)">o</text><text xml:space="preserve" font-family="Avenir-Book" font-size="33.1" fill="#000000" transform="matrix(1.00, 0.00, -0.00, -1.00, 310.7, 467.0)">x</text><text xml:space="preserve" font-family="Avenir-Book" font-size="33.1" fill="#000000" transform="matrix(1.00, 0.00, -0.00, -1.00, 326.7, 467.0)"> </text><text xml:space="preserve" font-family="Avenir-Book" font-size="33.1" fill="#000000" transform="matrix(1.00, 0.00, -0.00, -1.00, 196.0, 409.0)">G</text><text xml:space="preserve" font-family="Avenir-Book" font-size="33.1" fill="#000000" transform="matrix(1.00, 0.00, -0.00, -1.00, 221.8, 409.0)">o</text><text xml:space="preserve" font-family="Avenir-Book" font-size="33.1" fill="#000000" transform="matrix(1.00, 0.00, -0.00, -1.00, 241.4, 409.0)">o</text><text xml:space="preserve" font-family="Avenir-Book" font-size="33.1" fill="#000000" transform="matrix(1.00, 0.00, -0.00, -1.00, 261.0, 409.0)">g</text><text xml:space="preserve" font-family="Avenir-Book" font-size="33.1" fill="#000000" transform="matrix(1.00, 0.00, -0.00, -1.00, 281.3, 409.0)">l</text><text xml:space="preserve" font-family="Avenir-Book" font-size="33.1" fill="#000000" transform="matrix(1.00, 0.00, -0.00, -1.00, 289.2, 409.0)">e</text><text xml:space="preserve" font-family="Avenir-Book" font-size="33.1" fill="#000000" transform="matrix(1.00, 0.00, -0.00, -1.00, 307.6, 409.0)"> </text><text xml:space="preserve" font-family="Avenir-Book" font-size="33.1" fill="#000000" transform="matrix(1.00, 0.00, -0.00, -1.00, 316.9, 409.0)">D</text><text xml:space="preserve" font-family="Avenir-Book" font-size="33.1" fill="#000000" transform="matrix(1.00, 0.00, -0.00, -1.00, 341.4, 409.0)">r</text><text xml:space="preserve" font-family="Avenir-Book" font-size="33.1" fill="#000000" transform="matrix(1.00, 0.00, -0.00, -1.00, 352.4, 409.0)">i</text><text xml:space="preserve" font-family="Avenir-Book" font-size="33.1" fill="#000000" transform="matrix(1.00, 0.00, -0.00, -1.00, 360.3, 409.0)">v</text><text xml:space="preserve" font-family="Avenir-Book" font-size="33.1" fill="#000000" transform="matrix(1.00, 0.00, -0.00, -1.00, 376.3, 409.0)">e</text><text xml:space="preserve" font-family="Avenir-Book" font-size="33.1" fill="#000000" transform="matrix(1.00, 0.00, -0.00, -1.00, 394.7, 409.0)"> </text><text xml:space="preserve" font-family="Avenir-Book" font-size="33.1" fill="#000000" transform="matrix(1.00, 0.00, -0.00, -1.00, 196.0, 351.0)">i</text><text xml:space="preserve" font-family="Avenir-Book" font-size="33.1" fill="#000000" transform="matrix(1.00, 0.00, -0.00, -1.00, 203.9, 351.0)">C</text><text xml:space="preserve" font-family="Avenir-Book" font-size="33.1" fill="#000000" transform="matrix(1.00, 0.00, -0.00, -1.00, 227.3, 351.0)">l</text><text xml:space="preserve" font-family="Avenir-Book" font-size="33.1" fill="#000000" transform="matrix(1.00, 0.00, -0.00, -1.00, 235.2, 351.0)">o</text><text xml:space="preserve" font-family="Avenir-Book" font-size="33.1" fill="#000000" transform="matrix(1.00, 0.00, -0.00, -1.00, 254.9, 351.0)">u</text><text xml:space="preserve" font-family="Avenir-Book" font-size="33.1" fill="#000000" transform="matrix(1.00, 0.00, -0.00, -1.00, 273.3, 351.0)">d</text><text xml:space="preserve" font-family="Avenir-Book" font-size="33.1" fill="#000000" transform="matrix(1.00, 0.00, -0.00, -1.00, 293.5, 351.0)"> </text><text xml:space="preserve" font-family="Avenir-Book" font-size="33.1" fill="#000000" transform="matrix(1.00, 0.00, -0.00, -1.00, 302.7, 351.0)">D</text><text xml:space="preserve" font-family="Avenir-Book" font-size="33.1" fill="#000000" transform="matrix(1.00, 0.00, -0.00, -1.00, 327.3, 351.0)">r</text><text xml:space="preserve" font-family="Avenir-Book" font-size="33.1" fill="#000000" transform="matrix(1.00, 0.00, -0.00, -1.00, 338.3, 351.0)">i</text><text xml:space="preserve" font-family="Avenir-Book" font-size="33.1" fill="#000000" transform="matrix(1.00, 0.00, -0.00, -1.00, 346.2, 351.0)">v</text><text xml:space="preserve" font-family="Avenir-Book" font-size="33.1" fill="#000000" transform="matrix(1.00, 0.00, -0.00, -1.00, 362.2, 351.0)">e</text><text xml:space="preserve" font-family="Avenir-Book" font-size="33.1" fill="#000000" transform="matrix(1.00, 0.00, -0.00, -1.00, 380.6, 351.0)"> </text><text xml:space="preserve" font-family="Avenir-Book" font-size="33.1" fill="#000000" transform="matrix(1.00, 0.00, -0.00, -1.00, 196.0, 292.0)">M</text><text xml:space="preserve" font-family="Avenir-Book" font-size="33.1" fill="#000000" transform="matrix(1.00, 0.00, -0.00, -1.00, 225.5, 292.0)">i</text><text xml:space="preserve" font-family="Avenir-Book" font-size="33.1" fill="#000000" transform="matrix(1.00, 0.00, -0.00, -1.00, 233.4, 292.0)">c</text><text xml:space="preserve" font-family="Avenir-Book" font-size="33.1" fill="#000000" transform="matrix(1.00, 0.00, -0.00, -1.00, 249.4, 292.0)">r</text><text xml:space="preserve" font-family="Avenir-Book" font-size="33.1" fill="#000000" transform="matrix(1.00, 0.00, -0.00, -1.00, 259.8, 292.0)">o</text><text xml:space="preserve" font-family="Avenir-Book" font-size="33.1" fill="#000000" transform="matrix(1.00, 0.00, -0.00, -1.00, 279.4, 292.0)">s</text><text xml:space="preserve" font-family="Avenir-Book" font-size="33.1" fill="#000000" transform="matrix(1.00, 0.00, -0.00, -1.00, 293.5, 292.0)">o</text><text xml:space="preserve" font-family="Avenir-Book" font-size="33.1" fill="#000000" transform="matrix(1.00, 0.00, -0.00, -1.00, 313.2, 292.0)">f</text><text xml:space="preserve" font-family="Avenir-Book" font-size="33.1" fill="#000000" transform="matrix(1.00, 0.00, -0.00, -1.00, 323.0, 292.0)">t</text><text xml:space="preserve" font-family="Avenir-Book" font-size="33.1" fill="#000000" transform="matrix(1.00, 0.00, -0.00, -1.00, 334.0, 292.0)"> </text><text xml:space="preserve" font-family="Avenir-Book" font-size="33.1" fill="#000000" transform="matrix(1.00, 0.00, -0.00, -1.00, 343.2, 292.0)">O</text><text xml:space="preserve" font-family="Avenir-Book" font-size="33.1" fill="#000000" transform="matrix(1.00, 0.00, -0.00, -1.00, 370.8, 292.0)">n</text><text xml:space="preserve" font-family="Avenir-Book" font-size="33.1" fill="#000000" transform="matrix(1.00, 0.00, -0.00, -1.00, 389.2, 292.0)">e</text><text xml:space="preserve" font-family="Avenir-Book" font-size="33.1" fill="#000000" transform="matrix(1.00, 0.00, -0.00, -1.00, 407.6, 292.0)"> </text><text xml:space="preserve" font-family="Avenir-Book" font-size="33.1" fill="#000000" transform="matrix(1.00, 0.00, -0.00, -1.00, 416.8, 292.0)">D</text><text xml:space="preserve" font-family="Avenir-Book" font-size="33.1" fill="#000000" transform="matrix(1.00, 0.00, -0.00, -1.00, 441.4, 292.0)">r</text><text xml:space="preserve" font-family="Avenir-Book" font-size="33.1" fill="#000000" transform="matrix(1.00, 0.00, -0.00, -1.00, 452.4, 292.0)">i</text><text xml:space="preserve" font-family="Avenir-Book" font-size="33.1" fill="#000000" transform="matrix(1.00, 0.00, -0.00, -1.00, 460.3, 292.0)">v</text><text xml:space="preserve" font-family="Avenir-Book" font-size="33.1" fill="#000000" transform="matrix(1.00, 0.00, -0.00, -1.00, 476.3, 292.0)">e</text><text xml:space="preserve" font-family="Avenir-Book" font-size="33.1" fill="#000000" transform="matrix(1.00, 0.00, -0.00, -1.00, 494.7, 292.0)"> </text><text xml:space="preserve" font-family="Avenir-Book" font-size="33.1" fill="#000000" transform="matrix(1.00, 0.00, -0.00, -1.00, 196.0, 234.0)">A</text><text xml:space="preserve" font-family="Avenir-Book" font-size="33.1" fill="#000000" transform="matrix(1.00, 0.00, -0.00, -1.00, 218.7, 234.0)">W</text><text xml:space="preserve" font-family="Avenir-Book" font-size="33.1" fill="#000000" transform="matrix(1.00, 0.00, -0.00, -1.00, 250.0, 234.0)">S</text><text xml:space="preserve" font-family="Avenir-Book" font-size="33.1" fill="#000000" transform="matrix(1.00, 0.00, -0.00, -1.00, 268.4, 234.0)"> </text><text xml:space="preserve" font-family="Avenir-Book" font-size="33.1" fill="#000000" transform="matrix(1.00, 0.00, -0.00, -1.00, 79.0, 183.7)">2</text><text xml:space="preserve" font-family="Avenir-Book" font-size="33.1" fill="#000000" transform="matrix(1.00, 0.00, -0.00, -1.00, 97.4, 183.7)">.</text><text xml:space="preserve" font-family="Avenir-Heavy" font-weight="bold" font-size="33.1" fill="#000000" transform="matrix(1.00, 0.00, -0.00, -1.00, 125.0, 184.0)">C</text><text xml:space="preserve" font-family="Avenir-Heavy" font-weight="bold" font-size="33.1" fill="#000000" transform="matrix(1.00, 0.00, -0.00, -1.00, 147.7, 184.0)">h</text><text xml:space="preserve" font-family="Avenir-Heavy" font-weight="bold" font-size="33.1" fill="#000000" transform="matrix(1.00, 0.00, -0.00, -1.00, 166.7, 184.0)">a</text><text xml:space="preserve" font-family="Avenir-Heavy" font-weight="bold" font-size="33.1" fill="#000000" transform="matrix(1.00, 0.00, -0.00, -1.00, 184.5, 184.0)">s</text><text xml:space="preserve" font-family="Avenir-Heavy" font-weight="bold" font-size="33.1" fill="#000000" transform="matrix(1.00, 0.00, -0.00, -1.00, 199.2, 184.0)">m</text><text xml:space="preserve" font-family="Avenir-Book" font-size="33.1" fill="#000000" transform="matrix(1.00, 0.00, -0.00, -1.00, 228.0, 184.0)"> </text><text xml:space="preserve" font-family="Avenir-Book" font-size="33.1" fill="#000000" transform="matrix(1.00, 0.00, -0.00, -1.00, 237.2, 184.0)">c</text><text xml:space="preserve" font-family="Avenir-Book" font-size="33.1" fill="#000000" transform="matrix(1.00, 0.00, -0.00, -1.00, 253.2, 184.0)">r</text><text xml:space="preserve" font-family="Avenir-Book" font-size="33.1" fill="#000000" transform="matrix(1.00, 0.00, -0.00, -1.00, 263.6, 184.0)">e</text><text xml:space="preserve" font-family="Avenir-Book" font-size="33.1" fill="#000000" transform="matrix(1.00, 0.00, -0.00, -1.00, 282.0, 184.0)">a</text><text xml:space="preserve" font-family="Avenir-Book" font-size="33.1" fill="#000000" transform="matrix(1.00, 0.00, -0.00, -1.00, 299.2, 184.0)">t</text><text xml:space="preserve" font-family="Avenir-Book" font-size="33.1" fill="#000000" transform="matrix(1.00, 0.00, -0.00, -1.00, 310.2, 184.0)">e</text><text xml:space="preserve" font-family="Avenir-Book" font-size="33.1" fill="#000000" transform="matrix(1.00, 0.00, -0.00, -1.00, 328.6, 184.0)">s</text><text xml:space="preserve" font-family="Avenir-Book" font-size="33.1" fill="#000000" transform="matrix(1.00, 0.00, -0.00, -1.00, 342.7, 184.0)"> </text><text xml:space="preserve" font-family="Avenir-Book" font-size="33.1" fill="#000000" transform="matrix(1.00, 0.00, -0.00, -1.00, 351.9, 184.0)">a</text><text xml:space="preserve" font-family="Avenir-Book" font-size="33.1" fill="#000000" transform="matrix(1.00, 0.00, -0.00, -1.00, 369.1, 184.0)"> </text><text xml:space="preserve" font-family="Avenir-Book" font-size="33.1" fill="#000000" transform="matrix(1.00, 0.00, -0.00, -1.00, 378.3, 184.0)">“</text><text xml:space="preserve" font-family="Avenir-Book" font-size="33.1" fill="#000000" transform="matrix(1.00, 0.00, -0.00, -1.00, 395.5, 184.0)">s</text><text xml:space="preserve" font-family="Avenir-Book" font-size="33.1" fill="#000000" transform="matrix(1.00, 0.00, -0.00, -1.00, 409.6, 184.0)">e</text><text xml:space="preserve" font-family="Avenir-Book" font-size="33.1" fill="#000000" transform="matrix(1.00, 0.00, -0.00, -1.00, 428.0, 184.0)">c</text><text xml:space="preserve" font-family="Avenir-Book" font-size="33.1" fill="#000000" transform="matrix(1.00, 0.00, -0.00, -1.00, 444.0, 184.0)">u</text><text xml:space="preserve" font-family="Avenir-Book" font-size="33.1" fill="#000000" transform="matrix(1.00, 0.00, -0.00, -1.00, 462.4, 184.0)">r</text><text xml:space="preserve" font-family="Avenir-Book" font-size="33.1" fill="#000000" transform="matrix(1.00, 0.00, -0.00, -1.00, 472.8, 184.0)">e</text><text xml:space="preserve" font-family="Avenir-Book" font-size="33.1" fill="#000000" transform="matrix(1.00, 0.00, -0.00, -1.00, 491.2, 184.0)">”</text><text xml:space="preserve" font-family="Avenir-Book" font-size="33.1" fill="#000000" transform="matrix(1.00, 0.00, -0.00, -1.00, 508.4, 184.0)"> </text><text xml:space="preserve" font-family="Avenir-Heavy" font-weight="bold" font-size="33.1" fill="#000000" transform="matrix(1.00, 0.00, -0.00, -1.00, 517.6, 184.0)">c</text><text xml:space="preserve" font-family="Avenir-Heavy" font-weight="bold" font-size="33.1" fill="#000000" transform="matrix(1.00, 0.00, -0.00, -1.00, 533.6, 184.0)">h</text><text xml:space="preserve" font-family="Avenir-Heavy" font-weight="bold" font-size="33.1" fill="#000000" transform="matrix(1.00, 0.00, -0.00, -1.00, 552.6, 184.0)">a</text><text xml:space="preserve" font-family="Avenir-Heavy" font-weight="bold" font-size="33.1" fill="#000000" transform="matrix(1.00, 0.00, -0.00, -1.00, 570.4, 184.0)">s</text><text xml:space="preserve" font-family="Avenir-Heavy" font-weight="bold" font-size="33.1" fill="#000000" transform="matrix(1.00, 0.00, -0.00, -1.00, 585.1, 184.0)">m</text><text xml:space="preserve" font-family="Avenir-Heavy" font-weight="bold" font-size="33.1" fill="#000000" transform="matrix(1.00, 0.00, -0.00, -1.00, 613.9, 184.0)"> </text><text xml:space="preserve" font-family="Avenir-Heavy" font-weight="bold" font-size="33.1" fill="#000000" transform="matrix(1.00, 0.00, -0.00, -1.00, 623.7, 184.0)">f</text><text xml:space="preserve" font-family="Avenir-Heavy" font-weight="bold" font-size="33.1" fill="#000000" transform="matrix(1.00, 0.00, -0.00, -1.00, 635.3, 184.0)">o</text><text xml:space="preserve" font-family="Avenir-Heavy" font-weight="bold" font-size="33.1" fill="#000000" transform="matrix(1.00, 0.00, -0.00, -1.00, 655.5, 184.0)">l</text><text xml:space="preserve" font-family="Avenir-Heavy" font-weight="bold" font-size="33.1" fill="#000000" transform="matrix(1.00, 0.00, -0.00, -1.00, 664.2, 184.0)">d</text><text xml:space="preserve" font-family="Avenir-Heavy" font-weight="bold" font-size="33.1" fill="#000000" transform="matrix(1.00, 0.00, -0.00, -1.00, 685.0, 184.0)">e</text><text xml:space="preserve" font-family="Avenir-Heavy" font-weight="bold" font-size="33.1" fill="#000000" transform="matrix(1.00, 0.00, -0.00, -1.00, 704.0, 184.0)">r</text><text xml:space="preserve" font-family="Avenir-Book" font-size="33.1" fill="#000000" transform="matrix(1.00, 0.00, -0.00, -1.00, 716.9, 184.0)"> </text><text xml:space="preserve" font-family="Avenir-Book" font-size="33.1" fill="#000000" transform="matrix(1.00, 0.00, -0.00, -1.00, 726.1, 184.0)">i</text><text xml:space="preserve" font-family="Avenir-Book" font-size="33.1" fill="#000000" transform="matrix(1.00, 0.00, -0.00, -1.00, 734.1, 184.0)">n</text><text xml:space="preserve" font-family="Avenir-Book" font-size="33.1" fill="#000000" transform="matrix(1.00, 0.00, -0.00, -1.00, 752.5, 184.0)"> </text><text xml:space="preserve" font-family="Avenir-Book" font-size="33.1" fill="#000000" transform="matrix(1.00, 0.00, -0.00, -1.00, 761.7, 184.0)">y</text><text xml:space="preserve" font-family="Avenir-Book" font-size="33.1" fill="#000000" transform="matrix(1.00, 0.00, -0.00, -1.00, 777.7, 184.0)">o</text><text xml:space="preserve" font-family="Avenir-Book" font-size="33.1" fill="#000000" transform="matrix(1.00, 0.00, -0.00, -1.00, 797.3, 184.0)">u</text><text xml:space="preserve" font-family="Avenir-Book" font-size="33.1" fill="#000000" transform="matrix(1.00, 0.00, -0.00, -1.00, 815.7, 184.0)">r</text><text xml:space="preserve" font-family="Avenir-Book" font-size="33.1" fill="#000000" transform="matrix(1.00, 0.00, -0.00, -1.00, 826.7, 184.0)"> </text><text xml:space="preserve" font-family="Avenir-Book" font-size="33.1" fill="#000000" transform="matrix(1.00, 0.00, -0.00, -1.00, 835.9, 184.0)">h</text><text xml:space="preserve" font-family="Avenir-Book" font-size="33.1" fill="#000000" transform="matrix(1.00, 0.00, -0.00, -1.00, 854.3, 184.0)">o</text><text xml:space="preserve" font-family="Avenir-Book" font-size="33.1" fill="#000000" transform="matrix(1.00, 0.00, -0.00, -1.00, 874.0, 184.0)">m</text><text xml:space="preserve" font-family="Avenir-Book" font-size="33.1" fill="#000000" transform="matrix(1.00, 0.00, -0.00, -1.00, 902.2, 184.0)">e</text><text xml:space="preserve" font-family="Avenir-Book" font-size="33.1" fill="#000000" transform="matrix(1.00, 0.00, -0.00, -1.00, 920.6, 184.0)"> </text><text xml:space="preserve" font-family="Avenir-Book" font-size="33.1" fill="#000000" transform="matrix(1.00, 0.00, -0.00, -1.00, 125.0, 139.0)">d</text><text xml:space="preserve" font-family="Avenir-Book" font-size="33.1" fill="#000000" transform="matrix(1.00, 0.00, -0.00, -1.00, 145.2, 139.0)">i</text><text xml:space="preserve" font-family="Avenir-Book" font-size="33.1" fill="#000000" transform="matrix(1.00, 0.00, -0.00, -1.00, 153.2, 139.0)">r</text><text xml:space="preserve" font-family="Avenir-Book" font-size="33.1" fill="#000000" transform="matrix(1.00, 0.00, -0.00, -1.00, 163.6, 139.0)">e</text><text xml:space="preserve" font-family="Avenir-Book" font-size="33.1" fill="#000000" transform="matrix(1.00, 0.00, -0.00, -1.00, 182.0, 139.0)">c</text><text xml:space="preserve" font-family="Avenir-Book" font-size="33.1" fill="#000000" transform="matrix(1.00, 0.00, -0.00, -1.00, 198.0, 139.0)">t</text><text xml:space="preserve" font-family="Avenir-Book" font-size="33.1" fill="#000000" transform="matrix(1.00, 0.00, -0.00, -1.00, 209.0, 139.0)">o</text><text xml:space="preserve" font-family="Avenir-Book" font-size="33.1" fill="#000000" transform="matrix(1.00, 0.00, -0.00, -1.00, 228.6, 139.0)">r</text><text xml:space="preserve" font-family="Avenir-Book" font-size="33.1" fill="#000000" transform="matrix(1.00, 0.00, -0.00, -1.00, 239.6, 139.0)">y</text><text xml:space="preserve" font-family="Avenir-Book" font-size="33.1" fill="#000000" transform="matrix(1.00, 0.00, -0.00, -1.00, 255.6, 139.0)"> </text><text xml:space="preserve" font-family="Avenir-Book" font-size="33.1" fill="#000000" transform="matrix(1.00, 0.00, -0.00, -1.00, 79.0, 84.5)">3</text><text xml:space="preserve" font-family="Avenir-Book" font-size="33.1" fill="#000000" transform="matrix(1.00, 0.00, -0.00, -1.00, 97.4, 84.5)">.</text><text xml:space="preserve" font-family="Avenir-Heavy" font-weight="bold" font-size="33.1" fill="#000000" transform="matrix(1.00, 0.00, -0.00, -1.00, 125.0, 85.0)">Y</text><text xml:space="preserve" font-family="Avenir-Heavy" font-weight="bold" font-size="33.1" fill="#000000" transform="matrix(1.00, 0.00, -0.00, -1.00, 142.8, 85.0)">o</text><text xml:space="preserve" font-family="Avenir-Heavy" font-weight="bold" font-size="33.1" fill="#000000" transform="matrix(1.00, 0.00, -0.00, -1.00, 163.0, 85.0)">u</text><text xml:space="preserve" font-family="Avenir-Book" font-size="33.1" fill="#000000" transform="matrix(1.00, 0.00, -0.00, -1.00, 182.0, 85.0)"> </text><text xml:space="preserve" font-family="Avenir-Book" font-size="33.1" fill="#000000" transform="matrix(1.00, 0.00, -0.00, -1.00, 191.2, 85.0)">c</text><text xml:space="preserve" font-family="Avenir-Book" font-size="33.1" fill="#000000" transform="matrix(1.00, 0.00, -0.00, -1.00, 207.2, 85.0)">a</text><text xml:space="preserve" font-family="Avenir-Book" font-size="33.1" fill="#000000" transform="matrix(1.00, 0.00, -0.00, -1.00, 224.4, 85.0)">n</text><text xml:space="preserve" font-family="Avenir-Book" font-size="33.1" fill="#000000" transform="matrix(1.00, 0.00, -0.00, -1.00, 242.8, 85.0)"> </text><text xml:space="preserve" font-family="Avenir-Book" font-size="33.1" fill="#000000" transform="matrix(1.00, 0.00, -0.00, -1.00, 252.0, 85.0)">n</text><text xml:space="preserve" font-family="Avenir-Book" font-size="33.1" fill="#000000" transform="matrix(1.00, 0.00, -0.00, -1.00, 270.4, 85.0)">o</text><text xml:space="preserve" font-family="Avenir-Book" font-size="33.1" fill="#000000" transform="matrix(1.00, 0.00, -0.00, -1.00, 290.1, 85.0)">w</text><text xml:space="preserve" font-family="Avenir-Book" font-size="33.1" fill="#000000" transform="matrix(1.00, 0.00, -0.00, -1.00, 314.0, 85.0)"> </text><text xml:space="preserve" font-family="Avenir-Book" font-size="33.1" fill="#000000" transform="matrix(1.00, 0.00, -0.00, -1.00, 323.2, 85.0)">s</text><text xml:space="preserve" font-family="Avenir-Book" font-size="33.1" fill="#000000" transform="matrix(1.00, 0.00, -0.00, -1.00, 337.3, 85.0)">i</text><text xml:space="preserve" font-family="Avenir-Book" font-size="33.1" fill="#000000" transform="matrix(1.00, 0.00, -0.00, -1.00, 345.2, 85.0)">m</text><text xml:space="preserve" font-family="Avenir-Book" font-size="33.1" fill="#000000" transform="matrix(1.00, 0.00, -0.00, -1.00, 373.5, 85.0)">p</text><text xml:space="preserve" font-family="Avenir-Book" font-size="33.1" fill="#000000" transform="matrix(1.00, 0.00, -0.00, -1.00, 393.7, 85.0)">l</text><text xml:space="preserve" font-family="Avenir-Book" font-size="33.1" fill="#000000" transform="matrix(1.00, 0.00, -0.00, -1.00, 401.7, 85.0)">y</text><text xml:space="preserve" font-family="Avenir-Book" font-size="33.1" fill="#000000" transform="matrix(1.00, 0.00, -0.00, -1.00, 417.6, 85.0)"> </text><text xml:space="preserve" font-family="Avenir-Book" font-size="33.1" fill="#000000" transform="matrix(1.00, 0.00, -0.00, -1.00, 426.8, 85.0)">d</text><text xml:space="preserve" font-family="Avenir-Book" font-size="33.1" fill="#000000" transform="matrix(1.00, 0.00, -0.00, -1.00, 447.1, 85.0)">r</text><text xml:space="preserve" font-family="Avenir-Book" font-size="33.1" fill="#000000" transform="matrix(1.00, 0.00, -0.00, -1.00, 458.1, 85.0)">a</text><text xml:space="preserve" font-family="Avenir-Book" font-size="33.1" fill="#000000" transform="matrix(1.00, 0.00, -0.00, -1.00, 475.2, 85.0)">g</text><text xml:space="preserve" font-family="Avenir-Book" font-size="33.1" fill="#000000" transform="matrix(1.00, 0.00, -0.00, -1.00, 495.5, 85.0)"> </text><text xml:space="preserve" font-family="Avenir-Book" font-size="33.1" fill="#000000" transform="matrix(1.00, 0.00, -0.00, -1.00, 504.7, 85.0)">&amp;</text><text xml:space="preserve" font-family="Avenir-Book" font-size="33.1" fill="#000000" transform="matrix(1.00, 0.00, -0.00, -1.00, 528.0, 85.0)"> </text><text xml:space="preserve" font-family="Avenir-Book" font-size="33.1" fill="#000000" transform="matrix(1.00, 0.00, -0.00, -1.00, 537.2, 85.0)">d</text><text xml:space="preserve" font-family="Avenir-Book" font-size="33.1" fill="#000000" transform="matrix(1.00, 0.00, -0.00, -1.00, 557.4, 85.0)">r</text><text xml:space="preserve" font-family="Avenir-Book" font-size="33.1" fill="#000000" transform="matrix(1.00, 0.00, -0.00, -1.00, 567.8, 85.0)">o</text><text xml:space="preserve" font-family="Avenir-Book" font-size="33.1" fill="#000000" transform="matrix(1.00, 0.00, -0.00, -1.00, 587.5, 85.0)">p</text><text xml:space="preserve" font-family="Avenir-Book" font-size="33.1" fill="#000000" transform="matrix(1.00, 0.00, -0.00, -1.00, 607.7, 85.0)"> </text><text xml:space="preserve" font-family="Avenir-Book" font-size="33.1" fill="#000000" transform="matrix(1.00, 0.00, -0.00, -1.00, 616.9, 85.0)">f</text><text xml:space="preserve" font-family="Avenir-Book" font-size="33.1" fill="#000000" transform="matrix(1.00, 0.00, -0.00, -1.00, 626.7, 85.0)">i</text><text xml:space="preserve" font-family="Avenir-Book" font-size="33.1" fill="#000000" transform="matrix(1.00, 0.00, -0.00, -1.00, 634.7, 85.0)">l</text><text xml:space="preserve" font-family="Avenir-Book" font-size="33.1" fill="#000000" transform="matrix(1.00, 0.00, -0.00, -1.00, 642.6, 85.0)">e</text><text xml:space="preserve" font-family="Avenir-Book" font-size="33.1" fill="#000000" transform="matrix(1.00, 0.00, -0.00, -1.00, 661.0, 85.0)">s</text><text xml:space="preserve" font-family="Avenir-Book" font-size="33.1" fill="#000000" transform="matrix(1.00, 0.00, -0.00, -1.00, 675.2, 85.0)"> </text><text xml:space="preserve" font-family="Avenir-Book" font-size="33.1" fill="#000000" transform="matrix(1.00, 0.00, -0.00, -1.00, 684.4, 85.0)">i</text><text xml:space="preserve" font-family="Avenir-Book" font-size="33.1" fill="#000000" transform="matrix(1.00, 0.00, -0.00, -1.00, 692.3, 85.0)">n</text><text xml:space="preserve" font-family="Avenir-Book" font-size="33.1" fill="#000000" transform="matrix(1.00, 0.00, -0.00, -1.00, 710.7, 85.0)">t</text><text xml:space="preserve" font-family="Avenir-Book" font-size="33.1" fill="#000000" transform="matrix(1.00, 0.00, -0.00, -1.00, 721.7, 85.0)">o</text><text xml:space="preserve" font-family="Avenir-Book" font-size="33.1" fill="#000000" transform="matrix(1.00, 0.00, -0.00, -1.00, 741.4, 85.0)"> </text><text xml:space="preserve" font-family="Avenir-Book" font-size="33.1" fill="#000000" transform="matrix(1.00, 0.00, -0.00, -1.00, 750.6, 85.0)">t</text><text xml:space="preserve" font-family="Avenir-Book" font-size="33.1" fill="#000000" transform="matrix(1.00, 0.00, -0.00, -1.00, 761.6, 85.0)">h</text><text xml:space="preserve" font-family="Avenir-Book" font-size="33.1" fill="#000000" transform="matrix(1.00, 0.00, -0.00, -1.00, 780.0, 85.0)">e</text><text xml:space="preserve" font-family="Avenir-Book" font-size="33.1" fill="#000000" transform="matrix(1.00, 0.00, -0.00, -1.00, 798.4, 85.0)"> </text><text xml:space="preserve" font-family="Avenir-Book" font-size="33.1" fill="#000000" transform="matrix(1.00, 0.00, -0.00, -1.00, 807.6, 85.0)">f</text><text xml:space="preserve" font-family="Avenir-Book" font-size="33.1" fill="#000000" transform="matrix(1.00, 0.00, -0.00, -1.00, 817.4, 85.0)">o</text><text xml:space="preserve" font-family="Avenir-Book" font-size="33.1" fill="#000000" transform="matrix(1.00, 0.00, -0.00, -1.00, 837.0, 85.0)">l</text><text xml:space="preserve" font-family="Avenir-Book" font-size="33.1" fill="#000000" transform="matrix(1.00, 0.00, -0.00, -1.00, 845.0, 85.0)">d</text><text xml:space="preserve" font-family="Avenir-Book" font-size="33.1" fill="#000000" transform="matrix(1.00, 0.00, -0.00, -1.00, 865.2, 85.0)">e</text><text xml:space="preserve" font-family="Avenir-Book" font-size="33.1" fill="#000000" transform="matrix(1.00, 0.00, -0.00, -1.00, 883.6, 85.0)">r</text><image xlink:href="../../1D03AA8D-E690-491A-99A8-56B783FE2053/assets/F9FC790C3CEF5FCE84785368CC5462D9.png" width="29.00" height="27.00" transform="matrix(1.00, 0.00, -0.00, -1.00, 153.0, 493.0)"></image><image xlink:href="../../1D03AA8D-E690-491A-99A8-56B783FE2053/assets/AFA6E6F3E71FC271E38899FFA9AD3803.png" width="29.00" height="29.00" transform="matrix(1.00, 0.00, -0.00, -1.00, 153.0, 438.0)"></image><image xlink:href="../../1D03AA8D-E690-491A-99A8-56B783FE2053/assets/DABB7DAD19D71B64F9797588924D1DE0.png" width="29.00" height="29.00" transform="matrix(1.00, 0.00, -0.00, -1.00, 153.0, 379.0)"></image><image xlink:href="../../1D03AA8D-E690-491A-99A8-56B783FE2053/assets/2F5777B41176DDCD6AA62661CA6140E4.png" width="37.00" height="37.00" transform="matrix(1.00, 0.00, -0.00, -1.00, 149.0, 326.0)"></image><image xlink:href="../../1D03AA8D-E690-491A-99A8-56B783FE2053/assets/A26DD8808AAFB178C8D1057F9D0D5E7B.png" width="29.00" height="29.00" transform="matrix(1.00, 0.00, -0.00, -1.00, 153.0, 259.0)"></image></g></svg>