<?xml version="1.0" encoding="UTF-8" standalone="no"?><svg xmlns="http://www.w3.org/2000/svg" xmlns:xlink="http://www.w3.org/1999/xlink" clip-rule="evenodd" stroke-miterlimit="4.00" viewBox="0 0 1024 768"><desc>SVG generated by Keynote</desc><defs></defs><g transform="matrix(1.00, 0.00, -0.00, -1.00, 0.0, 768.0)"><path d="M 0.0 768.0 L 1024.0 768.0 L 1024.0 0.0 L 0.0 0.0 Z M 0.0 768.0 " fill="#FEFFFF"></path><text xml:space="preserve" font-family="Avenir-Book" font-size="59.2" fill="#000000" transform="matrix(1.00, 0.00, -0.00, -1.00, 79.0, 670.0)">V</text><text xml:space="preserve" font-family="Avenir-Book" font-size="59.2" fill="#000000" transform="matrix(1.00, 0.00, -0.00, -1.00, 113.0, 670.0)">u</text><text xml:space="preserve" font-family="Avenir-Book" font-size="59.2" fill="#000000" transform="matrix(1.00, 0.00, -0.00, -1.00, 145.9, 670.0)">l</text><text xml:space="preserve" font-family="Avenir-Book" font-size="59.2" fill="#000000" transform="matrix(1.00, 0.00, -0.00, -1.00, 160.1, 670.0)">n</text><text xml:space="preserve" font-family="Avenir-Book" font-size="59.2" fill="#000000" transform="matrix(1.00, 0.00, -0.00, -1.00, 193.0, 670.0)">e</text><text xml:space="preserve" font-family="Avenir-Book" font-size="59.2" fill="#000000" transform="matrix(1.00, 0.00, -0.00, -1.00, 225.9, 670.0)">r</text><text xml:space="preserve" font-family="Avenir-Book" font-size="59.2" fill="#000000" transform="matrix(1.00, 0.00, -0.00, -1.00, 245.6, 670.0)">a</text><text xml:space="preserve" font-family="Avenir-Book" font-size="59.2" fill="#000000" transform="matrix(1.00, 0.00, -0.00, -1.00, 276.3, 670.0)">b</text><text xml:space="preserve" font-family="Avenir-Book" font-size="59.2" fill="#000000" transform="matrix(1.00, 0.00, -0.00, -1.00, 312.5, 670.0)">i</text><text xml:space="preserve" font-family="Avenir-Book" font-size="59.2" fill="#000000" transform="matrix(1.00, 0.00, -0.00, -1.00, 326.7, 670.0)">l</text><text xml:space="preserve" font-family="Avenir-Book" font-size="59.2" fill="#000000" transform="matrix(1.00, 0.00, -0.00, -1.00, 340.9, 670.0)">i</text><text xml:space="preserve" font-family="Avenir-Book" font-size="59.2" fill="#000000" transform="matrix(1.00, 0.00, -0.00, -1.00, 355.1, 670.0)">t</text><text xml:space="preserve" font-family="Avenir-Book" font-size="59.2" fill="#000000" transform="matrix(1.00, 0.00, -0.00, -1.00, 374.8, 670.0)">i</text><text xml:space="preserve" font-family="Avenir-Book" font-size="59.2" fill="#000000" transform="matrix(1.00, 0.00, -0.00, -1.00, 389.0, 670.0)">e</text><text xml:space="preserve" font-family="Avenir-Book" font-size="59.2" fill="#000000" transform="matrix(1.00, 0.00, -0.00, -1.00, 421.9, 670.0)">s</text><text xml:space="preserve" font-family="Avenir-Book" font-size="59.2" fill="#000000" transform="matrix(1.00, 0.00, -0.00, -1.00, 447.1, 670.0)"> </text><text xml:space="preserve" font-family="Avenir-Book" font-size="59.2" fill="#000000" transform="matrix(1.00, 0.00, -0.00, -1.00, 79.0, 589.0)">(</text><text xml:space="preserve" font-family="Avenir-Book" font-size="59.2" fill="#000000" transform="matrix(1.00, 0.00, -0.00, -1.00, 94.4, 589.0)">&amp;</text><text xml:space="preserve" font-family="Avenir-Book" font-size="59.2" fill="#000000" transform="matrix(1.00, 0.00, -0.00, -1.00, 136.1, 589.0)"> </text><text xml:space="preserve" font-family="Avenir-Book" font-size="59.2" fill="#000000" transform="matrix(1.00, 0.00, -0.00, -1.00, 152.5, 589.0)">h</text><text xml:space="preserve" font-family="Avenir-Book" font-size="59.2" fill="#000000" transform="matrix(1.00, 0.00, -0.00, -1.00, 185.4, 589.0)">o</text><text xml:space="preserve" font-family="Avenir-Book" font-size="59.2" fill="#000000" transform="matrix(1.00, 0.00, -0.00, -1.00, 220.5, 589.0)">w</text><text xml:space="preserve" font-family="Avenir-Book" font-size="59.2" fill="#000000" transform="matrix(1.00, 0.00, -0.00, -1.00, 263.3, 589.0)"> </text><text xml:space="preserve" font-family="Avenir-Book" font-size="59.2" fill="#000000" transform="matrix(1.00, 0.00, -0.00, -1.00, 279.7, 589.0)">w</text><text xml:space="preserve" font-family="Avenir-Book" font-size="59.2" fill="#000000" transform="matrix(1.00, 0.00, -0.00, -1.00, 322.5, 589.0)">e</text><text xml:space="preserve" font-family="Avenir-Book" font-size="59.2" fill="#000000" transform="matrix(1.00, 0.00, -0.00, -1.00, 355.4, 589.0)"> </text><text xml:space="preserve" font-family="Avenir-Book" font-size="59.2" fill="#000000" transform="matrix(1.00, 0.00, -0.00, -1.00, 371.9, 589.0)">c</text><text xml:space="preserve" font-family="Avenir-Book" font-size="59.2" fill="#000000" transform="matrix(1.00, 0.00, -0.00, -1.00, 400.4, 589.0)">a</text><text xml:space="preserve" font-family="Avenir-Book" font-size="59.2" fill="#000000" transform="matrix(1.00, 0.00, -0.00, -1.00, 431.1, 589.0)">n</text><text xml:space="preserve" font-family="Avenir-Book" font-size="59.2" fill="#000000" transform="matrix(1.00, 0.00, -0.00, -1.00, 464.0, 589.0)"> </text><text xml:space="preserve" font-family="Avenir-Book" font-size="59.2" fill="#000000" transform="matrix(1.00, 0.00, -0.00, -1.00, 480.5, 589.0)">f</text><text xml:space="preserve" font-family="Avenir-Book" font-size="59.2" fill="#000000" transform="matrix(1.00, 0.00, -0.00, -1.00, 498.0, 589.0)">i</text><text xml:space="preserve" font-family="Avenir-Book" font-size="59.2" fill="#000000" transform="matrix(1.00, 0.00, -0.00, -1.00, 512.2, 589.0)">x</text><text xml:space="preserve" font-family="Avenir-Book" font-size="59.2" fill="#000000" transform="matrix(1.00, 0.00, -0.00, -1.00, 540.8, 589.0)"> </text><text xml:space="preserve" font-family="Avenir-Book" font-size="59.2" fill="#000000" transform="matrix(1.00, 0.00, -0.00, -1.00, 557.2, 589.0)">s</text><text xml:space="preserve" font-family="Avenir-Book" font-size="59.2" fill="#000000" transform="matrix(1.00, 0.00, -0.00, -1.00, 582.4, 589.0)">o</text><text xml:space="preserve" font-family="Avenir-Book" font-size="59.2" fill="#000000" transform="matrix(1.00, 0.00, -0.00, -1.00, 617.5, 589.0)">m</text><text xml:space="preserve" font-family="Avenir-Book" font-size="59.2" fill="#000000" transform="matrix(1.00, 0.00, -0.00, -1.00, 668.0, 589.0)">e</text><text xml:space="preserve" font-family="Avenir-Book" font-size="59.2" fill="#000000" transform="matrix(1.00, 0.00, -0.00, -1.00, 700.9, 589.0)"> </text><text xml:space="preserve" font-family="Avenir-Book" font-size="59.2" fill="#000000" transform="matrix(1.00, 0.00, -0.00, -1.00, 717.4, 589.0)">o</text><text xml:space="preserve" font-family="Avenir-Book" font-size="59.2" fill="#000000" transform="matrix(1.00, 0.00, -0.00, -1.00, 752.5, 589.0)">f</text><text xml:space="preserve" font-family="Avenir-Book" font-size="59.2" fill="#000000" transform="matrix(1.00, 0.00, -0.00, -1.00, 770.0, 589.0)"> </text><text xml:space="preserve" font-family="Avenir-Book" font-size="59.2" fill="#000000" transform="matrix(1.00, 0.00, -0.00, -1.00, 786.4, 589.0)">t</text><text xml:space="preserve" font-family="Avenir-Book" font-size="59.2" fill="#000000" transform="matrix(1.00, 0.00, -0.00, -1.00, 806.1, 589.0)">h</text><text xml:space="preserve" font-family="Avenir-Book" font-size="59.2" fill="#000000" transform="matrix(1.00, 0.00, -0.00, -1.00, 839.0, 589.0)">e</text><text xml:space="preserve" font-family="Avenir-Book" font-size="59.2" fill="#000000" transform="matrix(1.00, 0.00, -0.00, -1.00, 871.9, 589.0)">m</text><text xml:space="preserve" font-family="Avenir-Book" font-size="59.2" fill="#000000" transform="matrix(1.00, 0.00, -0.00, -1.00, 922.4, 589.0)">)</text><text xml:space="preserve" font-family="Avenir-Book" font-size="27.0" fill="#000000" transform="matrix(1.00, 0.00, -0.00, -1.00, 79.0, 473.9)">•</text><text xml:space="preserve" font-family="Avenir-Book" font-size="36.0" fill="#000000" transform="matrix(1.00, 0.00, -0.00, -1.00, 114.0, 471.0)">C</text><text xml:space="preserve" font-family="Avenir-Book" font-size="36.0" fill="#000000" transform="matrix(1.00, 0.00, -0.00, -1.00, 139.3, 471.0)">l</text><text xml:space="preserve" font-family="Avenir-Book" font-size="36.0" fill="#000000" transform="matrix(1.00, 0.00, -0.00, -1.00, 148.0, 471.0)">o</text><text xml:space="preserve" font-family="Avenir-Book" font-size="36.0" fill="#000000" transform="matrix(1.00, 0.00, -0.00, -1.00, 169.3, 471.0)">u</text><text xml:space="preserve" font-family="Avenir-Book" font-size="36.0" fill="#000000" transform="matrix(1.00, 0.00, -0.00, -1.00, 189.3, 471.0)">d</text><text xml:space="preserve" font-family="Avenir-Book" font-size="36.0" fill="#000000" transform="matrix(1.00, 0.00, -0.00, -1.00, 211.3, 471.0)"> </text><text xml:space="preserve" font-family="Avenir-Book" font-size="36.0" fill="#000000" transform="matrix(1.00, 0.00, -0.00, -1.00, 221.4, 471.0)">s</text><text xml:space="preserve" font-family="Avenir-Book" font-size="36.0" fill="#000000" transform="matrix(1.00, 0.00, -0.00, -1.00, 236.7, 471.0)">t</text><text xml:space="preserve" font-family="Avenir-Book" font-size="36.0" fill="#000000" transform="matrix(1.00, 0.00, -0.00, -1.00, 248.6, 471.0)">o</text><text xml:space="preserve" font-family="Avenir-Book" font-size="36.0" fill="#000000" transform="matrix(1.00, 0.00, -0.00, -1.00, 270.0, 471.0)">r</text><text xml:space="preserve" font-family="Avenir-Book" font-size="36.0" fill="#000000" transform="matrix(1.00, 0.00, -0.00, -1.00, 281.3, 471.0)">e</text><text xml:space="preserve" font-family="Avenir-Book" font-size="36.0" fill="#000000" transform="matrix(1.00, 0.00, -0.00, -1.00, 301.3, 471.0)">s</text><text xml:space="preserve" font-family="Avenir-Book" font-size="36.0" fill="#000000" transform="matrix(1.00, 0.00, -0.00, -1.00, 316.6, 471.0)"> </text><text xml:space="preserve" font-family="Avenir-Book" font-size="36.0" fill="#000000" transform="matrix(1.00, 0.00, -0.00, -1.00, 326.7, 471.0)">c</text><text xml:space="preserve" font-family="Avenir-Book" font-size="36.0" fill="#000000" transform="matrix(1.00, 0.00, -0.00, -1.00, 344.0, 471.0)">a</text><text xml:space="preserve" font-family="Avenir-Book" font-size="36.0" fill="#000000" transform="matrix(1.00, 0.00, -0.00, -1.00, 362.7, 471.0)">n</text><text xml:space="preserve" font-family="Avenir-Book" font-size="36.0" fill="#000000" transform="matrix(1.00, 0.00, -0.00, -1.00, 382.7, 471.0)"> </text><text xml:space="preserve" font-family="Avenir-Book" font-size="36.0" fill="#000000" transform="matrix(1.00, 0.00, -0.00, -1.00, 392.7, 471.0)">d</text><text xml:space="preserve" font-family="Avenir-Book" font-size="36.0" fill="#000000" transform="matrix(1.00, 0.00, -0.00, -1.00, 414.7, 471.0)">e</text><text xml:space="preserve" font-family="Avenir-Book" font-size="36.0" fill="#000000" transform="matrix(1.00, 0.00, -0.00, -1.00, 434.7, 471.0)">t</text><text xml:space="preserve" font-family="Avenir-Book" font-size="36.0" fill="#000000" transform="matrix(1.00, 0.00, -0.00, -1.00, 446.7, 471.0)">e</text><text xml:space="preserve" font-family="Avenir-Book" font-size="36.0" fill="#000000" transform="matrix(1.00, 0.00, -0.00, -1.00, 466.7, 471.0)">r</text><text xml:space="preserve" font-family="Avenir-Book" font-size="36.0" fill="#000000" transform="matrix(1.00, 0.00, -0.00, -1.00, 479.3, 471.0)">m</text><text xml:space="preserve" font-family="Avenir-Book" font-size="36.0" fill="#000000" transform="matrix(1.00, 0.00, -0.00, -1.00, 510.0, 471.0)">i</text><text xml:space="preserve" font-family="Avenir-Book" font-size="36.0" fill="#000000" transform="matrix(1.00, 0.00, -0.00, -1.00, 518.6, 471.0)">n</text><text xml:space="preserve" font-family="Avenir-Book" font-size="36.0" fill="#000000" transform="matrix(1.00, 0.00, -0.00, -1.00, 538.6, 471.0)">e</text><text xml:space="preserve" font-family="Avenir-Book" font-size="36.0" fill="#000000" transform="matrix(1.00, 0.00, -0.00, -1.00, 558.6, 471.0)"> </text><text xml:space="preserve" font-family="Avenir-Book" font-size="36.0" fill="#000000" transform="matrix(1.00, 0.00, -0.00, -1.00, 568.6, 471.0)">t</text><text xml:space="preserve" font-family="Avenir-Book" font-size="36.0" fill="#000000" transform="matrix(1.00, 0.00, -0.00, -1.00, 580.6, 471.0)">h</text><text xml:space="preserve" font-family="Avenir-Book" font-size="36.0" fill="#000000" transform="matrix(1.00, 0.00, -0.00, -1.00, 600.6, 471.0)">e</text><text xml:space="preserve" font-family="Avenir-Book" font-size="36.0" fill="#000000" transform="matrix(1.00, 0.00, -0.00, -1.00, 620.6, 471.0)"> </text><text xml:space="preserve" font-family="Avenir-Book" font-size="36.0" fill="#000000" transform="matrix(1.00, 0.00, -0.00, -1.00, 630.6, 471.0)">n</text><text xml:space="preserve" font-family="Avenir-Book" font-size="36.0" fill="#000000" transform="matrix(1.00, 0.00, -0.00, -1.00, 650.7, 471.0)">u</text><text xml:space="preserve" font-family="Avenir-Book" font-size="36.0" fill="#000000" transform="matrix(1.00, 0.00, -0.00, -1.00, 670.7, 471.0)">m</text><text xml:space="preserve" font-family="Avenir-Book" font-size="36.0" fill="#000000" transform="matrix(1.00, 0.00, -0.00, -1.00, 701.3, 471.0)">b</text><text xml:space="preserve" font-family="Avenir-Book" font-size="36.0" fill="#000000" transform="matrix(1.00, 0.00, -0.00, -1.00, 723.3, 471.0)">e</text><text xml:space="preserve" font-family="Avenir-Book" font-size="36.0" fill="#000000" transform="matrix(1.00, 0.00, -0.00, -1.00, 743.4, 471.0)">r</text><text xml:space="preserve" font-family="Avenir-Book" font-size="36.0" fill="#000000" transform="matrix(1.00, 0.00, -0.00, -1.00, 755.3, 471.0)"> </text><text xml:space="preserve" font-family="Avenir-Book" font-size="36.0" fill="#000000" transform="matrix(1.00, 0.00, -0.00, -1.00, 765.3, 471.0)">o</text><text xml:space="preserve" font-family="Avenir-Book" font-size="36.0" fill="#000000" transform="matrix(1.00, 0.00, -0.00, -1.00, 786.7, 471.0)">f</text><text xml:space="preserve" font-family="Avenir-Book" font-size="36.0" fill="#000000" transform="matrix(1.00, 0.00, -0.00, -1.00, 797.3, 471.0)"> </text><text xml:space="preserve" font-family="Avenir-Book" font-size="36.0" fill="#000000" transform="matrix(1.00, 0.00, -0.00, -1.00, 807.3, 471.0)">f</text><text xml:space="preserve" font-family="Avenir-Book" font-size="36.0" fill="#000000" transform="matrix(1.00, 0.00, -0.00, -1.00, 818.0, 471.0)">i</text><text xml:space="preserve" font-family="Avenir-Book" font-size="36.0" fill="#000000" transform="matrix(1.00, 0.00, -0.00, -1.00, 826.6, 471.0)">l</text><text xml:space="preserve" font-family="Avenir-Book" font-size="36.0" fill="#000000" transform="matrix(1.00, 0.00, -0.00, -1.00, 835.3, 471.0)">e</text><text xml:space="preserve" font-family="Avenir-Book" font-size="36.0" fill="#000000" transform="matrix(1.00, 0.00, -0.00, -1.00, 855.3, 471.0)">s</text><text xml:space="preserve" font-family="Avenir-Book" font-size="36.0" fill="#000000" transform="matrix(1.00, 0.00, -0.00, -1.00, 870.6, 471.0)"> </text><text xml:space="preserve" font-family="Avenir-Book" font-size="36.0" fill="#000000" transform="matrix(1.00, 0.00, -0.00, -1.00, 880.6, 471.0)">a</text><text xml:space="preserve" font-family="Avenir-Book" font-size="36.0" fill="#000000" transform="matrix(1.00, 0.00, -0.00, -1.00, 899.3, 471.0)">n</text><text xml:space="preserve" font-family="Avenir-Book" font-size="36.0" fill="#000000" transform="matrix(1.00, 0.00, -0.00, -1.00, 919.3, 471.0)">d</text><text xml:space="preserve" font-family="Avenir-Book" font-size="36.0" fill="#000000" transform="matrix(1.00, 0.00, -0.00, -1.00, 941.3, 471.0)"> </text><text xml:space="preserve" font-family="Avenir-Book" font-size="36.0" fill="#000000" transform="matrix(1.00, 0.00, -0.00, -1.00, 114.0, 422.0)">t</text><text xml:space="preserve" font-family="Avenir-Book" font-size="36.0" fill="#000000" transform="matrix(1.00, 0.00, -0.00, -1.00, 126.0, 422.0)">h</text><text xml:space="preserve" font-family="Avenir-Book" font-size="36.0" fill="#000000" transform="matrix(1.00, 0.00, -0.00, -1.00, 146.0, 422.0)">e</text><text xml:space="preserve" font-family="Avenir-Book" font-size="36.0" fill="#000000" transform="matrix(1.00, 0.00, -0.00, -1.00, 166.0, 422.0)"> </text><text xml:space="preserve" font-family="Avenir-Book" font-size="36.0" fill="#000000" transform="matrix(1.00, 0.00, -0.00, -1.00, 176.0, 422.0)">s</text><text xml:space="preserve" font-family="Avenir-Book" font-size="36.0" fill="#000000" transform="matrix(1.00, 0.00, -0.00, -1.00, 191.3, 422.0)">i</text><text xml:space="preserve" font-family="Avenir-Book" font-size="36.0" fill="#000000" transform="matrix(1.00, 0.00, -0.00, -1.00, 200.0, 422.0)">z</text><text xml:space="preserve" font-family="Avenir-Book" font-size="36.0" fill="#000000" transform="matrix(1.00, 0.00, -0.00, -1.00, 215.3, 422.0)">e</text><text xml:space="preserve" font-family="Avenir-Book" font-size="36.0" fill="#000000" transform="matrix(1.00, 0.00, -0.00, -1.00, 235.3, 422.0)"> </text><text xml:space="preserve" font-family="Avenir-Book" font-size="36.0" fill="#000000" transform="matrix(1.00, 0.00, -0.00, -1.00, 245.3, 422.0)">o</text><text xml:space="preserve" font-family="Avenir-Book" font-size="36.0" fill="#000000" transform="matrix(1.00, 0.00, -0.00, -1.00, 266.7, 422.0)">f</text><text xml:space="preserve" font-family="Avenir-Book" font-size="36.0" fill="#000000" transform="matrix(1.00, 0.00, -0.00, -1.00, 277.3, 422.0)"> </text><text xml:space="preserve" font-family="Avenir-Book" font-size="36.0" fill="#000000" transform="matrix(1.00, 0.00, -0.00, -1.00, 287.3, 422.0)">e</text><text xml:space="preserve" font-family="Avenir-Book" font-size="36.0" fill="#000000" transform="matrix(1.00, 0.00, -0.00, -1.00, 307.4, 422.0)">a</text><text xml:space="preserve" font-family="Avenir-Book" font-size="36.0" fill="#000000" transform="matrix(1.00, 0.00, -0.00, -1.00, 326.0, 422.0)">c</text><text xml:space="preserve" font-family="Avenir-Book" font-size="36.0" fill="#000000" transform="matrix(1.00, 0.00, -0.00, -1.00, 343.4, 422.0)">h</text><text xml:space="preserve" font-family="Avenir-Book" font-size="36.0" fill="#000000" transform="matrix(1.00, 0.00, -0.00, -1.00, 363.4, 422.0)"> </text><text xml:space="preserve" font-family="Avenir-Book" font-size="36.0" fill="#000000" transform="matrix(1.00, 0.00, -0.00, -1.00, 373.4, 422.0)">f</text><text xml:space="preserve" font-family="Avenir-Book" font-size="36.0" fill="#000000" transform="matrix(1.00, 0.00, -0.00, -1.00, 384.1, 422.0)">i</text><text xml:space="preserve" font-family="Avenir-Book" font-size="36.0" fill="#000000" transform="matrix(1.00, 0.00, -0.00, -1.00, 392.7, 422.0)">l</text><text xml:space="preserve" font-family="Avenir-Book" font-size="36.0" fill="#000000" transform="matrix(1.00, 0.00, -0.00, -1.00, 401.4, 422.0)">e</text><text xml:space="preserve" font-family="Avenir-Book" font-size="36.0" fill="#000000" transform="matrix(1.00, 0.00, -0.00, -1.00, 421.4, 422.0)"> </text><text xml:space="preserve" font-family="Avenir-Book" font-size="27.0" fill="#000000" transform="matrix(1.00, 0.00, -0.00, -1.00, 79.0, 306.9)">•</text><text xml:space="preserve" font-family="Avenir-Book" font-size="36.0" fill="#000000" transform="matrix(1.00, 0.00, -0.00, -1.00, 114.0, 304.0)">A</text><text xml:space="preserve" font-family="Avenir-Book" font-size="36.0" fill="#000000" transform="matrix(1.00, 0.00, -0.00, -1.00, 138.7, 304.0)"> </text><text xml:space="preserve" font-family="Avenir-Book" font-size="36.0" fill="#000000" transform="matrix(1.00, 0.00, -0.00, -1.00, 148.7, 304.0)">n</text><text xml:space="preserve" font-family="Avenir-Book" font-size="36.0" fill="#000000" transform="matrix(1.00, 0.00, -0.00, -1.00, 168.7, 304.0)">e</text><text xml:space="preserve" font-family="Avenir-Book" font-size="36.0" fill="#000000" transform="matrix(1.00, 0.00, -0.00, -1.00, 188.7, 304.0)">t</text><text xml:space="preserve" font-family="Avenir-Book" font-size="36.0" fill="#000000" transform="matrix(1.00, 0.00, -0.00, -1.00, 200.7, 304.0)">w</text><text xml:space="preserve" font-family="Avenir-Book" font-size="36.0" fill="#000000" transform="matrix(1.00, 0.00, -0.00, -1.00, 226.7, 304.0)">o</text><text xml:space="preserve" font-family="Avenir-Book" font-size="36.0" fill="#000000" transform="matrix(1.00, 0.00, -0.00, -1.00, 248.0, 304.0)">r</text><text xml:space="preserve" font-family="Avenir-Book" font-size="36.0" fill="#000000" transform="matrix(1.00, 0.00, -0.00, -1.00, 260.0, 304.0)">k</text><text xml:space="preserve" font-family="Avenir-Book" font-size="36.0" fill="#000000" transform="matrix(1.00, 0.00, -0.00, -1.00, 277.3, 304.0)"> </text><text xml:space="preserve" font-family="Avenir-Book" font-size="36.0" fill="#000000" transform="matrix(1.00, 0.00, -0.00, -1.00, 287.3, 304.0)">a</text><text xml:space="preserve" font-family="Avenir-Book" font-size="36.0" fill="#000000" transform="matrix(1.00, 0.00, -0.00, -1.00, 306.0, 304.0)">d</text><text xml:space="preserve" font-family="Avenir-Book" font-size="36.0" fill="#000000" transform="matrix(1.00, 0.00, -0.00, -1.00, 328.0, 304.0)">v</text><text xml:space="preserve" font-family="Avenir-Book" font-size="36.0" fill="#000000" transform="matrix(1.00, 0.00, -0.00, -1.00, 345.4, 304.0)">e</text><text xml:space="preserve" font-family="Avenir-Book" font-size="36.0" fill="#000000" transform="matrix(1.00, 0.00, -0.00, -1.00, 365.4, 304.0)">r</text><text xml:space="preserve" font-family="Avenir-Book" font-size="36.0" fill="#000000" transform="matrix(1.00, 0.00, -0.00, -1.00, 377.3, 304.0)">s</text><text xml:space="preserve" font-family="Avenir-Book" font-size="36.0" fill="#000000" transform="matrix(1.00, 0.00, -0.00, -1.00, 392.7, 304.0)">a</text><text xml:space="preserve" font-family="Avenir-Book" font-size="36.0" fill="#000000" transform="matrix(1.00, 0.00, -0.00, -1.00, 411.4, 304.0)">r</text><text xml:space="preserve" font-family="Avenir-Book" font-size="36.0" fill="#000000" transform="matrix(1.00, 0.00, -0.00, -1.00, 423.3, 304.0)">y</text><text xml:space="preserve" font-family="Avenir-Book" font-size="36.0" fill="#000000" transform="matrix(1.00, 0.00, -0.00, -1.00, 440.7, 304.0)"> </text><text xml:space="preserve" font-family="Avenir-Book" font-size="36.0" fill="#000000" transform="matrix(1.00, 0.00, -0.00, -1.00, 450.7, 304.0)">c</text><text xml:space="preserve" font-family="Avenir-Book" font-size="36.0" fill="#000000" transform="matrix(1.00, 0.00, -0.00, -1.00, 468.0, 304.0)">a</text><text xml:space="preserve" font-family="Avenir-Book" font-size="36.0" fill="#000000" transform="matrix(1.00, 0.00, -0.00, -1.00, 486.7, 304.0)">n</text><text xml:space="preserve" font-family="Avenir-Book" font-size="36.0" fill="#000000" transform="matrix(1.00, 0.00, -0.00, -1.00, 506.7, 304.0)"> </text><text xml:space="preserve" font-family="Avenir-Book" font-size="36.0" fill="#000000" transform="matrix(1.00, 0.00, -0.00, -1.00, 516.7, 304.0)">p</text><text xml:space="preserve" font-family="Avenir-Book" font-size="36.0" fill="#000000" transform="matrix(1.00, 0.00, -0.00, -1.00, 538.7, 304.0)">o</text><text xml:space="preserve" font-family="Avenir-Book" font-size="36.0" fill="#000000" transform="matrix(1.00, 0.00, -0.00, -1.00, 560.1, 304.0)">t</text><text xml:space="preserve" font-family="Avenir-Book" font-size="36.0" fill="#000000" transform="matrix(1.00, 0.00, -0.00, -1.00, 572.0, 304.0)">e</text><text xml:space="preserve" font-family="Avenir-Book" font-size="36.0" fill="#000000" transform="matrix(1.00, 0.00, -0.00, -1.00, 592.0, 304.0)">n</text><text xml:space="preserve" font-family="Avenir-Book" font-size="36.0" fill="#000000" transform="matrix(1.00, 0.00, -0.00, -1.00, 612.1, 304.0)">t</text><text xml:space="preserve" font-family="Avenir-Book" font-size="36.0" fill="#000000" transform="matrix(1.00, 0.00, -0.00, -1.00, 624.0, 304.0)">i</text><text xml:space="preserve" font-family="Avenir-Book" font-size="36.0" fill="#000000" transform="matrix(1.00, 0.00, -0.00, -1.00, 632.7, 304.0)">a</text><text xml:space="preserve" font-family="Avenir-Book" font-size="36.0" fill="#000000" transform="matrix(1.00, 0.00, -0.00, -1.00, 651.3, 304.0)">l</text><text xml:space="preserve" font-family="Avenir-Book" font-size="36.0" fill="#000000" transform="matrix(1.00, 0.00, -0.00, -1.00, 660.0, 304.0)">l</text><text xml:space="preserve" font-family="Avenir-Book" font-size="36.0" fill="#000000" transform="matrix(1.00, 0.00, -0.00, -1.00, 668.6, 304.0)">y</text><text xml:space="preserve" font-family="Avenir-Book" font-size="36.0" fill="#000000" transform="matrix(1.00, 0.00, -0.00, -1.00, 686.0, 304.0)"> </text><text xml:space="preserve" font-family="Avenir-Book" font-size="36.0" fill="#000000" transform="matrix(1.00, 0.00, -0.00, -1.00, 696.0, 304.0)">c</text><text xml:space="preserve" font-family="Avenir-Book" font-size="36.0" fill="#000000" transform="matrix(1.00, 0.00, -0.00, -1.00, 713.3, 304.0)">o</text><text xml:space="preserve" font-family="Avenir-Book" font-size="36.0" fill="#000000" transform="matrix(1.00, 0.00, -0.00, -1.00, 734.7, 304.0)">m</text><text xml:space="preserve" font-family="Avenir-Book" font-size="36.0" fill="#000000" transform="matrix(1.00, 0.00, -0.00, -1.00, 765.3, 304.0)">b</text><text xml:space="preserve" font-family="Avenir-Book" font-size="36.0" fill="#000000" transform="matrix(1.00, 0.00, -0.00, -1.00, 787.3, 304.0)">i</text><text xml:space="preserve" font-family="Avenir-Book" font-size="36.0" fill="#000000" transform="matrix(1.00, 0.00, -0.00, -1.00, 796.0, 304.0)">n</text><text xml:space="preserve" font-family="Avenir-Book" font-size="36.0" fill="#000000" transform="matrix(1.00, 0.00, -0.00, -1.00, 816.0, 304.0)">e</text><text xml:space="preserve" font-family="Avenir-Book" font-size="36.0" fill="#000000" transform="matrix(1.00, 0.00, -0.00, -1.00, 836.0, 304.0)"> </text><text xml:space="preserve" font-family="Avenir-Book" font-size="36.0" fill="#000000" transform="matrix(1.00, 0.00, -0.00, -1.00, 114.0, 255.0)">o</text><text xml:space="preserve" font-family="Avenir-Book" font-size="36.0" fill="#000000" transform="matrix(1.00, 0.00, -0.00, -1.00, 135.3, 255.0)">u</text><text xml:space="preserve" font-family="Avenir-Book" font-size="36.0" fill="#000000" transform="matrix(1.00, 0.00, -0.00, -1.00, 155.4, 255.0)">t</text><text xml:space="preserve" font-family="Avenir-Book" font-size="36.0" fill="#000000" transform="matrix(1.00, 0.00, -0.00, -1.00, 167.3, 255.0)">b</text><text xml:space="preserve" font-family="Avenir-Book" font-size="36.0" fill="#000000" transform="matrix(1.00, 0.00, -0.00, -1.00, 189.3, 255.0)">o</text><text xml:space="preserve" font-family="Avenir-Book" font-size="36.0" fill="#000000" transform="matrix(1.00, 0.00, -0.00, -1.00, 210.7, 255.0)">u</text><text xml:space="preserve" font-family="Avenir-Book" font-size="36.0" fill="#000000" transform="matrix(1.00, 0.00, -0.00, -1.00, 230.7, 255.0)">n</text><text xml:space="preserve" font-family="Avenir-Book" font-size="36.0" fill="#000000" transform="matrix(1.00, 0.00, -0.00, -1.00, 250.7, 255.0)">d</text><text xml:space="preserve" font-family="Avenir-Book" font-size="36.0" fill="#000000" transform="matrix(1.00, 0.00, -0.00, -1.00, 272.7, 255.0)"> </text><text xml:space="preserve" font-family="Avenir-Book" font-size="36.0" fill="#000000" transform="matrix(1.00, 0.00, -0.00, -1.00, 282.7, 255.0)">s</text><text xml:space="preserve" font-family="Avenir-Book" font-size="36.0" fill="#000000" transform="matrix(1.00, 0.00, -0.00, -1.00, 298.0, 255.0)">h</text><text xml:space="preserve" font-family="Avenir-Book" font-size="36.0" fill="#000000" transform="matrix(1.00, 0.00, -0.00, -1.00, 318.0, 255.0)">a</text><text xml:space="preserve" font-family="Avenir-Book" font-size="36.0" fill="#000000" transform="matrix(1.00, 0.00, -0.00, -1.00, 336.7, 255.0)">r</text><text xml:space="preserve" font-family="Avenir-Book" font-size="36.0" fill="#000000" transform="matrix(1.00, 0.00, -0.00, -1.00, 348.0, 255.0)">e</text><text xml:space="preserve" font-family="Avenir-Book" font-size="36.0" fill="#000000" transform="matrix(1.00, 0.00, -0.00, -1.00, 368.1, 255.0)">s</text><text xml:space="preserve" font-family="Avenir-Book" font-size="36.0" fill="#000000" transform="matrix(1.00, 0.00, -0.00, -1.00, 383.4, 255.0)"> </text><text xml:space="preserve" font-family="Avenir-Book" font-size="36.0" fill="#000000" transform="matrix(1.00, 0.00, -0.00, -1.00, 393.4, 255.0)">a</text><text xml:space="preserve" font-family="Avenir-Book" font-size="36.0" fill="#000000" transform="matrix(1.00, 0.00, -0.00, -1.00, 412.1, 255.0)">s</text><text xml:space="preserve" font-family="Avenir-Book" font-size="36.0" fill="#000000" transform="matrix(1.00, 0.00, -0.00, -1.00, 427.4, 255.0)"> </text><text xml:space="preserve" font-family="Avenir-Book" font-size="36.0" fill="#000000" transform="matrix(1.00, 0.00, -0.00, -1.00, 437.4, 255.0)">t</text><text xml:space="preserve" font-family="Avenir-Book" font-size="36.0" fill="#000000" transform="matrix(1.00, 0.00, -0.00, -1.00, 449.4, 255.0)">h</text><text xml:space="preserve" font-family="Avenir-Book" font-size="36.0" fill="#000000" transform="matrix(1.00, 0.00, -0.00, -1.00, 469.4, 255.0)">e</text><text xml:space="preserve" font-family="Avenir-Book" font-size="36.0" fill="#000000" transform="matrix(1.00, 0.00, -0.00, -1.00, 489.4, 255.0)">y</text><text xml:space="preserve" font-family="Avenir-Book" font-size="36.0" fill="#000000" transform="matrix(1.00, 0.00, -0.00, -1.00, 506.8, 255.0)"> </text><text xml:space="preserve" font-family="Avenir-Book" font-size="36.0" fill="#000000" transform="matrix(1.00, 0.00, -0.00, -1.00, 516.8, 255.0)">a</text><text xml:space="preserve" font-family="Avenir-Book" font-size="36.0" fill="#000000" transform="matrix(1.00, 0.00, -0.00, -1.00, 535.5, 255.0)">r</text><text xml:space="preserve" font-family="Avenir-Book" font-size="36.0" fill="#000000" transform="matrix(1.00, 0.00, -0.00, -1.00, 546.8, 255.0)">e</text><text xml:space="preserve" font-family="Avenir-Book" font-size="36.0" fill="#000000" transform="matrix(1.00, 0.00, -0.00, -1.00, 566.8, 255.0)"> </text><text xml:space="preserve" font-family="Avenir-Book" font-size="36.0" fill="#000000" transform="matrix(1.00, 0.00, -0.00, -1.00, 576.8, 255.0)">b</text><text xml:space="preserve" font-family="Avenir-Book" font-size="36.0" fill="#000000" transform="matrix(1.00, 0.00, -0.00, -1.00, 598.8, 255.0)">e</text><text xml:space="preserve" font-family="Avenir-Book" font-size="36.0" fill="#000000" transform="matrix(1.00, 0.00, -0.00, -1.00, 618.8, 255.0)">i</text><text xml:space="preserve" font-family="Avenir-Book" font-size="36.0" fill="#000000" transform="matrix(1.00, 0.00, -0.00, -1.00, 627.4, 255.0)">n</text><text xml:space="preserve" font-family="Avenir-Book" font-size="36.0" fill="#000000" transform="matrix(1.00, 0.00, -0.00, -1.00, 647.4, 255.0)">g</text><text xml:space="preserve" font-family="Avenir-Book" font-size="36.0" fill="#000000" transform="matrix(1.00, 0.00, -0.00, -1.00, 669.4, 255.0)"> </text><text xml:space="preserve" font-family="Avenir-Book" font-size="36.0" fill="#000000" transform="matrix(1.00, 0.00, -0.00, -1.00, 679.5, 255.0)">s</text><text xml:space="preserve" font-family="Avenir-Book" font-size="36.0" fill="#000000" transform="matrix(1.00, 0.00, -0.00, -1.00, 694.8, 255.0)">e</text><text xml:space="preserve" font-family="Avenir-Book" font-size="36.0" fill="#000000" transform="matrix(1.00, 0.00, -0.00, -1.00, 714.8, 255.0)">n</text><text xml:space="preserve" font-family="Avenir-Book" font-size="36.0" fill="#000000" transform="matrix(1.00, 0.00, -0.00, -1.00, 734.8, 255.0)">t</text><text xml:space="preserve" font-family="Avenir-Book" font-size="36.0" fill="#000000" transform="matrix(1.00, 0.00, -0.00, -1.00, 746.8, 255.0)"> </text><text xml:space="preserve" font-family="Avenir-Book" font-size="27.0" fill="#000000" transform="matrix(1.00, 0.00, -0.00, -1.00, 79.0, 139.9)">•</text><text xml:space="preserve" font-family="Avenir-Book" font-size="36.0" fill="#000000" transform="matrix(1.00, 0.00, -0.00, -1.00, 114.0, 137.0)">I</text><text xml:space="preserve" font-family="Avenir-Book" font-size="36.0" fill="#000000" transform="matrix(1.00, 0.00, -0.00, -1.00, 123.5, 137.0)"> </text><text xml:space="preserve" font-family="Avenir-Book" font-size="36.0" fill="#000000" transform="matrix(1.00, 0.00, -0.00, -1.00, 133.5, 137.0)">u</text><text xml:space="preserve" font-family="Avenir-Book" font-size="36.0" fill="#000000" transform="matrix(1.00, 0.00, -0.00, -1.00, 153.5, 137.0)">s</text><text xml:space="preserve" font-family="Avenir-Book" font-size="36.0" fill="#000000" transform="matrix(1.00, 0.00, -0.00, -1.00, 168.9, 137.0)">e</text><text xml:space="preserve" font-family="Avenir-Book" font-size="36.0" fill="#000000" transform="matrix(1.00, 0.00, -0.00, -1.00, 188.9, 137.0)"> </text><text xml:space="preserve" font-family="Avenir-Book" font-size="36.0" fill="#000000" transform="matrix(1.00, 0.00, -0.00, -1.00, 198.9, 137.0)">t</text><text xml:space="preserve" font-family="Avenir-Book" font-size="36.0" fill="#000000" transform="matrix(1.00, 0.00, -0.00, -1.00, 210.8, 137.0)">h</text><text xml:space="preserve" font-family="Avenir-Book" font-size="36.0" fill="#000000" transform="matrix(1.00, 0.00, -0.00, -1.00, 230.9, 137.0)">e</text><text xml:space="preserve" font-family="Avenir-Book" font-size="36.0" fill="#000000" transform="matrix(1.00, 0.00, -0.00, -1.00, 250.9, 137.0)"> </text><text xml:space="preserve" font-family="Avenir-Book" font-size="36.0" fill="#000000" transform="matrix(1.00, 0.00, -0.00, -1.00, 260.9, 137.0)">s</text><text xml:space="preserve" font-family="Avenir-Book" font-size="36.0" fill="#000000" transform="matrix(1.00, 0.00, -0.00, -1.00, 276.2, 137.0)">a</text><text xml:space="preserve" font-family="Avenir-Book" font-size="36.0" fill="#000000" transform="matrix(1.00, 0.00, -0.00, -1.00, 294.9, 137.0)">m</text><text xml:space="preserve" font-family="Avenir-Book" font-size="36.0" fill="#000000" transform="matrix(1.00, 0.00, -0.00, -1.00, 325.6, 137.0)">e</text><text xml:space="preserve" font-family="Avenir-Book" font-size="36.0" fill="#000000" transform="matrix(1.00, 0.00, -0.00, -1.00, 345.6, 137.0)"> </text><text xml:space="preserve" font-family="Avenir-Book" font-size="36.0" fill="#000000" transform="matrix(1.00, 0.00, -0.00, -1.00, 355.6, 137.0)">p</text><text xml:space="preserve" font-family="Avenir-Book" font-size="36.0" fill="#000000" transform="matrix(1.00, 0.00, -0.00, -1.00, 377.6, 137.0)">a</text><text xml:space="preserve" font-family="Avenir-Book" font-size="36.0" fill="#000000" transform="matrix(1.00, 0.00, -0.00, -1.00, 396.3, 137.0)">s</text><text xml:space="preserve" font-family="Avenir-Book" font-size="36.0" fill="#000000" transform="matrix(1.00, 0.00, -0.00, -1.00, 411.6, 137.0)">s</text><text xml:space="preserve" font-family="Avenir-Book" font-size="36.0" fill="#000000" transform="matrix(1.00, 0.00, -0.00, -1.00, 426.9, 137.0)">w</text><text xml:space="preserve" font-family="Avenir-Book" font-size="36.0" fill="#000000" transform="matrix(1.00, 0.00, -0.00, -1.00, 452.9, 137.0)">o</text><text xml:space="preserve" font-family="Avenir-Book" font-size="36.0" fill="#000000" transform="matrix(1.00, 0.00, -0.00, -1.00, 474.3, 137.0)">r</text><text xml:space="preserve" font-family="Avenir-Book" font-size="36.0" fill="#000000" transform="matrix(1.00, 0.00, -0.00, -1.00, 485.6, 137.0)">d</text><text xml:space="preserve" font-family="Avenir-Book" font-size="36.0" fill="#000000" transform="matrix(1.00, 0.00, -0.00, -1.00, 507.6, 137.0)"> </text><text xml:space="preserve" font-family="Avenir-Book" font-size="36.0" fill="#000000" transform="matrix(1.00, 0.00, -0.00, -1.00, 517.6, 137.0)">f</text><text xml:space="preserve" font-family="Avenir-Book" font-size="36.0" fill="#000000" transform="matrix(1.00, 0.00, -0.00, -1.00, 528.3, 137.0)">o</text><text xml:space="preserve" font-family="Avenir-Book" font-size="36.0" fill="#000000" transform="matrix(1.00, 0.00, -0.00, -1.00, 549.6, 137.0)">r</text><text xml:space="preserve" font-family="Avenir-Book" font-size="36.0" fill="#000000" transform="matrix(1.00, 0.00, -0.00, -1.00, 561.6, 137.0)"> </text><text xml:space="preserve" font-family="Avenir-Book" font-size="36.0" fill="#000000" transform="matrix(1.00, 0.00, -0.00, -1.00, 571.6, 137.0)">e</text><text xml:space="preserve" font-family="Avenir-Book" font-size="36.0" fill="#000000" transform="matrix(1.00, 0.00, -0.00, -1.00, 591.6, 137.0)">v</text><text xml:space="preserve" font-family="Avenir-Book" font-size="36.0" fill="#000000" transform="matrix(1.00, 0.00, -0.00, -1.00, 608.9, 137.0)">e</text><text xml:space="preserve" font-family="Avenir-Book" font-size="36.0" fill="#000000" transform="matrix(1.00, 0.00, -0.00, -1.00, 628.9, 137.0)">r</text><text xml:space="preserve" font-family="Avenir-Book" font-size="36.0" fill="#000000" transform="matrix(1.00, 0.00, -0.00, -1.00, 640.9, 137.0)">y</text><text xml:space="preserve" font-family="Avenir-Book" font-size="36.0" fill="#000000" transform="matrix(1.00, 0.00, -0.00, -1.00, 658.2, 137.0)">t</text><text xml:space="preserve" font-family="Avenir-Book" font-size="36.0" fill="#000000" transform="matrix(1.00, 0.00, -0.00, -1.00, 670.2, 137.0)">h</text><text xml:space="preserve" font-family="Avenir-Book" font-size="36.0" fill="#000000" transform="matrix(1.00, 0.00, -0.00, -1.00, 690.2, 137.0)">i</text><text xml:space="preserve" font-family="Avenir-Book" font-size="36.0" fill="#000000" transform="matrix(1.00, 0.00, -0.00, -1.00, 698.9, 137.0)">n</text><text xml:space="preserve" font-family="Avenir-Book" font-size="36.0" fill="#000000" transform="matrix(1.00, 0.00, -0.00, -1.00, 718.9, 137.0)">g</text><text xml:space="preserve" font-family="Avenir-Book" font-size="36.0" fill="#000000" transform="matrix(1.00, 0.00, -0.00, -1.00, 740.9, 137.0)">?</text></g></svg>