<?xml version="1.0" encoding="UTF-8" standalone="no"?><svg xmlns="http://www.w3.org/2000/svg" xmlns:xlink="http://www.w3.org/1999/xlink" clip-rule="evenodd" stroke-miterlimit="4.00" viewBox="0 0 1024 768"><desc>SVG generated by Keynote</desc><defs></defs><g transform="matrix(1.00, 0.00, -0.00, -1.00, 0.0, 768.0)"><path d="M 0.0 768.0 L 1024.0 768.0 L 1024.0 0.0 L 0.0 0.0 Z M 0.0 768.0 " fill="#FEFFFF"></path><text xml:space="preserve" font-family="Avenir-Book" font-size="80.0" fill="#000000" transform="matrix(1.00, 0.00, -0.00, -1.00, 79.0, 622.0)">S</text><text xml:space="preserve" font-family="Avenir-Book" font-size="80.0" fill="#000000" transform="matrix(1.00, 0.00, -0.00, -1.00, 123.5, 622.0)">y</text><text xml:space="preserve" font-family="Avenir-Book" font-size="80.0" fill="#000000" transform="matrix(1.00, 0.00, -0.00, -1.00, 162.0, 622.0)">s</text><text xml:space="preserve" font-family="Avenir-Book" font-size="80.0" fill="#000000" transform="matrix(1.00, 0.00, -0.00, -1.00, 196.1, 622.0)">t</text><text xml:space="preserve" font-family="Avenir-Book" font-size="80.0" fill="#000000" transform="matrix(1.00, 0.00, -0.00, -1.00, 222.7, 622.0)">e</text><text xml:space="preserve" font-family="Avenir-Book" font-size="80.0" fill="#000000" transform="matrix(1.00, 0.00, -0.00, -1.00, 267.2, 622.0)">m</text><text xml:space="preserve" font-family="Avenir-Book" font-size="80.0" fill="#000000" transform="matrix(1.00, 0.00, -0.00, -1.00, 335.3, 622.0)"> </text><text xml:space="preserve" font-family="Avenir-Book" font-size="80.0" fill="#000000" transform="matrix(1.00, 0.00, -0.00, -1.00, 357.6, 622.0)">G</text><text xml:space="preserve" font-family="Avenir-Book" font-size="80.0" fill="#000000" transform="matrix(1.00, 0.00, -0.00, -1.00, 419.8, 622.0)">u</text><text xml:space="preserve" font-family="Avenir-Book" font-size="80.0" fill="#000000" transform="matrix(1.00, 0.00, -0.00, -1.00, 464.3, 622.0)">a</text><text xml:space="preserve" font-family="Avenir-Book" font-size="80.0" fill="#000000" transform="matrix(1.00, 0.00, -0.00, -1.00, 505.8, 622.0)">r</text><text xml:space="preserve" font-family="Avenir-Book" font-size="80.0" fill="#000000" transform="matrix(1.00, 0.00, -0.00, -1.00, 532.4, 622.0)">a</text><text xml:space="preserve" font-family="Avenir-Book" font-size="80.0" fill="#000000" transform="matrix(1.00, 0.00, -0.00, -1.00, 573.9, 622.0)">n</text><text xml:space="preserve" font-family="Avenir-Book" font-size="80.0" fill="#000000" transform="matrix(1.00, 0.00, -0.00, -1.00, 618.4, 622.0)">t</text><text xml:space="preserve" font-family="Avenir-Book" font-size="80.0" fill="#000000" transform="matrix(1.00, 0.00, -0.00, -1.00, 644.9, 622.0)">e</text><text xml:space="preserve" font-family="Avenir-Book" font-size="80.0" fill="#000000" transform="matrix(1.00, 0.00, -0.00, -1.00, 689.4, 622.0)">e</text><text xml:space="preserve" font-family="Avenir-Book" font-size="80.0" fill="#000000" transform="matrix(1.00, 0.00, -0.00, -1.00, 733.9, 622.0)">s</text><text xml:space="preserve" font-family="Avenir-Book" font-size="27.0" fill="#000000" transform="matrix(1.00, 0.00, -0.00, -1.00, 79.0, 497.4)">•</text><text xml:space="preserve" font-family="Avenir-Heavy" font-weight="bold" font-size="36.0" fill="#000000" transform="matrix(1.00, 0.00, -0.00, -1.00, 114.0, 495.0)">I</text><text xml:space="preserve" font-family="Avenir-Heavy" font-weight="bold" font-size="36.0" fill="#000000" transform="matrix(1.00, 0.00, -0.00, -1.00, 124.0, 495.0)">n</text><text xml:space="preserve" font-family="Avenir-Heavy" font-weight="bold" font-size="36.0" fill="#000000" transform="matrix(1.00, 0.00, -0.00, -1.00, 144.7, 495.0)">f</text><text xml:space="preserve" font-family="Avenir-Heavy" font-weight="bold" font-size="36.0" fill="#000000" transform="matrix(1.00, 0.00, -0.00, -1.00, 157.3, 495.0)">o</text><text xml:space="preserve" font-family="Avenir-Heavy" font-weight="bold" font-size="36.0" fill="#000000" transform="matrix(1.00, 0.00, -0.00, -1.00, 179.3, 495.0)">r</text><text xml:space="preserve" font-family="Avenir-Heavy" font-weight="bold" font-size="36.0" fill="#000000" transform="matrix(1.00, 0.00, -0.00, -1.00, 194.0, 495.0)">m</text><text xml:space="preserve" font-family="Avenir-Heavy" font-weight="bold" font-size="36.0" fill="#000000" transform="matrix(1.00, 0.00, -0.00, -1.00, 225.3, 495.0)">a</text><text xml:space="preserve" font-family="Avenir-Heavy" font-weight="bold" font-size="36.0" fill="#000000" transform="matrix(1.00, 0.00, -0.00, -1.00, 244.6, 495.0)">t</text><text xml:space="preserve" font-family="Avenir-Heavy" font-weight="bold" font-size="36.0" fill="#000000" transform="matrix(1.00, 0.00, -0.00, -1.00, 258.6, 495.0)">i</text><text xml:space="preserve" font-family="Avenir-Heavy" font-weight="bold" font-size="36.0" fill="#000000" transform="matrix(1.00, 0.00, -0.00, -1.00, 268.0, 495.0)">o</text><text xml:space="preserve" font-family="Avenir-Heavy" font-weight="bold" font-size="36.0" fill="#000000" transform="matrix(1.00, 0.00, -0.00, -1.00, 290.0, 495.0)">n</text><text xml:space="preserve" font-family="Avenir-Heavy" font-weight="bold" font-size="36.0" fill="#000000" transform="matrix(1.00, 0.00, -0.00, -1.00, 310.6, 495.0)">-</text><text xml:space="preserve" font-family="Avenir-Heavy" font-weight="bold" font-size="36.0" fill="#000000" transform="matrix(1.00, 0.00, -0.00, -1.00, 322.0, 495.0)">T</text><text xml:space="preserve" font-family="Avenir-Heavy" font-weight="bold" font-size="36.0" fill="#000000" transform="matrix(1.00, 0.00, -0.00, -1.00, 342.6, 495.0)">h</text><text xml:space="preserve" font-family="Avenir-Heavy" font-weight="bold" font-size="36.0" fill="#000000" transform="matrix(1.00, 0.00, -0.00, -1.00, 363.3, 495.0)">e</text><text xml:space="preserve" font-family="Avenir-Heavy" font-weight="bold" font-size="36.0" fill="#000000" transform="matrix(1.00, 0.00, -0.00, -1.00, 384.0, 495.0)">o</text><text xml:space="preserve" font-family="Avenir-Heavy" font-weight="bold" font-size="36.0" fill="#000000" transform="matrix(1.00, 0.00, -0.00, -1.00, 405.9, 495.0)">r</text><text xml:space="preserve" font-family="Avenir-Heavy" font-weight="bold" font-size="36.0" fill="#000000" transform="matrix(1.00, 0.00, -0.00, -1.00, 419.3, 495.0)">e</text><text xml:space="preserve" font-family="Avenir-Heavy" font-weight="bold" font-size="36.0" fill="#000000" transform="matrix(1.00, 0.00, -0.00, -1.00, 439.9, 495.0)">t</text><text xml:space="preserve" font-family="Avenir-Heavy" font-weight="bold" font-size="36.0" fill="#000000" transform="matrix(1.00, 0.00, -0.00, -1.00, 454.0, 495.0)">i</text><text xml:space="preserve" font-family="Avenir-Heavy" font-weight="bold" font-size="36.0" fill="#000000" transform="matrix(1.00, 0.00, -0.00, -1.00, 463.3, 495.0)">c</text><text xml:space="preserve" font-family="Avenir-Heavy" font-weight="bold" font-size="36.0" fill="#000000" transform="matrix(1.00, 0.00, -0.00, -1.00, 480.7, 495.0)"> </text><text xml:space="preserve" font-family="Avenir-Heavy" font-weight="bold" font-size="36.0" fill="#000000" transform="matrix(1.00, 0.00, -0.00, -1.00, 491.4, 495.0)">C</text><text xml:space="preserve" font-family="Avenir-Heavy" font-weight="bold" font-size="36.0" fill="#000000" transform="matrix(1.00, 0.00, -0.00, -1.00, 516.0, 495.0)">o</text><text xml:space="preserve" font-family="Avenir-Heavy" font-weight="bold" font-size="36.0" fill="#000000" transform="matrix(1.00, 0.00, -0.00, -1.00, 538.0, 495.0)">n</text><text xml:space="preserve" font-family="Avenir-Heavy" font-weight="bold" font-size="36.0" fill="#000000" transform="matrix(1.00, 0.00, -0.00, -1.00, 558.6, 495.0)">ﬁ</text><text xml:space="preserve" font-family="Avenir-Heavy" font-weight="bold" font-size="36.0" fill="#000000" transform="matrix(1.00, 0.00, -0.00, -1.00, 580.0, 495.0)">d</text><text xml:space="preserve" font-family="Avenir-Heavy" font-weight="bold" font-size="36.0" fill="#000000" transform="matrix(1.00, 0.00, -0.00, -1.00, 602.7, 495.0)">e</text><text xml:space="preserve" font-family="Avenir-Heavy" font-weight="bold" font-size="36.0" fill="#000000" transform="matrix(1.00, 0.00, -0.00, -1.00, 623.3, 495.0)">n</text><text xml:space="preserve" font-family="Avenir-Heavy" font-weight="bold" font-size="36.0" fill="#000000" transform="matrix(1.00, 0.00, -0.00, -1.00, 644.0, 495.0)">t</text><text xml:space="preserve" font-family="Avenir-Heavy" font-weight="bold" font-size="36.0" fill="#000000" transform="matrix(1.00, 0.00, -0.00, -1.00, 658.0, 495.0)">i</text><text xml:space="preserve" font-family="Avenir-Heavy" font-weight="bold" font-size="36.0" fill="#000000" transform="matrix(1.00, 0.00, -0.00, -1.00, 667.4, 495.0)">a</text><text xml:space="preserve" font-family="Avenir-Heavy" font-weight="bold" font-size="36.0" fill="#000000" transform="matrix(1.00, 0.00, -0.00, -1.00, 686.7, 495.0)">l</text><text xml:space="preserve" font-family="Avenir-Heavy" font-weight="bold" font-size="36.0" fill="#000000" transform="matrix(1.00, 0.00, -0.00, -1.00, 696.1, 495.0)">l</text><text xml:space="preserve" font-family="Avenir-Heavy" font-weight="bold" font-size="36.0" fill="#000000" transform="matrix(1.00, 0.00, -0.00, -1.00, 705.5, 495.0)">y</text><text xml:space="preserve" font-family="Avenir-Book" font-size="36.0" fill="#000000" transform="matrix(1.00, 0.00, -0.00, -1.00, 724.2, 495.0)"> </text><text xml:space="preserve" font-family="Avenir-Book" font-size="36.0" fill="#000000" transform="matrix(1.00, 0.00, -0.00, -1.00, 734.2, 495.0)">o</text><text xml:space="preserve" font-family="Avenir-Book" font-size="36.0" fill="#000000" transform="matrix(1.00, 0.00, -0.00, -1.00, 755.5, 495.0)">f</text><text xml:space="preserve" font-family="Avenir-Book" font-size="36.0" fill="#000000" transform="matrix(1.00, 0.00, -0.00, -1.00, 766.2, 495.0)"> </text><text xml:space="preserve" font-family="Avenir-Book" font-size="36.0" fill="#000000" transform="matrix(1.00, 0.00, -0.00, -1.00, 776.2, 495.0)">d</text><text xml:space="preserve" font-family="Avenir-Book" font-size="36.0" fill="#000000" transform="matrix(1.00, 0.00, -0.00, -1.00, 798.2, 495.0)">a</text><text xml:space="preserve" font-family="Avenir-Book" font-size="36.0" fill="#000000" transform="matrix(1.00, 0.00, -0.00, -1.00, 816.9, 495.0)">t</text><text xml:space="preserve" font-family="Avenir-Book" font-size="36.0" fill="#000000" transform="matrix(1.00, 0.00, -0.00, -1.00, 828.8, 495.0)">a</text><text xml:space="preserve" font-family="Avenir-Book" font-size="36.0" fill="#000000" transform="matrix(1.00, 0.00, -0.00, -1.00, 847.5, 495.0)"> </text><text xml:space="preserve" font-family="Avenir-Book" font-size="36.0" fill="#000000" transform="matrix(1.00, 0.00, -0.00, -1.00, 857.5, 495.0)">i</text><text xml:space="preserve" font-family="Avenir-Book" font-size="36.0" fill="#000000" transform="matrix(1.00, 0.00, -0.00, -1.00, 866.1, 495.0)">f</text><text xml:space="preserve" font-family="Avenir-Book" font-size="36.0" fill="#000000" transform="matrix(1.00, 0.00, -0.00, -1.00, 876.8, 495.0)"> </text><text xml:space="preserve" font-family="Avenir-Book" font-size="36.0" fill="#000000" transform="matrix(1.00, 0.00, -0.00, -1.00, 114.0, 446.0)">l</text><text xml:space="preserve" font-family="Avenir-Book" font-size="36.0" fill="#000000" transform="matrix(1.00, 0.00, -0.00, -1.00, 122.6, 446.0)">e</text><text xml:space="preserve" font-family="Avenir-Book" font-size="36.0" fill="#000000" transform="matrix(1.00, 0.00, -0.00, -1.00, 142.7, 446.0)">s</text><text xml:space="preserve" font-family="Avenir-Book" font-size="36.0" fill="#000000" transform="matrix(1.00, 0.00, -0.00, -1.00, 158.0, 446.0)">s</text><text xml:space="preserve" font-family="Avenir-Book" font-size="36.0" fill="#000000" transform="matrix(1.00, 0.00, -0.00, -1.00, 173.3, 446.0)"> </text><text xml:space="preserve" font-family="Avenir-Book" font-size="36.0" fill="#000000" transform="matrix(1.00, 0.00, -0.00, -1.00, 183.3, 446.0)">t</text><text xml:space="preserve" font-family="Avenir-Book" font-size="36.0" fill="#000000" transform="matrix(1.00, 0.00, -0.00, -1.00, 195.3, 446.0)">h</text><text xml:space="preserve" font-family="Avenir-Book" font-size="36.0" fill="#000000" transform="matrix(1.00, 0.00, -0.00, -1.00, 215.3, 446.0)">a</text><text xml:space="preserve" font-family="Avenir-Book" font-size="36.0" fill="#000000" transform="matrix(1.00, 0.00, -0.00, -1.00, 234.0, 446.0)">n</text><text xml:space="preserve" font-family="Avenir-Book" font-size="36.0" fill="#000000" transform="matrix(1.00, 0.00, -0.00, -1.00, 254.0, 446.0)"> </text><text xml:space="preserve" font-family="Avenir-Book" font-size="36.0" fill="#000000" transform="matrix(1.00, 0.00, -0.00, -1.00, 264.0, 446.0)">K</text><text xml:space="preserve" font-family="Avenir-Book" font-size="36.0" fill="#000000" transform="matrix(1.00, 0.00, -0.00, -1.00, 286.7, 446.0)">-</text><text xml:space="preserve" font-family="Avenir-Book" font-size="36.0" fill="#000000" transform="matrix(1.00, 0.00, -0.00, -1.00, 298.7, 446.0)">o</text><text xml:space="preserve" font-family="Avenir-Book" font-size="36.0" fill="#000000" transform="matrix(1.00, 0.00, -0.00, -1.00, 320.0, 446.0)">u</text><text xml:space="preserve" font-family="Avenir-Book" font-size="36.0" fill="#000000" transform="matrix(1.00, 0.00, -0.00, -1.00, 340.0, 446.0)">t</text><text xml:space="preserve" font-family="Avenir-Book" font-size="36.0" fill="#000000" transform="matrix(1.00, 0.00, -0.00, -1.00, 352.0, 446.0)">-</text><text xml:space="preserve" font-family="Avenir-Book" font-size="36.0" fill="#000000" transform="matrix(1.00, 0.00, -0.00, -1.00, 364.0, 446.0)">o</text><text xml:space="preserve" font-family="Avenir-Book" font-size="36.0" fill="#000000" transform="matrix(1.00, 0.00, -0.00, -1.00, 385.3, 446.0)">f</text><text xml:space="preserve" font-family="Avenir-Book" font-size="36.0" fill="#000000" transform="matrix(1.00, 0.00, -0.00, -1.00, 396.0, 446.0)">-</text><text xml:space="preserve" font-family="Avenir-Book" font-size="36.0" fill="#000000" transform="matrix(1.00, 0.00, -0.00, -1.00, 408.0, 446.0)">N</text><text xml:space="preserve" font-family="Avenir-Book" font-size="36.0" fill="#000000" transform="matrix(1.00, 0.00, -0.00, -1.00, 436.0, 446.0)"> </text><text xml:space="preserve" font-family="Avenir-Book" font-size="36.0" fill="#000000" transform="matrix(1.00, 0.00, -0.00, -1.00, 446.0, 446.0)">c</text><text xml:space="preserve" font-family="Avenir-Book" font-size="36.0" fill="#000000" transform="matrix(1.00, 0.00, -0.00, -1.00, 463.3, 446.0)">l</text><text xml:space="preserve" font-family="Avenir-Book" font-size="36.0" fill="#000000" transform="matrix(1.00, 0.00, -0.00, -1.00, 472.0, 446.0)">o</text><text xml:space="preserve" font-family="Avenir-Book" font-size="36.0" fill="#000000" transform="matrix(1.00, 0.00, -0.00, -1.00, 493.3, 446.0)">u</text><text xml:space="preserve" font-family="Avenir-Book" font-size="36.0" fill="#000000" transform="matrix(1.00, 0.00, -0.00, -1.00, 513.3, 446.0)">d</text><text xml:space="preserve" font-family="Avenir-Book" font-size="36.0" fill="#000000" transform="matrix(1.00, 0.00, -0.00, -1.00, 535.3, 446.0)"> </text><text xml:space="preserve" font-family="Avenir-Book" font-size="36.0" fill="#000000" transform="matrix(1.00, 0.00, -0.00, -1.00, 545.4, 446.0)">s</text><text xml:space="preserve" font-family="Avenir-Book" font-size="36.0" fill="#000000" transform="matrix(1.00, 0.00, -0.00, -1.00, 560.7, 446.0)">e</text><text xml:space="preserve" font-family="Avenir-Book" font-size="36.0" fill="#000000" transform="matrix(1.00, 0.00, -0.00, -1.00, 580.7, 446.0)">r</text><text xml:space="preserve" font-family="Avenir-Book" font-size="36.0" fill="#000000" transform="matrix(1.00, 0.00, -0.00, -1.00, 592.7, 446.0)">v</text><text xml:space="preserve" font-family="Avenir-Book" font-size="36.0" fill="#000000" transform="matrix(1.00, 0.00, -0.00, -1.00, 610.0, 446.0)">i</text><text xml:space="preserve" font-family="Avenir-Book" font-size="36.0" fill="#000000" transform="matrix(1.00, 0.00, -0.00, -1.00, 618.6, 446.0)">c</text><text xml:space="preserve" font-family="Avenir-Book" font-size="36.0" fill="#000000" transform="matrix(1.00, 0.00, -0.00, -1.00, 636.0, 446.0)">e</text><text xml:space="preserve" font-family="Avenir-Book" font-size="36.0" fill="#000000" transform="matrix(1.00, 0.00, -0.00, -1.00, 656.0, 446.0)">s</text><text xml:space="preserve" font-family="Avenir-Book" font-size="36.0" fill="#000000" transform="matrix(1.00, 0.00, -0.00, -1.00, 671.4, 446.0)"> </text><text xml:space="preserve" font-family="Avenir-Book" font-size="36.0" fill="#000000" transform="matrix(1.00, 0.00, -0.00, -1.00, 681.4, 446.0)">c</text><text xml:space="preserve" font-family="Avenir-Book" font-size="36.0" fill="#000000" transform="matrix(1.00, 0.00, -0.00, -1.00, 698.7, 446.0)">o</text><text xml:space="preserve" font-family="Avenir-Book" font-size="36.0" fill="#000000" transform="matrix(1.00, 0.00, -0.00, -1.00, 720.1, 446.0)">l</text><text xml:space="preserve" font-family="Avenir-Book" font-size="36.0" fill="#000000" transform="matrix(1.00, 0.00, -0.00, -1.00, 728.7, 446.0)">l</text><text xml:space="preserve" font-family="Avenir-Book" font-size="36.0" fill="#000000" transform="matrix(1.00, 0.00, -0.00, -1.00, 737.3, 446.0)">u</text><text xml:space="preserve" font-family="Avenir-Book" font-size="36.0" fill="#000000" transform="matrix(1.00, 0.00, -0.00, -1.00, 757.4, 446.0)">d</text><text xml:space="preserve" font-family="Avenir-Book" font-size="36.0" fill="#000000" transform="matrix(1.00, 0.00, -0.00, -1.00, 779.4, 446.0)">e</text><text xml:space="preserve" font-family="Avenir-Book" font-size="36.0" fill="#000000" transform="matrix(1.00, 0.00, -0.00, -1.00, 799.4, 446.0)"> </text><text xml:space="preserve" font-family="Avenir-Book" font-size="27.0" fill="#000000" transform="matrix(1.00, 0.00, -0.00, -1.00, 79.0, 330.4)">•</text><text xml:space="preserve" font-family="Avenir-Heavy" font-weight="bold" font-size="36.0" fill="#000000" transform="matrix(1.00, 0.00, -0.00, -1.00, 114.0, 328.0)">F</text><text xml:space="preserve" font-family="Avenir-Heavy" font-weight="bold" font-size="36.0" fill="#000000" transform="matrix(1.00, 0.00, -0.00, -1.00, 134.7, 328.0)">a</text><text xml:space="preserve" font-family="Avenir-Heavy" font-weight="bold" font-size="36.0" fill="#000000" transform="matrix(1.00, 0.00, -0.00, -1.00, 154.0, 328.0)">u</text><text xml:space="preserve" font-family="Avenir-Heavy" font-weight="bold" font-size="36.0" fill="#000000" transform="matrix(1.00, 0.00, -0.00, -1.00, 174.7, 328.0)">l</text><text xml:space="preserve" font-family="Avenir-Heavy" font-weight="bold" font-size="36.0" fill="#000000" transform="matrix(1.00, 0.00, -0.00, -1.00, 184.1, 328.0)">t</text><text xml:space="preserve" font-family="Avenir-Heavy" font-weight="bold" font-size="36.0" fill="#000000" transform="matrix(1.00, 0.00, -0.00, -1.00, 198.1, 328.0)">-</text><text xml:space="preserve" font-family="Avenir-Heavy" font-weight="bold" font-size="36.0" fill="#000000" transform="matrix(1.00, 0.00, -0.00, -1.00, 209.4, 328.0)">t</text><text xml:space="preserve" font-family="Avenir-Heavy" font-weight="bold" font-size="36.0" fill="#000000" transform="matrix(1.00, 0.00, -0.00, -1.00, 223.4, 328.0)">o</text><text xml:space="preserve" font-family="Avenir-Heavy" font-weight="bold" font-size="36.0" fill="#000000" transform="matrix(1.00, 0.00, -0.00, -1.00, 245.4, 328.0)">l</text><text xml:space="preserve" font-family="Avenir-Heavy" font-weight="bold" font-size="36.0" fill="#000000" transform="matrix(1.00, 0.00, -0.00, -1.00, 254.7, 328.0)">e</text><text xml:space="preserve" font-family="Avenir-Heavy" font-weight="bold" font-size="36.0" fill="#000000" transform="matrix(1.00, 0.00, -0.00, -1.00, 275.4, 328.0)">r</text><text xml:space="preserve" font-family="Avenir-Heavy" font-weight="bold" font-size="36.0" fill="#000000" transform="matrix(1.00, 0.00, -0.00, -1.00, 289.4, 328.0)">a</text><text xml:space="preserve" font-family="Avenir-Heavy" font-weight="bold" font-size="36.0" fill="#000000" transform="matrix(1.00, 0.00, -0.00, -1.00, 308.7, 328.0)">n</text><text xml:space="preserve" font-family="Avenir-Heavy" font-weight="bold" font-size="36.0" fill="#000000" transform="matrix(1.00, 0.00, -0.00, -1.00, 329.4, 328.0)">c</text><text xml:space="preserve" font-family="Avenir-Heavy" font-weight="bold" font-size="36.0" fill="#000000" transform="matrix(1.00, 0.00, -0.00, -1.00, 346.7, 328.0)">e</text><text xml:space="preserve" font-family="Avenir-Book" font-size="36.0" fill="#000000" transform="matrix(1.00, 0.00, -0.00, -1.00, 367.4, 328.0)"> </text><text xml:space="preserve" font-family="Avenir-Book" font-size="36.0" fill="#000000" transform="matrix(1.00, 0.00, -0.00, -1.00, 377.4, 328.0)">l</text><text xml:space="preserve" font-family="Avenir-Book" font-size="36.0" fill="#000000" transform="matrix(1.00, 0.00, -0.00, -1.00, 386.1, 328.0)">o</text><text xml:space="preserve" font-family="Avenir-Book" font-size="36.0" fill="#000000" transform="matrix(1.00, 0.00, -0.00, -1.00, 407.4, 328.0)">s</text><text xml:space="preserve" font-family="Avenir-Book" font-size="36.0" fill="#000000" transform="matrix(1.00, 0.00, -0.00, -1.00, 422.7, 328.0)">t</text><text xml:space="preserve" font-family="Avenir-Book" font-size="36.0" fill="#000000" transform="matrix(1.00, 0.00, -0.00, -1.00, 434.7, 328.0)"> </text><text xml:space="preserve" font-family="Avenir-Book" font-size="36.0" fill="#000000" transform="matrix(1.00, 0.00, -0.00, -1.00, 444.7, 328.0)">d</text><text xml:space="preserve" font-family="Avenir-Book" font-size="36.0" fill="#000000" transform="matrix(1.00, 0.00, -0.00, -1.00, 466.7, 328.0)">a</text><text xml:space="preserve" font-family="Avenir-Book" font-size="36.0" fill="#000000" transform="matrix(1.00, 0.00, -0.00, -1.00, 485.4, 328.0)">t</text><text xml:space="preserve" font-family="Avenir-Book" font-size="36.0" fill="#000000" transform="matrix(1.00, 0.00, -0.00, -1.00, 497.3, 328.0)">a</text><text xml:space="preserve" font-family="Avenir-Book" font-size="36.0" fill="#000000" transform="matrix(1.00, 0.00, -0.00, -1.00, 516.0, 328.0)"> </text><text xml:space="preserve" font-family="Avenir-Book" font-size="36.0" fill="#000000" transform="matrix(1.00, 0.00, -0.00, -1.00, 526.0, 328.0)">i</text><text xml:space="preserve" font-family="Avenir-Book" font-size="36.0" fill="#000000" transform="matrix(1.00, 0.00, -0.00, -1.00, 534.7, 328.0)">s</text><text xml:space="preserve" font-family="Avenir-Book" font-size="36.0" fill="#000000" transform="matrix(1.00, 0.00, -0.00, -1.00, 550.0, 328.0)"> </text><text xml:space="preserve" font-family="Avenir-Book" font-size="36.0" fill="#000000" transform="matrix(1.00, 0.00, -0.00, -1.00, 560.0, 328.0)">r</text><text xml:space="preserve" font-family="Avenir-Book" font-size="36.0" fill="#000000" transform="matrix(1.00, 0.00, -0.00, -1.00, 571.3, 328.0)">e</text><text xml:space="preserve" font-family="Avenir-Book" font-size="36.0" fill="#000000" transform="matrix(1.00, 0.00, -0.00, -1.00, 591.3, 328.0)">c</text><text xml:space="preserve" font-family="Avenir-Book" font-size="36.0" fill="#000000" transform="matrix(1.00, 0.00, -0.00, -1.00, 608.7, 328.0)">o</text><text xml:space="preserve" font-family="Avenir-Book" font-size="36.0" fill="#000000" transform="matrix(1.00, 0.00, -0.00, -1.00, 630.0, 328.0)">v</text><text xml:space="preserve" font-family="Avenir-Book" font-size="36.0" fill="#000000" transform="matrix(1.00, 0.00, -0.00, -1.00, 647.4, 328.0)">e</text><text xml:space="preserve" font-family="Avenir-Book" font-size="36.0" fill="#000000" transform="matrix(1.00, 0.00, -0.00, -1.00, 667.4, 328.0)">r</text><text xml:space="preserve" font-family="Avenir-Book" font-size="36.0" fill="#000000" transform="matrix(1.00, 0.00, -0.00, -1.00, 679.3, 328.0)">a</text><text xml:space="preserve" font-family="Avenir-Book" font-size="36.0" fill="#000000" transform="matrix(1.00, 0.00, -0.00, -1.00, 698.0, 328.0)">b</text><text xml:space="preserve" font-family="Avenir-Book" font-size="36.0" fill="#000000" transform="matrix(1.00, 0.00, -0.00, -1.00, 720.0, 328.0)">l</text><text xml:space="preserve" font-family="Avenir-Book" font-size="36.0" fill="#000000" transform="matrix(1.00, 0.00, -0.00, -1.00, 728.7, 328.0)">e</text><text xml:space="preserve" font-family="Avenir-Book" font-size="36.0" fill="#000000" transform="matrix(1.00, 0.00, -0.00, -1.00, 748.7, 328.0)"> </text><text xml:space="preserve" font-family="Avenir-Book" font-size="36.0" fill="#000000" transform="matrix(1.00, 0.00, -0.00, -1.00, 758.7, 328.0)">i</text><text xml:space="preserve" font-family="Avenir-Book" font-size="36.0" fill="#000000" transform="matrix(1.00, 0.00, -0.00, -1.00, 767.3, 328.0)">f</text><text xml:space="preserve" font-family="Avenir-Book" font-size="36.0" fill="#000000" transform="matrix(1.00, 0.00, -0.00, -1.00, 778.0, 328.0)"> </text><text xml:space="preserve" font-family="Avenir-Book" font-size="36.0" fill="#000000" transform="matrix(1.00, 0.00, -0.00, -1.00, 788.0, 328.0)">a</text><text xml:space="preserve" font-family="Avenir-Book" font-size="36.0" fill="#000000" transform="matrix(1.00, 0.00, -0.00, -1.00, 806.7, 328.0)">t</text><text xml:space="preserve" font-family="Avenir-Book" font-size="36.0" fill="#000000" transform="matrix(1.00, 0.00, -0.00, -1.00, 818.6, 328.0)"> </text><text xml:space="preserve" font-family="Avenir-Book" font-size="36.0" fill="#000000" transform="matrix(1.00, 0.00, -0.00, -1.00, 828.6, 328.0)">l</text><text xml:space="preserve" font-family="Avenir-Book" font-size="36.0" fill="#000000" transform="matrix(1.00, 0.00, -0.00, -1.00, 837.3, 328.0)">e</text><text xml:space="preserve" font-family="Avenir-Book" font-size="36.0" fill="#000000" transform="matrix(1.00, 0.00, -0.00, -1.00, 857.3, 328.0)">a</text><text xml:space="preserve" font-family="Avenir-Book" font-size="36.0" fill="#000000" transform="matrix(1.00, 0.00, -0.00, -1.00, 876.0, 328.0)">s</text><text xml:space="preserve" font-family="Avenir-Book" font-size="36.0" fill="#000000" transform="matrix(1.00, 0.00, -0.00, -1.00, 891.3, 328.0)">t</text><text xml:space="preserve" font-family="Avenir-Book" font-size="36.0" fill="#000000" transform="matrix(1.00, 0.00, -0.00, -1.00, 903.3, 328.0)"> </text><text xml:space="preserve" font-family="Avenir-Book" font-size="36.0" fill="#000000" transform="matrix(1.00, 0.00, -0.00, -1.00, 114.0, 279.0)">K</text><text xml:space="preserve" font-family="Avenir-Book" font-size="36.0" fill="#000000" transform="matrix(1.00, 0.00, -0.00, -1.00, 136.7, 279.0)">-</text><text xml:space="preserve" font-family="Avenir-Book" font-size="36.0" fill="#000000" transform="matrix(1.00, 0.00, -0.00, -1.00, 148.7, 279.0)">o</text><text xml:space="preserve" font-family="Avenir-Book" font-size="36.0" fill="#000000" transform="matrix(1.00, 0.00, -0.00, -1.00, 170.0, 279.0)">u</text><text xml:space="preserve" font-family="Avenir-Book" font-size="36.0" fill="#000000" transform="matrix(1.00, 0.00, -0.00, -1.00, 190.0, 279.0)">t</text><text xml:space="preserve" font-family="Avenir-Book" font-size="36.0" fill="#000000" transform="matrix(1.00, 0.00, -0.00, -1.00, 202.0, 279.0)">-</text><text xml:space="preserve" font-family="Avenir-Book" font-size="36.0" fill="#000000" transform="matrix(1.00, 0.00, -0.00, -1.00, 214.0, 279.0)">o</text><text xml:space="preserve" font-family="Avenir-Book" font-size="36.0" fill="#000000" transform="matrix(1.00, 0.00, -0.00, -1.00, 235.3, 279.0)">f</text><text xml:space="preserve" font-family="Avenir-Book" font-size="36.0" fill="#000000" transform="matrix(1.00, 0.00, -0.00, -1.00, 246.0, 279.0)">-</text><text xml:space="preserve" font-family="Avenir-Book" font-size="36.0" fill="#000000" transform="matrix(1.00, 0.00, -0.00, -1.00, 258.0, 279.0)">N</text><text xml:space="preserve" font-family="Avenir-Book" font-size="36.0" fill="#000000" transform="matrix(1.00, 0.00, -0.00, -1.00, 286.0, 279.0)"> </text><text xml:space="preserve" font-family="Avenir-Book" font-size="36.0" fill="#000000" transform="matrix(1.00, 0.00, -0.00, -1.00, 296.0, 279.0)">c</text><text xml:space="preserve" font-family="Avenir-Book" font-size="36.0" fill="#000000" transform="matrix(1.00, 0.00, -0.00, -1.00, 313.3, 279.0)">l</text><text xml:space="preserve" font-family="Avenir-Book" font-size="36.0" fill="#000000" transform="matrix(1.00, 0.00, -0.00, -1.00, 322.0, 279.0)">o</text><text xml:space="preserve" font-family="Avenir-Book" font-size="36.0" fill="#000000" transform="matrix(1.00, 0.00, -0.00, -1.00, 343.3, 279.0)">u</text><text xml:space="preserve" font-family="Avenir-Book" font-size="36.0" fill="#000000" transform="matrix(1.00, 0.00, -0.00, -1.00, 363.3, 279.0)">d</text><text xml:space="preserve" font-family="Avenir-Book" font-size="36.0" fill="#000000" transform="matrix(1.00, 0.00, -0.00, -1.00, 385.3, 279.0)"> </text><text xml:space="preserve" font-family="Avenir-Book" font-size="36.0" fill="#000000" transform="matrix(1.00, 0.00, -0.00, -1.00, 395.3, 279.0)">s</text><text xml:space="preserve" font-family="Avenir-Book" font-size="36.0" fill="#000000" transform="matrix(1.00, 0.00, -0.00, -1.00, 410.7, 279.0)">e</text><text xml:space="preserve" font-family="Avenir-Book" font-size="36.0" fill="#000000" transform="matrix(1.00, 0.00, -0.00, -1.00, 430.7, 279.0)">r</text><text xml:space="preserve" font-family="Avenir-Book" font-size="36.0" fill="#000000" transform="matrix(1.00, 0.00, -0.00, -1.00, 442.6, 279.0)">v</text><text xml:space="preserve" font-family="Avenir-Book" font-size="36.0" fill="#000000" transform="matrix(1.00, 0.00, -0.00, -1.00, 460.0, 279.0)">i</text><text xml:space="preserve" font-family="Avenir-Book" font-size="36.0" fill="#000000" transform="matrix(1.00, 0.00, -0.00, -1.00, 468.6, 279.0)">c</text><text xml:space="preserve" font-family="Avenir-Book" font-size="36.0" fill="#000000" transform="matrix(1.00, 0.00, -0.00, -1.00, 486.0, 279.0)">e</text><text xml:space="preserve" font-family="Avenir-Book" font-size="36.0" fill="#000000" transform="matrix(1.00, 0.00, -0.00, -1.00, 506.0, 279.0)">s</text><text xml:space="preserve" font-family="Avenir-Book" font-size="36.0" fill="#000000" transform="matrix(1.00, 0.00, -0.00, -1.00, 521.3, 279.0)"> </text><text xml:space="preserve" font-family="Avenir-Book" font-size="36.0" fill="#000000" transform="matrix(1.00, 0.00, -0.00, -1.00, 531.3, 279.0)">a</text><text xml:space="preserve" font-family="Avenir-Book" font-size="36.0" fill="#000000" transform="matrix(1.00, 0.00, -0.00, -1.00, 550.0, 279.0)">v</text><text xml:space="preserve" font-family="Avenir-Book" font-size="36.0" fill="#000000" transform="matrix(1.00, 0.00, -0.00, -1.00, 567.4, 279.0)">a</text><text xml:space="preserve" font-family="Avenir-Book" font-size="36.0" fill="#000000" transform="matrix(1.00, 0.00, -0.00, -1.00, 586.1, 279.0)">i</text><text xml:space="preserve" font-family="Avenir-Book" font-size="36.0" fill="#000000" transform="matrix(1.00, 0.00, -0.00, -1.00, 594.7, 279.0)">l</text><text xml:space="preserve" font-family="Avenir-Book" font-size="36.0" fill="#000000" transform="matrix(1.00, 0.00, -0.00, -1.00, 603.3, 279.0)">a</text><text xml:space="preserve" font-family="Avenir-Book" font-size="36.0" fill="#000000" transform="matrix(1.00, 0.00, -0.00, -1.00, 622.0, 279.0)">b</text><text xml:space="preserve" font-family="Avenir-Book" font-size="36.0" fill="#000000" transform="matrix(1.00, 0.00, -0.00, -1.00, 644.0, 279.0)">l</text><text xml:space="preserve" font-family="Avenir-Book" font-size="36.0" fill="#000000" transform="matrix(1.00, 0.00, -0.00, -1.00, 652.7, 279.0)">e</text><text xml:space="preserve" font-family="Avenir-Book" font-size="36.0" fill="#000000" transform="matrix(1.00, 0.00, -0.00, -1.00, 672.7, 279.0)"> </text><text xml:space="preserve" font-family="Avenir-Book" font-size="27.0" fill="#000000" transform="matrix(1.00, 0.00, -0.00, -1.00, 79.0, 163.4)">•</text><text xml:space="preserve" font-family="Avenir-Heavy" font-weight="bold" font-size="36.0" fill="#000000" transform="matrix(1.00, 0.00, -0.00, -1.00, 114.0, 161.0)">I</text><text xml:space="preserve" font-family="Avenir-Heavy" font-weight="bold" font-size="36.0" fill="#000000" transform="matrix(1.00, 0.00, -0.00, -1.00, 124.0, 161.0)">n</text><text xml:space="preserve" font-family="Avenir-Heavy" font-weight="bold" font-size="36.0" fill="#000000" transform="matrix(1.00, 0.00, -0.00, -1.00, 144.7, 161.0)">t</text><text xml:space="preserve" font-family="Avenir-Heavy" font-weight="bold" font-size="36.0" fill="#000000" transform="matrix(1.00, 0.00, -0.00, -1.00, 158.7, 161.0)">e</text><text xml:space="preserve" font-family="Avenir-Heavy" font-weight="bold" font-size="36.0" fill="#000000" transform="matrix(1.00, 0.00, -0.00, -1.00, 179.3, 161.0)">g</text><text xml:space="preserve" font-family="Avenir-Heavy" font-weight="bold" font-size="36.0" fill="#000000" transform="matrix(1.00, 0.00, -0.00, -1.00, 202.0, 161.0)">r</text><text xml:space="preserve" font-family="Avenir-Heavy" font-weight="bold" font-size="36.0" fill="#000000" transform="matrix(1.00, 0.00, -0.00, -1.00, 216.0, 161.0)">i</text><text xml:space="preserve" font-family="Avenir-Heavy" font-weight="bold" font-size="36.0" fill="#000000" transform="matrix(1.00, 0.00, -0.00, -1.00, 225.4, 161.0)">t</text><text xml:space="preserve" font-family="Avenir-Heavy" font-weight="bold" font-size="36.0" fill="#000000" transform="matrix(1.00, 0.00, -0.00, -1.00, 239.4, 161.0)">y</text><text xml:space="preserve" font-family="Avenir-Book" font-size="36.0" fill="#000000" transform="matrix(1.00, 0.00, -0.00, -1.00, 258.1, 161.0)"> </text><text xml:space="preserve" font-family="Avenir-Book" font-size="36.0" fill="#000000" transform="matrix(1.00, 0.00, -0.00, -1.00, 268.1, 161.0)">o</text><text xml:space="preserve" font-family="Avenir-Book" font-size="36.0" fill="#000000" transform="matrix(1.00, 0.00, -0.00, -1.00, 289.4, 161.0)">f</text><text xml:space="preserve" font-family="Avenir-Book" font-size="36.0" fill="#000000" transform="matrix(1.00, 0.00, -0.00, -1.00, 300.1, 161.0)"> </text><text xml:space="preserve" font-family="Avenir-Book" font-size="36.0" fill="#000000" transform="matrix(1.00, 0.00, -0.00, -1.00, 310.1, 161.0)">d</text><text xml:space="preserve" font-family="Avenir-Book" font-size="36.0" fill="#000000" transform="matrix(1.00, 0.00, -0.00, -1.00, 332.1, 161.0)">a</text><text xml:space="preserve" font-family="Avenir-Book" font-size="36.0" fill="#000000" transform="matrix(1.00, 0.00, -0.00, -1.00, 350.8, 161.0)">t</text><text xml:space="preserve" font-family="Avenir-Book" font-size="36.0" fill="#000000" transform="matrix(1.00, 0.00, -0.00, -1.00, 362.7, 161.0)">a</text><text xml:space="preserve" font-family="Avenir-Book" font-size="36.0" fill="#000000" transform="matrix(1.00, 0.00, -0.00, -1.00, 381.4, 161.0)"> </text><text xml:space="preserve" font-family="Avenir-Book" font-size="36.0" fill="#000000" transform="matrix(1.00, 0.00, -0.00, -1.00, 391.4, 161.0)">i</text><text xml:space="preserve" font-family="Avenir-Book" font-size="36.0" fill="#000000" transform="matrix(1.00, 0.00, -0.00, -1.00, 400.1, 161.0)">f</text><text xml:space="preserve" font-family="Avenir-Book" font-size="36.0" fill="#000000" transform="matrix(1.00, 0.00, -0.00, -1.00, 410.7, 161.0)"> </text><text xml:space="preserve" font-family="Avenir-Book" font-size="36.0" fill="#000000" transform="matrix(1.00, 0.00, -0.00, -1.00, 420.7, 161.0)">a</text><text xml:space="preserve" font-family="Avenir-Book" font-size="36.0" fill="#000000" transform="matrix(1.00, 0.00, -0.00, -1.00, 439.4, 161.0)">t</text><text xml:space="preserve" font-family="Avenir-Book" font-size="36.0" fill="#000000" transform="matrix(1.00, 0.00, -0.00, -1.00, 451.4, 161.0)"> </text><text xml:space="preserve" font-family="Avenir-Book" font-size="36.0" fill="#000000" transform="matrix(1.00, 0.00, -0.00, -1.00, 461.4, 161.0)">l</text><text xml:space="preserve" font-family="Avenir-Book" font-size="36.0" fill="#000000" transform="matrix(1.00, 0.00, -0.00, -1.00, 470.0, 161.0)">e</text><text xml:space="preserve" font-family="Avenir-Book" font-size="36.0" fill="#000000" transform="matrix(1.00, 0.00, -0.00, -1.00, 490.0, 161.0)">a</text><text xml:space="preserve" font-family="Avenir-Book" font-size="36.0" fill="#000000" transform="matrix(1.00, 0.00, -0.00, -1.00, 508.7, 161.0)">s</text><text xml:space="preserve" font-family="Avenir-Book" font-size="36.0" fill="#000000" transform="matrix(1.00, 0.00, -0.00, -1.00, 524.0, 161.0)">t</text><text xml:space="preserve" font-family="Avenir-Book" font-size="36.0" fill="#000000" transform="matrix(1.00, 0.00, -0.00, -1.00, 536.0, 161.0)"> </text><text xml:space="preserve" font-family="Avenir-Book" font-size="36.0" fill="#000000" transform="matrix(1.00, 0.00, -0.00, -1.00, 546.0, 161.0)">K</text><text xml:space="preserve" font-family="Avenir-Book" font-size="36.0" fill="#000000" transform="matrix(1.00, 0.00, -0.00, -1.00, 568.7, 161.0)">-</text><text xml:space="preserve" font-family="Avenir-Book" font-size="36.0" fill="#000000" transform="matrix(1.00, 0.00, -0.00, -1.00, 580.7, 161.0)">o</text><text xml:space="preserve" font-family="Avenir-Book" font-size="36.0" fill="#000000" transform="matrix(1.00, 0.00, -0.00, -1.00, 602.0, 161.0)">u</text><text xml:space="preserve" font-family="Avenir-Book" font-size="36.0" fill="#000000" transform="matrix(1.00, 0.00, -0.00, -1.00, 622.0, 161.0)">t</text><text xml:space="preserve" font-family="Avenir-Book" font-size="36.0" fill="#000000" transform="matrix(1.00, 0.00, -0.00, -1.00, 634.0, 161.0)">-</text><text xml:space="preserve" font-family="Avenir-Book" font-size="36.0" fill="#000000" transform="matrix(1.00, 0.00, -0.00, -1.00, 646.0, 161.0)">o</text><text xml:space="preserve" font-family="Avenir-Book" font-size="36.0" fill="#000000" transform="matrix(1.00, 0.00, -0.00, -1.00, 667.3, 161.0)">f</text><text xml:space="preserve" font-family="Avenir-Book" font-size="36.0" fill="#000000" transform="matrix(1.00, 0.00, -0.00, -1.00, 678.0, 161.0)">-</text><text xml:space="preserve" font-family="Avenir-Book" font-size="36.0" fill="#000000" transform="matrix(1.00, 0.00, -0.00, -1.00, 690.0, 161.0)">N</text><text xml:space="preserve" font-family="Avenir-Book" font-size="36.0" fill="#000000" transform="matrix(1.00, 0.00, -0.00, -1.00, 718.0, 161.0)"> </text><text xml:space="preserve" font-family="Avenir-Book" font-size="36.0" fill="#000000" transform="matrix(1.00, 0.00, -0.00, -1.00, 728.0, 161.0)">c</text><text xml:space="preserve" font-family="Avenir-Book" font-size="36.0" fill="#000000" transform="matrix(1.00, 0.00, -0.00, -1.00, 745.3, 161.0)">l</text><text xml:space="preserve" font-family="Avenir-Book" font-size="36.0" fill="#000000" transform="matrix(1.00, 0.00, -0.00, -1.00, 754.0, 161.0)">o</text><text xml:space="preserve" font-family="Avenir-Book" font-size="36.0" fill="#000000" transform="matrix(1.00, 0.00, -0.00, -1.00, 775.3, 161.0)">u</text><text xml:space="preserve" font-family="Avenir-Book" font-size="36.0" fill="#000000" transform="matrix(1.00, 0.00, -0.00, -1.00, 795.3, 161.0)">d</text><text xml:space="preserve" font-family="Avenir-Book" font-size="36.0" fill="#000000" transform="matrix(1.00, 0.00, -0.00, -1.00, 817.3, 161.0)"> </text><text xml:space="preserve" font-family="Avenir-Book" font-size="36.0" fill="#000000" transform="matrix(1.00, 0.00, -0.00, -1.00, 114.0, 112.0)">s</text><text xml:space="preserve" font-family="Avenir-Book" font-size="36.0" fill="#000000" transform="matrix(1.00, 0.00, -0.00, -1.00, 129.3, 112.0)">e</text><text xml:space="preserve" font-family="Avenir-Book" font-size="36.0" fill="#000000" transform="matrix(1.00, 0.00, -0.00, -1.00, 149.4, 112.0)">r</text><text xml:space="preserve" font-family="Avenir-Book" font-size="36.0" fill="#000000" transform="matrix(1.00, 0.00, -0.00, -1.00, 161.3, 112.0)">v</text><text xml:space="preserve" font-family="Avenir-Book" font-size="36.0" fill="#000000" transform="matrix(1.00, 0.00, -0.00, -1.00, 178.7, 112.0)">i</text><text xml:space="preserve" font-family="Avenir-Book" font-size="36.0" fill="#000000" transform="matrix(1.00, 0.00, -0.00, -1.00, 187.3, 112.0)">c</text><text xml:space="preserve" font-family="Avenir-Book" font-size="36.0" fill="#000000" transform="matrix(1.00, 0.00, -0.00, -1.00, 204.6, 112.0)">e</text><text xml:space="preserve" font-family="Avenir-Book" font-size="36.0" fill="#000000" transform="matrix(1.00, 0.00, -0.00, -1.00, 224.7, 112.0)">s</text><text xml:space="preserve" font-family="Avenir-Book" font-size="36.0" fill="#000000" transform="matrix(1.00, 0.00, -0.00, -1.00, 240.0, 112.0)"> </text><text xml:space="preserve" font-family="Avenir-Book" font-size="36.0" fill="#000000" transform="matrix(1.00, 0.00, -0.00, -1.00, 250.0, 112.0)">a</text><text xml:space="preserve" font-family="Avenir-Book" font-size="36.0" fill="#000000" transform="matrix(1.00, 0.00, -0.00, -1.00, 268.7, 112.0)">r</text><text xml:space="preserve" font-family="Avenir-Book" font-size="36.0" fill="#000000" transform="matrix(1.00, 0.00, -0.00, -1.00, 280.0, 112.0)">e</text><text xml:space="preserve" font-family="Avenir-Book" font-size="36.0" fill="#000000" transform="matrix(1.00, 0.00, -0.00, -1.00, 300.0, 112.0)"> </text><text xml:space="preserve" font-family="Avenir-Book" font-size="36.0" fill="#000000" transform="matrix(1.00, 0.00, -0.00, -1.00, 310.0, 112.0)">h</text><text xml:space="preserve" font-family="Avenir-Book" font-size="36.0" fill="#000000" transform="matrix(1.00, 0.00, -0.00, -1.00, 330.0, 112.0)">o</text><text xml:space="preserve" font-family="Avenir-Book" font-size="36.0" fill="#000000" transform="matrix(1.00, 0.00, -0.00, -1.00, 351.4, 112.0)">n</text><text xml:space="preserve" font-family="Avenir-Book" font-size="36.0" fill="#000000" transform="matrix(1.00, 0.00, -0.00, -1.00, 371.4, 112.0)">e</text><text xml:space="preserve" font-family="Avenir-Book" font-size="36.0" fill="#000000" transform="matrix(1.00, 0.00, -0.00, -1.00, 391.4, 112.0)">s</text><text xml:space="preserve" font-family="Avenir-Book" font-size="36.0" fill="#000000" transform="matrix(1.00, 0.00, -0.00, -1.00, 406.8, 112.0)">t</text><text xml:space="preserve" font-family="Avenir-Book" font-size="36.0" fill="#000000" transform="matrix(1.00, 0.00, -0.00, -1.00, 418.7, 112.0)"> </text><text xml:space="preserve" font-family="Avenir-Book" font-size="36.0" fill="#000000" transform="matrix(1.00, 0.00, -0.00, -1.00, 428.7, 112.0)">(</text><text xml:space="preserve" font-family="Avenir-Book" font-size="36.0" fill="#000000" transform="matrix(1.00, 0.00, -0.00, -1.00, 438.1, 112.0)">a</text><text xml:space="preserve" font-family="Avenir-Book" font-size="36.0" fill="#000000" transform="matrix(1.00, 0.00, -0.00, -1.00, 456.8, 112.0)">c</text><text xml:space="preserve" font-family="Avenir-Book" font-size="36.0" fill="#000000" transform="matrix(1.00, 0.00, -0.00, -1.00, 474.1, 112.0)">h</text><text xml:space="preserve" font-family="Avenir-Book" font-size="36.0" fill="#000000" transform="matrix(1.00, 0.00, -0.00, -1.00, 494.1, 112.0)">i</text><text xml:space="preserve" font-family="Avenir-Book" font-size="36.0" fill="#000000" transform="matrix(1.00, 0.00, -0.00, -1.00, 502.8, 112.0)">e</text><text xml:space="preserve" font-family="Avenir-Book" font-size="36.0" fill="#000000" transform="matrix(1.00, 0.00, -0.00, -1.00, 522.8, 112.0)">v</text><text xml:space="preserve" font-family="Avenir-Book" font-size="36.0" fill="#000000" transform="matrix(1.00, 0.00, -0.00, -1.00, 540.1, 112.0)">e</text><text xml:space="preserve" font-family="Avenir-Book" font-size="36.0" fill="#000000" transform="matrix(1.00, 0.00, -0.00, -1.00, 560.1, 112.0)">d</text><text xml:space="preserve" font-family="Avenir-Book" font-size="36.0" fill="#000000" transform="matrix(1.00, 0.00, -0.00, -1.00, 582.1, 112.0)"> </text><text xml:space="preserve" font-family="Avenir-Book" font-size="36.0" fill="#000000" transform="matrix(1.00, 0.00, -0.00, -1.00, 592.2, 112.0)">b</text><text xml:space="preserve" font-family="Avenir-Book" font-size="36.0" fill="#000000" transform="matrix(1.00, 0.00, -0.00, -1.00, 614.1, 112.0)">y</text><text xml:space="preserve" font-family="Avenir-Book" font-size="36.0" fill="#000000" transform="matrix(1.00, 0.00, -0.00, -1.00, 631.5, 112.0)"> </text><text xml:space="preserve" font-family="Avenir-Book" font-size="36.0" fill="#000000" transform="matrix(1.00, 0.00, -0.00, -1.00, 641.5, 112.0)">t</text><text xml:space="preserve" font-family="Avenir-Book" font-size="36.0" fill="#000000" transform="matrix(1.00, 0.00, -0.00, -1.00, 653.5, 112.0)">a</text><text xml:space="preserve" font-family="Avenir-Book" font-size="36.0" fill="#000000" transform="matrix(1.00, 0.00, -0.00, -1.00, 672.1, 112.0)">k</text><text xml:space="preserve" font-family="Avenir-Book" font-size="36.0" fill="#000000" transform="matrix(1.00, 0.00, -0.00, -1.00, 689.5, 112.0)">i</text><text xml:space="preserve" font-family="Avenir-Book" font-size="36.0" fill="#000000" transform="matrix(1.00, 0.00, -0.00, -1.00, 698.1, 112.0)">n</text><text xml:space="preserve" font-family="Avenir-Book" font-size="36.0" fill="#000000" transform="matrix(1.00, 0.00, -0.00, -1.00, 718.2, 112.0)">g</text><text xml:space="preserve" font-family="Avenir-Book" font-size="36.0" fill="#000000" transform="matrix(1.00, 0.00, -0.00, -1.00, 740.1, 112.0)"> </text><text xml:space="preserve" font-family="Avenir-Book" font-size="36.0" fill="#000000" transform="matrix(1.00, 0.00, -0.00, -1.00, 750.2, 112.0)">m</text><text xml:space="preserve" font-family="Avenir-Book" font-size="36.0" fill="#000000" transform="matrix(1.00, 0.00, -0.00, -1.00, 780.8, 112.0)">a</text><text xml:space="preserve" font-family="Avenir-Book" font-size="36.0" fill="#000000" transform="matrix(1.00, 0.00, -0.00, -1.00, 799.5, 112.0)">j</text><text xml:space="preserve" font-family="Avenir-Book" font-size="36.0" fill="#000000" transform="matrix(1.00, 0.00, -0.00, -1.00, 808.2, 112.0)">o</text><text xml:space="preserve" font-family="Avenir-Book" font-size="36.0" fill="#000000" transform="matrix(1.00, 0.00, -0.00, -1.00, 829.5, 112.0)">r</text><text xml:space="preserve" font-family="Avenir-Book" font-size="36.0" fill="#000000" transform="matrix(1.00, 0.00, -0.00, -1.00, 841.5, 112.0)">i</text><text xml:space="preserve" font-family="Avenir-Book" font-size="36.0" fill="#000000" transform="matrix(1.00, 0.00, -0.00, -1.00, 850.1, 112.0)">t</text><text xml:space="preserve" font-family="Avenir-Book" font-size="36.0" fill="#000000" transform="matrix(1.00, 0.00, -0.00, -1.00, 862.0, 112.0)">y</text><text xml:space="preserve" font-family="Avenir-Book" font-size="36.0" fill="#000000" transform="matrix(1.00, 0.00, -0.00, -1.00, 879.4, 112.0)">)</text></g></svg>