<?xml version="1.0" encoding="UTF-8" standalone="no"?><svg xmlns="http://www.w3.org/2000/svg" xmlns:xlink="http://www.w3.org/1999/xlink" clip-rule="evenodd" stroke-miterlimit="4.00" viewBox="0 0 859 138"><desc>SVG generated by Keynote</desc><defs></defs><g transform="matrix(1.00, 0.00, -0.00, -1.00, 0.0, 138.0)"><text xml:space="preserve" font-family="Avenir-Book" font-size="59.2" fill="#000000" transform="matrix(1.00, 0.00, -0.00, -1.00, 2.0, 92.0)">V</text><text xml:space="preserve" font-family="Avenir-Book" font-size="59.2" fill="#000000" transform="matrix(1.00, 0.00, -0.00, -1.00, 36.0, 92.0)">u</text><text xml:space="preserve" font-family="Avenir-Book" font-size="59.2" fill="#000000" transform="matrix(1.00, 0.00, -0.00, -1.00, 68.9, 92.0)">l</text><text xml:space="preserve" font-family="Avenir-Book" font-size="59.2" fill="#000000" transform="matrix(1.00, 0.00, -0.00, -1.00, 83.1, 92.0)">n</text><text xml:space="preserve" font-family="Avenir-Book" font-size="59.2" fill="#000000" transform="matrix(1.00, 0.00, -0.00, -1.00, 116.0, 92.0)">e</text><text xml:space="preserve" font-family="Avenir-Book" font-size="59.2" fill="#000000" transform="matrix(1.00, 0.00, -0.00, -1.00, 148.9, 92.0)">r</text><text xml:space="preserve" font-family="Avenir-Book" font-size="59.2" fill="#000000" transform="matrix(1.00, 0.00, -0.00, -1.00, 168.6, 92.0)">a</text><text xml:space="preserve" font-family="Avenir-Book" font-size="59.2" fill="#000000" transform="matrix(1.00, 0.00, -0.00, -1.00, 199.3, 92.0)">b</text><text xml:space="preserve" font-family="Avenir-Book" font-size="59.2" fill="#000000" transform="matrix(1.00, 0.00, -0.00, -1.00, 235.5, 92.0)">i</text><text xml:space="preserve" font-family="Avenir-Book" font-size="59.2" fill="#000000" transform="matrix(1.00, 0.00, -0.00, -1.00, 249.7, 92.0)">l</text><text xml:space="preserve" font-family="Avenir-Book" font-size="59.2" fill="#000000" transform="matrix(1.00, 0.00, -0.00, -1.00, 263.9, 92.0)">i</text><text xml:space="preserve" font-family="Avenir-Book" font-size="59.2" fill="#000000" transform="matrix(1.00, 0.00, -0.00, -1.00, 278.1, 92.0)">t</text><text xml:space="preserve" font-family="Avenir-Book" font-size="59.2" fill="#000000" transform="matrix(1.00, 0.00, -0.00, -1.00, 297.8, 92.0)">i</text><text xml:space="preserve" font-family="Avenir-Book" font-size="59.2" fill="#000000" transform="matrix(1.00, 0.00, -0.00, -1.00, 312.0, 92.0)">e</text><text xml:space="preserve" font-family="Avenir-Book" font-size="59.2" fill="#000000" transform="matrix(1.00, 0.00, -0.00, -1.00, 344.9, 92.0)">s</text><text xml:space="preserve" font-family="Avenir-Book" font-size="59.2" fill="#000000" transform="matrix(1.00, 0.00, -0.00, -1.00, 370.1, 92.0)"> </text><text xml:space="preserve" font-family="Avenir-Book" font-size="59.2" fill="#000000" transform="matrix(1.00, 0.00, -0.00, -1.00, 2.0, 11.0)">(</text><text xml:space="preserve" font-family="Avenir-Book" font-size="59.2" fill="#000000" transform="matrix(1.00, 0.00, -0.00, -1.00, 17.4, 11.0)">&amp;</text><text xml:space="preserve" font-family="Avenir-Book" font-size="59.2" fill="#000000" transform="matrix(1.00, 0.00, -0.00, -1.00, 59.1, 11.0)"> </text><text xml:space="preserve" font-family="Avenir-Book" font-size="59.2" fill="#000000" transform="matrix(1.00, 0.00, -0.00, -1.00, 75.5, 11.0)">h</text><text xml:space="preserve" font-family="Avenir-Book" font-size="59.2" fill="#000000" transform="matrix(1.00, 0.00, -0.00, -1.00, 108.4, 11.0)">o</text><text xml:space="preserve" font-family="Avenir-Book" font-size="59.2" fill="#000000" transform="matrix(1.00, 0.00, -0.00, -1.00, 143.5, 11.0)">w</text><text xml:space="preserve" font-family="Avenir-Book" font-size="59.2" fill="#000000" transform="matrix(1.00, 0.00, -0.00, -1.00, 186.3, 11.0)"> </text><text xml:space="preserve" font-family="Avenir-Book" font-size="59.2" fill="#000000" transform="matrix(1.00, 0.00, -0.00, -1.00, 202.7, 11.0)">w</text><text xml:space="preserve" font-family="Avenir-Book" font-size="59.2" fill="#000000" transform="matrix(1.00, 0.00, -0.00, -1.00, 245.5, 11.0)">e</text><text xml:space="preserve" font-family="Avenir-Book" font-size="59.2" fill="#000000" transform="matrix(1.00, 0.00, -0.00, -1.00, 278.4, 11.0)"> </text><text xml:space="preserve" font-family="Avenir-Book" font-size="59.2" fill="#000000" transform="matrix(1.00, 0.00, -0.00, -1.00, 294.9, 11.0)">c</text><text xml:space="preserve" font-family="Avenir-Book" font-size="59.2" fill="#000000" transform="matrix(1.00, 0.00, -0.00, -1.00, 323.4, 11.0)">a</text><text xml:space="preserve" font-family="Avenir-Book" font-size="59.2" fill="#000000" transform="matrix(1.00, 0.00, -0.00, -1.00, 354.1, 11.0)">n</text><text xml:space="preserve" font-family="Avenir-Book" font-size="59.2" fill="#000000" transform="matrix(1.00, 0.00, -0.00, -1.00, 387.0, 11.0)"> </text><text xml:space="preserve" font-family="Avenir-Book" font-size="59.2" fill="#000000" transform="matrix(1.00, 0.00, -0.00, -1.00, 403.5, 11.0)">f</text><text xml:space="preserve" font-family="Avenir-Book" font-size="59.2" fill="#000000" transform="matrix(1.00, 0.00, -0.00, -1.00, 421.0, 11.0)">i</text><text xml:space="preserve" font-family="Avenir-Book" font-size="59.2" fill="#000000" transform="matrix(1.00, 0.00, -0.00, -1.00, 435.2, 11.0)">x</text><text xml:space="preserve" font-family="Avenir-Book" font-size="59.2" fill="#000000" transform="matrix(1.00, 0.00, -0.00, -1.00, 463.8, 11.0)"> </text><text xml:space="preserve" font-family="Avenir-Book" font-size="59.2" fill="#000000" transform="matrix(1.00, 0.00, -0.00, -1.00, 480.2, 11.0)">s</text><text xml:space="preserve" font-family="Avenir-Book" font-size="59.2" fill="#000000" transform="matrix(1.00, 0.00, -0.00, -1.00, 505.4, 11.0)">o</text><text xml:space="preserve" font-family="Avenir-Book" font-size="59.2" fill="#000000" transform="matrix(1.00, 0.00, -0.00, -1.00, 540.5, 11.0)">m</text><text xml:space="preserve" font-family="Avenir-Book" font-size="59.2" fill="#000000" transform="matrix(1.00, 0.00, -0.00, -1.00, 591.0, 11.0)">e</text><text xml:space="preserve" font-family="Avenir-Book" font-size="59.2" fill="#000000" transform="matrix(1.00, 0.00, -0.00, -1.00, 623.9, 11.0)"> </text><text xml:space="preserve" font-family="Avenir-Book" font-size="59.2" fill="#000000" transform="matrix(1.00, 0.00, -0.00, -1.00, 640.4, 11.0)">o</text><text xml:space="preserve" font-family="Avenir-Book" font-size="59.2" fill="#000000" transform="matrix(1.00, 0.00, -0.00, -1.00, 675.5, 11.0)">f</text><text xml:space="preserve" font-family="Avenir-Book" font-size="59.2" fill="#000000" transform="matrix(1.00, 0.00, -0.00, -1.00, 693.0, 11.0)"> </text><text xml:space="preserve" font-family="Avenir-Book" font-size="59.2" fill="#000000" transform="matrix(1.00, 0.00, -0.00, -1.00, 709.4, 11.0)">t</text><text xml:space="preserve" font-family="Avenir-Book" font-size="59.2" fill="#000000" transform="matrix(1.00, 0.00, -0.00, -1.00, 729.1, 11.0)">h</text><text xml:space="preserve" font-family="Avenir-Book" font-size="59.2" fill="#000000" transform="matrix(1.00, 0.00, -0.00, -1.00, 762.0, 11.0)">e</text><text xml:space="preserve" font-family="Avenir-Book" font-size="59.2" fill="#000000" transform="matrix(1.00, 0.00, -0.00, -1.00, 794.9, 11.0)">m</text><text xml:space="preserve" font-family="Avenir-Book" font-size="59.2" fill="#000000" transform="matrix(1.00, 0.00, -0.00, -1.00, 845.4, 11.0)">)</text></g></svg>