<?xml version="1.0" encoding="UTF-8" standalone="no"?><svg xmlns="http://www.w3.org/2000/svg" xmlns:xlink="http://www.w3.org/1999/xlink" clip-rule="evenodd" stroke-miterlimit="4.00" viewBox="0 0 394 32"><desc>SVG generated by Keynote</desc><defs></defs><g transform="matrix(1.00, 0.00, -0.00, -1.00, 0.0, 32.0)"><image xlink:href="2C545037DF77104BCCE438B38D0F7BC8.png" width="23.00" height="23.00" transform="matrix(0.96, 0.00, -0.00, -0.96, 0.6, 24.8)"></image><text xml:space="preserve" font-family="Avenir-Heavy" font-weight="bold" font-size="36.0" fill="#000000" transform="matrix(1.00, 0.00, -0.00, -1.00, 36.0, 2.0)">U</text><text xml:space="preserve" font-family="Avenir-Heavy" font-weight="bold" font-size="36.0" fill="#000000" transform="matrix(1.00, 0.00, -0.00, -1.00, 62.0, 2.0)">s</text><text xml:space="preserve" font-family="Avenir-Heavy" font-weight="bold" font-size="36.0" fill="#000000" transform="matrix(1.00, 0.00, -0.00, -1.00, 78.0, 2.0)">e</text><text xml:space="preserve" font-family="Avenir-Heavy" font-weight="bold" font-size="36.0" fill="#000000" transform="matrix(1.00, 0.00, -0.00, -1.00, 98.6, 2.0)"> </text><text xml:space="preserve" font-family="Avenir-Heavy" font-weight="bold" font-size="36.0" fill="#000000" transform="matrix(1.00, 0.00, -0.00, -1.00, 109.3, 2.0)">ï¬</text><text xml:space="preserve" font-family="Avenir-Heavy" font-weight="bold" font-size="36.0" fill="#000000" transform="matrix(1.00, 0.00, -0.00, -1.00, 130.6, 2.0)">x</text><text xml:space="preserve" font-family="Avenir-Heavy" font-weight="bold" font-size="36.0" fill="#000000" transform="matrix(1.00, 0.00, -0.00, -1.00, 150.0, 2.0)">e</text><text xml:space="preserve" font-family="Avenir-Heavy" font-weight="bold" font-size="36.0" fill="#000000" transform="matrix(1.00, 0.00, -0.00, -1.00, 170.6, 2.0)">d</text><text xml:space="preserve" font-family="Avenir-Heavy" font-weight="bold" font-size="36.0" fill="#000000" transform="matrix(1.00, 0.00, -0.00, -1.00, 193.3, 2.0)"> </text><text xml:space="preserve" font-family="Avenir-Heavy" font-weight="bold" font-size="36.0" fill="#000000" transform="matrix(1.00, 0.00, -0.00, -1.00, 204.0, 2.0)">s</text><text xml:space="preserve" font-family="Avenir-Heavy" font-weight="bold" font-size="36.0" fill="#000000" transform="matrix(1.00, 0.00, -0.00, -1.00, 220.0, 2.0)">i</text><text xml:space="preserve" font-family="Avenir-Heavy" font-weight="bold" font-size="36.0" fill="#000000" transform="matrix(1.00, 0.00, -0.00, -1.00, 229.3, 2.0)">z</text><text xml:space="preserve" font-family="Avenir-Heavy" font-weight="bold" font-size="36.0" fill="#000000" transform="matrix(1.00, 0.00, -0.00, -1.00, 246.7, 2.0)">e</text><text xml:space="preserve" font-family="Avenir-Heavy" font-weight="bold" font-size="36.0" fill="#000000" transform="matrix(1.00, 0.00, -0.00, -1.00, 267.3, 2.0)"> </text><text xml:space="preserve" font-family="Avenir-Heavy" font-weight="bold" font-size="36.0" fill="#000000" transform="matrix(1.00, 0.00, -0.00, -1.00, 278.0, 2.0)">b</text><text xml:space="preserve" font-family="Avenir-Heavy" font-weight="bold" font-size="36.0" fill="#000000" transform="matrix(1.00, 0.00, -0.00, -1.00, 300.7, 2.0)">l</text><text xml:space="preserve" font-family="Avenir-Heavy" font-weight="bold" font-size="36.0" fill="#000000" transform="matrix(1.00, 0.00, -0.00, -1.00, 310.0, 2.0)">o</text><text xml:space="preserve" font-family="Avenir-Heavy" font-weight="bold" font-size="36.0" fill="#000000" transform="matrix(1.00, 0.00, -0.00, -1.00, 332.0, 2.0)">c</text><text xml:space="preserve" font-family="Avenir-Heavy" font-weight="bold" font-size="36.0" fill="#000000" transform="matrix(1.00, 0.00, -0.00, -1.00, 349.3, 2.0)">k</text><text xml:space="preserve" font-family="Avenir-Heavy" font-weight="bold" font-size="36.0" fill="#000000" transform="matrix(1.00, 0.00, -0.00, -1.00, 368.7, 2.0)">s</text><text xml:space="preserve" font-family="Avenir-Heavy" font-weight="bold" font-size="36.0" fill="#000000" transform="matrix(1.00, 0.00, -0.00, -1.00, 384.7, 2.0)">!</text></g></svg>