<?xml version="1.0" encoding="UTF-8" standalone="no"?><svg xmlns="http://www.w3.org/2000/svg" xmlns:xlink="http://www.w3.org/1999/xlink" clip-rule="evenodd" stroke-miterlimit="4.00" viewBox="0 0 864 377"><desc>SVG generated by Keynote</desc><defs></defs><g transform="matrix(1.00, 0.00, -0.00, -1.00, 0.0, 377.0)"><text xml:space="preserve" font-family="Avenir-Book" font-size="27.0" fill="#000000" transform="matrix(1.00, 0.00, -0.00, -1.00, 0.0, 348.9)">•</text><text xml:space="preserve" font-family="Avenir-Book" font-size="36.0" fill="#000000" transform="matrix(1.00, 0.00, -0.00, -1.00, 35.0, 346.0)">C</text><text xml:space="preserve" font-family="Avenir-Book" font-size="36.0" fill="#000000" transform="matrix(1.00, 0.00, -0.00, -1.00, 60.3, 346.0)">l</text><text xml:space="preserve" font-family="Avenir-Book" font-size="36.0" fill="#000000" transform="matrix(1.00, 0.00, -0.00, -1.00, 69.0, 346.0)">o</text><text xml:space="preserve" font-family="Avenir-Book" font-size="36.0" fill="#000000" transform="matrix(1.00, 0.00, -0.00, -1.00, 90.3, 346.0)">u</text><text xml:space="preserve" font-family="Avenir-Book" font-size="36.0" fill="#000000" transform="matrix(1.00, 0.00, -0.00, -1.00, 110.3, 346.0)">d</text><text xml:space="preserve" font-family="Avenir-Book" font-size="36.0" fill="#000000" transform="matrix(1.00, 0.00, -0.00, -1.00, 132.3, 346.0)"> </text><text xml:space="preserve" font-family="Avenir-Book" font-size="36.0" fill="#000000" transform="matrix(1.00, 0.00, -0.00, -1.00, 142.4, 346.0)">s</text><text xml:space="preserve" font-family="Avenir-Book" font-size="36.0" fill="#000000" transform="matrix(1.00, 0.00, -0.00, -1.00, 157.7, 346.0)">t</text><text xml:space="preserve" font-family="Avenir-Book" font-size="36.0" fill="#000000" transform="matrix(1.00, 0.00, -0.00, -1.00, 169.6, 346.0)">o</text><text xml:space="preserve" font-family="Avenir-Book" font-size="36.0" fill="#000000" transform="matrix(1.00, 0.00, -0.00, -1.00, 191.0, 346.0)">r</text><text xml:space="preserve" font-family="Avenir-Book" font-size="36.0" fill="#000000" transform="matrix(1.00, 0.00, -0.00, -1.00, 202.3, 346.0)">e</text><text xml:space="preserve" font-family="Avenir-Book" font-size="36.0" fill="#000000" transform="matrix(1.00, 0.00, -0.00, -1.00, 222.3, 346.0)">s</text><text xml:space="preserve" font-family="Avenir-Book" font-size="36.0" fill="#000000" transform="matrix(1.00, 0.00, -0.00, -1.00, 237.6, 346.0)"> </text><text xml:space="preserve" font-family="Avenir-Book" font-size="36.0" fill="#000000" transform="matrix(1.00, 0.00, -0.00, -1.00, 247.7, 346.0)">c</text><text xml:space="preserve" font-family="Avenir-Book" font-size="36.0" fill="#000000" transform="matrix(1.00, 0.00, -0.00, -1.00, 265.0, 346.0)">a</text><text xml:space="preserve" font-family="Avenir-Book" font-size="36.0" fill="#000000" transform="matrix(1.00, 0.00, -0.00, -1.00, 283.7, 346.0)">n</text><text xml:space="preserve" font-family="Avenir-Book" font-size="36.0" fill="#000000" transform="matrix(1.00, 0.00, -0.00, -1.00, 303.7, 346.0)"> </text><text xml:space="preserve" font-family="Avenir-Book" font-size="36.0" fill="#000000" transform="matrix(1.00, 0.00, -0.00, -1.00, 313.7, 346.0)">d</text><text xml:space="preserve" font-family="Avenir-Book" font-size="36.0" fill="#000000" transform="matrix(1.00, 0.00, -0.00, -1.00, 335.7, 346.0)">e</text><text xml:space="preserve" font-family="Avenir-Book" font-size="36.0" fill="#000000" transform="matrix(1.00, 0.00, -0.00, -1.00, 355.7, 346.0)">t</text><text xml:space="preserve" font-family="Avenir-Book" font-size="36.0" fill="#000000" transform="matrix(1.00, 0.00, -0.00, -1.00, 367.7, 346.0)">e</text><text xml:space="preserve" font-family="Avenir-Book" font-size="36.0" fill="#000000" transform="matrix(1.00, 0.00, -0.00, -1.00, 387.7, 346.0)">r</text><text xml:space="preserve" font-family="Avenir-Book" font-size="36.0" fill="#000000" transform="matrix(1.00, 0.00, -0.00, -1.00, 400.3, 346.0)">m</text><text xml:space="preserve" font-family="Avenir-Book" font-size="36.0" fill="#000000" transform="matrix(1.00, 0.00, -0.00, -1.00, 431.0, 346.0)">i</text><text xml:space="preserve" font-family="Avenir-Book" font-size="36.0" fill="#000000" transform="matrix(1.00, 0.00, -0.00, -1.00, 439.6, 346.0)">n</text><text xml:space="preserve" font-family="Avenir-Book" font-size="36.0" fill="#000000" transform="matrix(1.00, 0.00, -0.00, -1.00, 459.6, 346.0)">e</text><text xml:space="preserve" font-family="Avenir-Book" font-size="36.0" fill="#000000" transform="matrix(1.00, 0.00, -0.00, -1.00, 479.6, 346.0)"> </text><text xml:space="preserve" font-family="Avenir-Book" font-size="36.0" fill="#000000" transform="matrix(1.00, 0.00, -0.00, -1.00, 489.6, 346.0)">t</text><text xml:space="preserve" font-family="Avenir-Book" font-size="36.0" fill="#000000" transform="matrix(1.00, 0.00, -0.00, -1.00, 501.6, 346.0)">h</text><text xml:space="preserve" font-family="Avenir-Book" font-size="36.0" fill="#000000" transform="matrix(1.00, 0.00, -0.00, -1.00, 521.6, 346.0)">e</text><text xml:space="preserve" font-family="Avenir-Book" font-size="36.0" fill="#000000" transform="matrix(1.00, 0.00, -0.00, -1.00, 541.6, 346.0)"> </text><text xml:space="preserve" font-family="Avenir-Book" font-size="36.0" fill="#000000" transform="matrix(1.00, 0.00, -0.00, -1.00, 551.6, 346.0)">n</text><text xml:space="preserve" font-family="Avenir-Book" font-size="36.0" fill="#000000" transform="matrix(1.00, 0.00, -0.00, -1.00, 571.7, 346.0)">u</text><text xml:space="preserve" font-family="Avenir-Book" font-size="36.0" fill="#000000" transform="matrix(1.00, 0.00, -0.00, -1.00, 591.7, 346.0)">m</text><text xml:space="preserve" font-family="Avenir-Book" font-size="36.0" fill="#000000" transform="matrix(1.00, 0.00, -0.00, -1.00, 622.3, 346.0)">b</text><text xml:space="preserve" font-family="Avenir-Book" font-size="36.0" fill="#000000" transform="matrix(1.00, 0.00, -0.00, -1.00, 644.3, 346.0)">e</text><text xml:space="preserve" font-family="Avenir-Book" font-size="36.0" fill="#000000" transform="matrix(1.00, 0.00, -0.00, -1.00, 664.4, 346.0)">r</text><text xml:space="preserve" font-family="Avenir-Book" font-size="36.0" fill="#000000" transform="matrix(1.00, 0.00, -0.00, -1.00, 676.3, 346.0)"> </text><text xml:space="preserve" font-family="Avenir-Book" font-size="36.0" fill="#000000" transform="matrix(1.00, 0.00, -0.00, -1.00, 686.3, 346.0)">o</text><text xml:space="preserve" font-family="Avenir-Book" font-size="36.0" fill="#000000" transform="matrix(1.00, 0.00, -0.00, -1.00, 707.7, 346.0)">f</text><text xml:space="preserve" font-family="Avenir-Book" font-size="36.0" fill="#000000" transform="matrix(1.00, 0.00, -0.00, -1.00, 718.3, 346.0)"> </text><text xml:space="preserve" font-family="Avenir-Book" font-size="36.0" fill="#000000" transform="matrix(1.00, 0.00, -0.00, -1.00, 728.3, 346.0)">f</text><text xml:space="preserve" font-family="Avenir-Book" font-size="36.0" fill="#000000" transform="matrix(1.00, 0.00, -0.00, -1.00, 739.0, 346.0)">i</text><text xml:space="preserve" font-family="Avenir-Book" font-size="36.0" fill="#000000" transform="matrix(1.00, 0.00, -0.00, -1.00, 747.6, 346.0)">l</text><text xml:space="preserve" font-family="Avenir-Book" font-size="36.0" fill="#000000" transform="matrix(1.00, 0.00, -0.00, -1.00, 756.3, 346.0)">e</text><text xml:space="preserve" font-family="Avenir-Book" font-size="36.0" fill="#000000" transform="matrix(1.00, 0.00, -0.00, -1.00, 776.3, 346.0)">s</text><text xml:space="preserve" font-family="Avenir-Book" font-size="36.0" fill="#000000" transform="matrix(1.00, 0.00, -0.00, -1.00, 791.6, 346.0)"> </text><text xml:space="preserve" font-family="Avenir-Book" font-size="36.0" fill="#000000" transform="matrix(1.00, 0.00, -0.00, -1.00, 801.6, 346.0)">a</text><text xml:space="preserve" font-family="Avenir-Book" font-size="36.0" fill="#000000" transform="matrix(1.00, 0.00, -0.00, -1.00, 820.3, 346.0)">n</text><text xml:space="preserve" font-family="Avenir-Book" font-size="36.0" fill="#000000" transform="matrix(1.00, 0.00, -0.00, -1.00, 840.3, 346.0)">d</text><text xml:space="preserve" font-family="Avenir-Book" font-size="36.0" fill="#000000" transform="matrix(1.00, 0.00, -0.00, -1.00, 862.3, 346.0)"> </text><text xml:space="preserve" font-family="Avenir-Book" font-size="36.0" fill="#000000" transform="matrix(1.00, 0.00, -0.00, -1.00, 35.0, 297.0)">t</text><text xml:space="preserve" font-family="Avenir-Book" font-size="36.0" fill="#000000" transform="matrix(1.00, 0.00, -0.00, -1.00, 47.0, 297.0)">h</text><text xml:space="preserve" font-family="Avenir-Book" font-size="36.0" fill="#000000" transform="matrix(1.00, 0.00, -0.00, -1.00, 67.0, 297.0)">e</text><text xml:space="preserve" font-family="Avenir-Book" font-size="36.0" fill="#000000" transform="matrix(1.00, 0.00, -0.00, -1.00, 87.0, 297.0)"> </text><text xml:space="preserve" font-family="Avenir-Book" font-size="36.0" fill="#000000" transform="matrix(1.00, 0.00, -0.00, -1.00, 97.0, 297.0)">s</text><text xml:space="preserve" font-family="Avenir-Book" font-size="36.0" fill="#000000" transform="matrix(1.00, 0.00, -0.00, -1.00, 112.3, 297.0)">i</text><text xml:space="preserve" font-family="Avenir-Book" font-size="36.0" fill="#000000" transform="matrix(1.00, 0.00, -0.00, -1.00, 121.0, 297.0)">z</text><text xml:space="preserve" font-family="Avenir-Book" font-size="36.0" fill="#000000" transform="matrix(1.00, 0.00, -0.00, -1.00, 136.3, 297.0)">e</text><text xml:space="preserve" font-family="Avenir-Book" font-size="36.0" fill="#000000" transform="matrix(1.00, 0.00, -0.00, -1.00, 156.3, 297.0)"> </text><text xml:space="preserve" font-family="Avenir-Book" font-size="36.0" fill="#000000" transform="matrix(1.00, 0.00, -0.00, -1.00, 166.3, 297.0)">o</text><text xml:space="preserve" font-family="Avenir-Book" font-size="36.0" fill="#000000" transform="matrix(1.00, 0.00, -0.00, -1.00, 187.7, 297.0)">f</text><text xml:space="preserve" font-family="Avenir-Book" font-size="36.0" fill="#000000" transform="matrix(1.00, 0.00, -0.00, -1.00, 198.3, 297.0)"> </text><text xml:space="preserve" font-family="Avenir-Book" font-size="36.0" fill="#000000" transform="matrix(1.00, 0.00, -0.00, -1.00, 208.3, 297.0)">e</text><text xml:space="preserve" font-family="Avenir-Book" font-size="36.0" fill="#000000" transform="matrix(1.00, 0.00, -0.00, -1.00, 228.4, 297.0)">a</text><text xml:space="preserve" font-family="Avenir-Book" font-size="36.0" fill="#000000" transform="matrix(1.00, 0.00, -0.00, -1.00, 247.0, 297.0)">c</text><text xml:space="preserve" font-family="Avenir-Book" font-size="36.0" fill="#000000" transform="matrix(1.00, 0.00, -0.00, -1.00, 264.4, 297.0)">h</text><text xml:space="preserve" font-family="Avenir-Book" font-size="36.0" fill="#000000" transform="matrix(1.00, 0.00, -0.00, -1.00, 284.4, 297.0)"> </text><text xml:space="preserve" font-family="Avenir-Book" font-size="36.0" fill="#000000" transform="matrix(1.00, 0.00, -0.00, -1.00, 294.4, 297.0)">f</text><text xml:space="preserve" font-family="Avenir-Book" font-size="36.0" fill="#000000" transform="matrix(1.00, 0.00, -0.00, -1.00, 305.1, 297.0)">i</text><text xml:space="preserve" font-family="Avenir-Book" font-size="36.0" fill="#000000" transform="matrix(1.00, 0.00, -0.00, -1.00, 313.7, 297.0)">l</text><text xml:space="preserve" font-family="Avenir-Book" font-size="36.0" fill="#000000" transform="matrix(1.00, 0.00, -0.00, -1.00, 322.4, 297.0)">e</text><text xml:space="preserve" font-family="Avenir-Book" font-size="36.0" fill="#000000" transform="matrix(1.00, 0.00, -0.00, -1.00, 342.4, 297.0)"> </text><text xml:space="preserve" font-family="Avenir-Book" font-size="27.0" fill="#000000" transform="matrix(1.00, 0.00, -0.00, -1.00, 0.0, 181.9)">•</text><text xml:space="preserve" font-family="Avenir-Book" font-size="36.0" fill="#000000" transform="matrix(1.00, 0.00, -0.00, -1.00, 35.0, 179.0)">A</text><text xml:space="preserve" font-family="Avenir-Book" font-size="36.0" fill="#000000" transform="matrix(1.00, 0.00, -0.00, -1.00, 59.7, 179.0)"> </text><text xml:space="preserve" font-family="Avenir-Book" font-size="36.0" fill="#000000" transform="matrix(1.00, 0.00, -0.00, -1.00, 69.7, 179.0)">n</text><text xml:space="preserve" font-family="Avenir-Book" font-size="36.0" fill="#000000" transform="matrix(1.00, 0.00, -0.00, -1.00, 89.7, 179.0)">e</text><text xml:space="preserve" font-family="Avenir-Book" font-size="36.0" fill="#000000" transform="matrix(1.00, 0.00, -0.00, -1.00, 109.7, 179.0)">t</text><text xml:space="preserve" font-family="Avenir-Book" font-size="36.0" fill="#000000" transform="matrix(1.00, 0.00, -0.00, -1.00, 121.7, 179.0)">w</text><text xml:space="preserve" font-family="Avenir-Book" font-size="36.0" fill="#000000" transform="matrix(1.00, 0.00, -0.00, -1.00, 147.7, 179.0)">o</text><text xml:space="preserve" font-family="Avenir-Book" font-size="36.0" fill="#000000" transform="matrix(1.00, 0.00, -0.00, -1.00, 169.0, 179.0)">r</text><text xml:space="preserve" font-family="Avenir-Book" font-size="36.0" fill="#000000" transform="matrix(1.00, 0.00, -0.00, -1.00, 181.0, 179.0)">k</text><text xml:space="preserve" font-family="Avenir-Book" font-size="36.0" fill="#000000" transform="matrix(1.00, 0.00, -0.00, -1.00, 198.3, 179.0)"> </text><text xml:space="preserve" font-family="Avenir-Book" font-size="36.0" fill="#000000" transform="matrix(1.00, 0.00, -0.00, -1.00, 208.3, 179.0)">a</text><text xml:space="preserve" font-family="Avenir-Book" font-size="36.0" fill="#000000" transform="matrix(1.00, 0.00, -0.00, -1.00, 227.0, 179.0)">d</text><text xml:space="preserve" font-family="Avenir-Book" font-size="36.0" fill="#000000" transform="matrix(1.00, 0.00, -0.00, -1.00, 249.0, 179.0)">v</text><text xml:space="preserve" font-family="Avenir-Book" font-size="36.0" fill="#000000" transform="matrix(1.00, 0.00, -0.00, -1.00, 266.4, 179.0)">e</text><text xml:space="preserve" font-family="Avenir-Book" font-size="36.0" fill="#000000" transform="matrix(1.00, 0.00, -0.00, -1.00, 286.4, 179.0)">r</text><text xml:space="preserve" font-family="Avenir-Book" font-size="36.0" fill="#000000" transform="matrix(1.00, 0.00, -0.00, -1.00, 298.3, 179.0)">s</text><text xml:space="preserve" font-family="Avenir-Book" font-size="36.0" fill="#000000" transform="matrix(1.00, 0.00, -0.00, -1.00, 313.7, 179.0)">a</text><text xml:space="preserve" font-family="Avenir-Book" font-size="36.0" fill="#000000" transform="matrix(1.00, 0.00, -0.00, -1.00, 332.4, 179.0)">r</text><text xml:space="preserve" font-family="Avenir-Book" font-size="36.0" fill="#000000" transform="matrix(1.00, 0.00, -0.00, -1.00, 344.3, 179.0)">y</text><text xml:space="preserve" font-family="Avenir-Book" font-size="36.0" fill="#000000" transform="matrix(1.00, 0.00, -0.00, -1.00, 361.7, 179.0)"> </text><text xml:space="preserve" font-family="Avenir-Book" font-size="36.0" fill="#000000" transform="matrix(1.00, 0.00, -0.00, -1.00, 371.7, 179.0)">c</text><text xml:space="preserve" font-family="Avenir-Book" font-size="36.0" fill="#000000" transform="matrix(1.00, 0.00, -0.00, -1.00, 389.0, 179.0)">a</text><text xml:space="preserve" font-family="Avenir-Book" font-size="36.0" fill="#000000" transform="matrix(1.00, 0.00, -0.00, -1.00, 407.7, 179.0)">n</text><text xml:space="preserve" font-family="Avenir-Book" font-size="36.0" fill="#000000" transform="matrix(1.00, 0.00, -0.00, -1.00, 427.7, 179.0)"> </text><text xml:space="preserve" font-family="Avenir-Book" font-size="36.0" fill="#000000" transform="matrix(1.00, 0.00, -0.00, -1.00, 437.7, 179.0)">p</text><text xml:space="preserve" font-family="Avenir-Book" font-size="36.0" fill="#000000" transform="matrix(1.00, 0.00, -0.00, -1.00, 459.7, 179.0)">o</text><text xml:space="preserve" font-family="Avenir-Book" font-size="36.0" fill="#000000" transform="matrix(1.00, 0.00, -0.00, -1.00, 481.1, 179.0)">t</text><text xml:space="preserve" font-family="Avenir-Book" font-size="36.0" fill="#000000" transform="matrix(1.00, 0.00, -0.00, -1.00, 493.0, 179.0)">e</text><text xml:space="preserve" font-family="Avenir-Book" font-size="36.0" fill="#000000" transform="matrix(1.00, 0.00, -0.00, -1.00, 513.0, 179.0)">n</text><text xml:space="preserve" font-family="Avenir-Book" font-size="36.0" fill="#000000" transform="matrix(1.00, 0.00, -0.00, -1.00, 533.1, 179.0)">t</text><text xml:space="preserve" font-family="Avenir-Book" font-size="36.0" fill="#000000" transform="matrix(1.00, 0.00, -0.00, -1.00, 545.0, 179.0)">i</text><text xml:space="preserve" font-family="Avenir-Book" font-size="36.0" fill="#000000" transform="matrix(1.00, 0.00, -0.00, -1.00, 553.7, 179.0)">a</text><text xml:space="preserve" font-family="Avenir-Book" font-size="36.0" fill="#000000" transform="matrix(1.00, 0.00, -0.00, -1.00, 572.3, 179.0)">l</text><text xml:space="preserve" font-family="Avenir-Book" font-size="36.0" fill="#000000" transform="matrix(1.00, 0.00, -0.00, -1.00, 581.0, 179.0)">l</text><text xml:space="preserve" font-family="Avenir-Book" font-size="36.0" fill="#000000" transform="matrix(1.00, 0.00, -0.00, -1.00, 589.6, 179.0)">y</text><text xml:space="preserve" font-family="Avenir-Book" font-size="36.0" fill="#000000" transform="matrix(1.00, 0.00, -0.00, -1.00, 607.0, 179.0)"> </text><text xml:space="preserve" font-family="Avenir-Book" font-size="36.0" fill="#000000" transform="matrix(1.00, 0.00, -0.00, -1.00, 617.0, 179.0)">c</text><text xml:space="preserve" font-family="Avenir-Book" font-size="36.0" fill="#000000" transform="matrix(1.00, 0.00, -0.00, -1.00, 634.3, 179.0)">o</text><text xml:space="preserve" font-family="Avenir-Book" font-size="36.0" fill="#000000" transform="matrix(1.00, 0.00, -0.00, -1.00, 655.7, 179.0)">m</text><text xml:space="preserve" font-family="Avenir-Book" font-size="36.0" fill="#000000" transform="matrix(1.00, 0.00, -0.00, -1.00, 686.3, 179.0)">b</text><text xml:space="preserve" font-family="Avenir-Book" font-size="36.0" fill="#000000" transform="matrix(1.00, 0.00, -0.00, -1.00, 708.3, 179.0)">i</text><text xml:space="preserve" font-family="Avenir-Book" font-size="36.0" fill="#000000" transform="matrix(1.00, 0.00, -0.00, -1.00, 717.0, 179.0)">n</text><text xml:space="preserve" font-family="Avenir-Book" font-size="36.0" fill="#000000" transform="matrix(1.00, 0.00, -0.00, -1.00, 737.0, 179.0)">e</text><text xml:space="preserve" font-family="Avenir-Book" font-size="36.0" fill="#000000" transform="matrix(1.00, 0.00, -0.00, -1.00, 757.0, 179.0)"> </text><text xml:space="preserve" font-family="Avenir-Book" font-size="36.0" fill="#000000" transform="matrix(1.00, 0.00, -0.00, -1.00, 35.0, 130.0)">o</text><text xml:space="preserve" font-family="Avenir-Book" font-size="36.0" fill="#000000" transform="matrix(1.00, 0.00, -0.00, -1.00, 56.3, 130.0)">u</text><text xml:space="preserve" font-family="Avenir-Book" font-size="36.0" fill="#000000" transform="matrix(1.00, 0.00, -0.00, -1.00, 76.4, 130.0)">t</text><text xml:space="preserve" font-family="Avenir-Book" font-size="36.0" fill="#000000" transform="matrix(1.00, 0.00, -0.00, -1.00, 88.3, 130.0)">b</text><text xml:space="preserve" font-family="Avenir-Book" font-size="36.0" fill="#000000" transform="matrix(1.00, 0.00, -0.00, -1.00, 110.3, 130.0)">o</text><text xml:space="preserve" font-family="Avenir-Book" font-size="36.0" fill="#000000" transform="matrix(1.00, 0.00, -0.00, -1.00, 131.7, 130.0)">u</text><text xml:space="preserve" font-family="Avenir-Book" font-size="36.0" fill="#000000" transform="matrix(1.00, 0.00, -0.00, -1.00, 151.7, 130.0)">n</text><text xml:space="preserve" font-family="Avenir-Book" font-size="36.0" fill="#000000" transform="matrix(1.00, 0.00, -0.00, -1.00, 171.7, 130.0)">d</text><text xml:space="preserve" font-family="Avenir-Book" font-size="36.0" fill="#000000" transform="matrix(1.00, 0.00, -0.00, -1.00, 193.7, 130.0)"> </text><text xml:space="preserve" font-family="Avenir-Book" font-size="36.0" fill="#000000" transform="matrix(1.00, 0.00, -0.00, -1.00, 203.7, 130.0)">s</text><text xml:space="preserve" font-family="Avenir-Book" font-size="36.0" fill="#000000" transform="matrix(1.00, 0.00, -0.00, -1.00, 219.0, 130.0)">h</text><text xml:space="preserve" font-family="Avenir-Book" font-size="36.0" fill="#000000" transform="matrix(1.00, 0.00, -0.00, -1.00, 239.0, 130.0)">a</text><text xml:space="preserve" font-family="Avenir-Book" font-size="36.0" fill="#000000" transform="matrix(1.00, 0.00, -0.00, -1.00, 257.7, 130.0)">r</text><text xml:space="preserve" font-family="Avenir-Book" font-size="36.0" fill="#000000" transform="matrix(1.00, 0.00, -0.00, -1.00, 269.0, 130.0)">e</text><text xml:space="preserve" font-family="Avenir-Book" font-size="36.0" fill="#000000" transform="matrix(1.00, 0.00, -0.00, -1.00, 289.1, 130.0)">s</text><text xml:space="preserve" font-family="Avenir-Book" font-size="36.0" fill="#000000" transform="matrix(1.00, 0.00, -0.00, -1.00, 304.4, 130.0)"> </text><text xml:space="preserve" font-family="Avenir-Book" font-size="36.0" fill="#000000" transform="matrix(1.00, 0.00, -0.00, -1.00, 314.4, 130.0)">a</text><text xml:space="preserve" font-family="Avenir-Book" font-size="36.0" fill="#000000" transform="matrix(1.00, 0.00, -0.00, -1.00, 333.1, 130.0)">s</text><text xml:space="preserve" font-family="Avenir-Book" font-size="36.0" fill="#000000" transform="matrix(1.00, 0.00, -0.00, -1.00, 348.4, 130.0)"> </text><text xml:space="preserve" font-family="Avenir-Book" font-size="36.0" fill="#000000" transform="matrix(1.00, 0.00, -0.00, -1.00, 358.4, 130.0)">t</text><text xml:space="preserve" font-family="Avenir-Book" font-size="36.0" fill="#000000" transform="matrix(1.00, 0.00, -0.00, -1.00, 370.4, 130.0)">h</text><text xml:space="preserve" font-family="Avenir-Book" font-size="36.0" fill="#000000" transform="matrix(1.00, 0.00, -0.00, -1.00, 390.4, 130.0)">e</text><text xml:space="preserve" font-family="Avenir-Book" font-size="36.0" fill="#000000" transform="matrix(1.00, 0.00, -0.00, -1.00, 410.4, 130.0)">y</text><text xml:space="preserve" font-family="Avenir-Book" font-size="36.0" fill="#000000" transform="matrix(1.00, 0.00, -0.00, -1.00, 427.8, 130.0)"> </text><text xml:space="preserve" font-family="Avenir-Book" font-size="36.0" fill="#000000" transform="matrix(1.00, 0.00, -0.00, -1.00, 437.8, 130.0)">a</text><text xml:space="preserve" font-family="Avenir-Book" font-size="36.0" fill="#000000" transform="matrix(1.00, 0.00, -0.00, -1.00, 456.5, 130.0)">r</text><text xml:space="preserve" font-family="Avenir-Book" font-size="36.0" fill="#000000" transform="matrix(1.00, 0.00, -0.00, -1.00, 467.8, 130.0)">e</text><text xml:space="preserve" font-family="Avenir-Book" font-size="36.0" fill="#000000" transform="matrix(1.00, 0.00, -0.00, -1.00, 487.8, 130.0)"> </text><text xml:space="preserve" font-family="Avenir-Book" font-size="36.0" fill="#000000" transform="matrix(1.00, 0.00, -0.00, -1.00, 497.8, 130.0)">b</text><text xml:space="preserve" font-family="Avenir-Book" font-size="36.0" fill="#000000" transform="matrix(1.00, 0.00, -0.00, -1.00, 519.8, 130.0)">e</text><text xml:space="preserve" font-family="Avenir-Book" font-size="36.0" fill="#000000" transform="matrix(1.00, 0.00, -0.00, -1.00, 539.8, 130.0)">i</text><text xml:space="preserve" font-family="Avenir-Book" font-size="36.0" fill="#000000" transform="matrix(1.00, 0.00, -0.00, -1.00, 548.4, 130.0)">n</text><text xml:space="preserve" font-family="Avenir-Book" font-size="36.0" fill="#000000" transform="matrix(1.00, 0.00, -0.00, -1.00, 568.4, 130.0)">g</text><text xml:space="preserve" font-family="Avenir-Book" font-size="36.0" fill="#000000" transform="matrix(1.00, 0.00, -0.00, -1.00, 590.4, 130.0)"> </text><text xml:space="preserve" font-family="Avenir-Book" font-size="36.0" fill="#000000" transform="matrix(1.00, 0.00, -0.00, -1.00, 600.5, 130.0)">s</text><text xml:space="preserve" font-family="Avenir-Book" font-size="36.0" fill="#000000" transform="matrix(1.00, 0.00, -0.00, -1.00, 615.8, 130.0)">e</text><text xml:space="preserve" font-family="Avenir-Book" font-size="36.0" fill="#000000" transform="matrix(1.00, 0.00, -0.00, -1.00, 635.8, 130.0)">n</text><text xml:space="preserve" font-family="Avenir-Book" font-size="36.0" fill="#000000" transform="matrix(1.00, 0.00, -0.00, -1.00, 655.8, 130.0)">t</text><text xml:space="preserve" font-family="Avenir-Book" font-size="36.0" fill="#000000" transform="matrix(1.00, 0.00, -0.00, -1.00, 667.8, 130.0)"> </text><text xml:space="preserve" font-family="Avenir-Book" font-size="27.0" fill="#000000" transform="matrix(1.00, 0.00, -0.00, -1.00, 0.0, 14.9)">•</text><text xml:space="preserve" font-family="Avenir-Book" font-size="36.0" fill="#000000" transform="matrix(1.00, 0.00, -0.00, -1.00, 35.0, 12.0)">I</text><text xml:space="preserve" font-family="Avenir-Book" font-size="36.0" fill="#000000" transform="matrix(1.00, 0.00, -0.00, -1.00, 44.5, 12.0)"> </text><text xml:space="preserve" font-family="Avenir-Book" font-size="36.0" fill="#000000" transform="matrix(1.00, 0.00, -0.00, -1.00, 54.5, 12.0)">u</text><text xml:space="preserve" font-family="Avenir-Book" font-size="36.0" fill="#000000" transform="matrix(1.00, 0.00, -0.00, -1.00, 74.5, 12.0)">s</text><text xml:space="preserve" font-family="Avenir-Book" font-size="36.0" fill="#000000" transform="matrix(1.00, 0.00, -0.00, -1.00, 89.9, 12.0)">e</text><text xml:space="preserve" font-family="Avenir-Book" font-size="36.0" fill="#000000" transform="matrix(1.00, 0.00, -0.00, -1.00, 109.9, 12.0)"> </text><text xml:space="preserve" font-family="Avenir-Book" font-size="36.0" fill="#000000" transform="matrix(1.00, 0.00, -0.00, -1.00, 119.9, 12.0)">t</text><text xml:space="preserve" font-family="Avenir-Book" font-size="36.0" fill="#000000" transform="matrix(1.00, 0.00, -0.00, -1.00, 131.8, 12.0)">h</text><text xml:space="preserve" font-family="Avenir-Book" font-size="36.0" fill="#000000" transform="matrix(1.00, 0.00, -0.00, -1.00, 151.9, 12.0)">e</text><text xml:space="preserve" font-family="Avenir-Book" font-size="36.0" fill="#000000" transform="matrix(1.00, 0.00, -0.00, -1.00, 171.9, 12.0)"> </text><text xml:space="preserve" font-family="Avenir-Book" font-size="36.0" fill="#000000" transform="matrix(1.00, 0.00, -0.00, -1.00, 181.9, 12.0)">s</text><text xml:space="preserve" font-family="Avenir-Book" font-size="36.0" fill="#000000" transform="matrix(1.00, 0.00, -0.00, -1.00, 197.2, 12.0)">a</text><text xml:space="preserve" font-family="Avenir-Book" font-size="36.0" fill="#000000" transform="matrix(1.00, 0.00, -0.00, -1.00, 215.9, 12.0)">m</text><text xml:space="preserve" font-family="Avenir-Book" font-size="36.0" fill="#000000" transform="matrix(1.00, 0.00, -0.00, -1.00, 246.6, 12.0)">e</text><text xml:space="preserve" font-family="Avenir-Book" font-size="36.0" fill="#000000" transform="matrix(1.00, 0.00, -0.00, -1.00, 266.6, 12.0)"> </text><text xml:space="preserve" font-family="Avenir-Book" font-size="36.0" fill="#000000" transform="matrix(1.00, 0.00, -0.00, -1.00, 276.6, 12.0)">p</text><text xml:space="preserve" font-family="Avenir-Book" font-size="36.0" fill="#000000" transform="matrix(1.00, 0.00, -0.00, -1.00, 298.6, 12.0)">a</text><text xml:space="preserve" font-family="Avenir-Book" font-size="36.0" fill="#000000" transform="matrix(1.00, 0.00, -0.00, -1.00, 317.3, 12.0)">s</text><text xml:space="preserve" font-family="Avenir-Book" font-size="36.0" fill="#000000" transform="matrix(1.00, 0.00, -0.00, -1.00, 332.6, 12.0)">s</text><text xml:space="preserve" font-family="Avenir-Book" font-size="36.0" fill="#000000" transform="matrix(1.00, 0.00, -0.00, -1.00, 347.9, 12.0)">w</text><text xml:space="preserve" font-family="Avenir-Book" font-size="36.0" fill="#000000" transform="matrix(1.00, 0.00, -0.00, -1.00, 373.9, 12.0)">o</text><text xml:space="preserve" font-family="Avenir-Book" font-size="36.0" fill="#000000" transform="matrix(1.00, 0.00, -0.00, -1.00, 395.3, 12.0)">r</text><text xml:space="preserve" font-family="Avenir-Book" font-size="36.0" fill="#000000" transform="matrix(1.00, 0.00, -0.00, -1.00, 406.6, 12.0)">d</text><text xml:space="preserve" font-family="Avenir-Book" font-size="36.0" fill="#000000" transform="matrix(1.00, 0.00, -0.00, -1.00, 428.6, 12.0)"> </text><text xml:space="preserve" font-family="Avenir-Book" font-size="36.0" fill="#000000" transform="matrix(1.00, 0.00, -0.00, -1.00, 438.6, 12.0)">f</text><text xml:space="preserve" font-family="Avenir-Book" font-size="36.0" fill="#000000" transform="matrix(1.00, 0.00, -0.00, -1.00, 449.3, 12.0)">o</text><text xml:space="preserve" font-family="Avenir-Book" font-size="36.0" fill="#000000" transform="matrix(1.00, 0.00, -0.00, -1.00, 470.6, 12.0)">r</text><text xml:space="preserve" font-family="Avenir-Book" font-size="36.0" fill="#000000" transform="matrix(1.00, 0.00, -0.00, -1.00, 482.6, 12.0)"> </text><text xml:space="preserve" font-family="Avenir-Book" font-size="36.0" fill="#000000" transform="matrix(1.00, 0.00, -0.00, -1.00, 492.6, 12.0)">e</text><text xml:space="preserve" font-family="Avenir-Book" font-size="36.0" fill="#000000" transform="matrix(1.00, 0.00, -0.00, -1.00, 512.6, 12.0)">v</text><text xml:space="preserve" font-family="Avenir-Book" font-size="36.0" fill="#000000" transform="matrix(1.00, 0.00, -0.00, -1.00, 529.9, 12.0)">e</text><text xml:space="preserve" font-family="Avenir-Book" font-size="36.0" fill="#000000" transform="matrix(1.00, 0.00, -0.00, -1.00, 549.9, 12.0)">r</text><text xml:space="preserve" font-family="Avenir-Book" font-size="36.0" fill="#000000" transform="matrix(1.00, 0.00, -0.00, -1.00, 561.9, 12.0)">y</text><text xml:space="preserve" font-family="Avenir-Book" font-size="36.0" fill="#000000" transform="matrix(1.00, 0.00, -0.00, -1.00, 579.2, 12.0)">t</text><text xml:space="preserve" font-family="Avenir-Book" font-size="36.0" fill="#000000" transform="matrix(1.00, 0.00, -0.00, -1.00, 591.2, 12.0)">h</text><text xml:space="preserve" font-family="Avenir-Book" font-size="36.0" fill="#000000" transform="matrix(1.00, 0.00, -0.00, -1.00, 611.2, 12.0)">i</text><text xml:space="preserve" font-family="Avenir-Book" font-size="36.0" fill="#000000" transform="matrix(1.00, 0.00, -0.00, -1.00, 619.9, 12.0)">n</text><text xml:space="preserve" font-family="Avenir-Book" font-size="36.0" fill="#000000" transform="matrix(1.00, 0.00, -0.00, -1.00, 639.9, 12.0)">g</text><text xml:space="preserve" font-family="Avenir-Book" font-size="36.0" fill="#000000" transform="matrix(1.00, 0.00, -0.00, -1.00, 661.9, 12.0)">?</text></g></svg>